<?xml version="1.0" encoding="utf-8"?>
<!-- Generator: Adobe Illustrator 22.1.0, SVG Export Plug-In . SVG Version: 6.00 Build 0)  -->
<svg version="1.1" xmlns="http://www.w3.org/2000/svg" xmlns:xlink="http://www.w3.org/1999/xlink" x="0px" y="0px"
	 viewBox="0 0 752 309" style="enable-background:new 0 0 752 309;" xml:space="preserve">
<style type="text/css">
	.st0{fill:#BFE5E7;}
	.st1{fill:none;stroke:#FFFFFF;stroke-width:3;stroke-miterlimit:10;}
</style>
<g id="Layer_2">
	<rect x="-33" y="-21.9" class="st0" width="798" height="343.9"/>
</g>
<g id="Layer_1">
	<path class="st1" d="M195.1,153.2L195.1,153.2L195.1,153.2L195.1,153.2z M194.1,153.1l-0.3,0L175,183.6l-51,83l0.4,0.1l110.9,56.4
		l-18.3-77.7l-0.9,0.2L194.1,153.1z M123.5,265.9l0.6,0.2l51-83l18.6-29.9L102,174.8L123.5,265.9z M195.6,152.6l0.1-0.1L195.6,152.6
		L195.6,152.6L195.6,152.6z M195.2,153L195.2,153l0.3-0.3L195.2,153L195.2,153z M287.7,130.6l0.2,1.2L196,153.5l30.1,18.7l83.1,51.2
		l0.1-0.4l56.4-110.9L287.7,130.6z M194.7,153.9l0.4-0.7l-0.1-0.1l0,0l-0.3,0.3l-0.2-0.4l-0.4,0.2l21.8,92.5l0.9-0.2l91.6-21.7
		l0.4-0.4l-83-51l-30.1-18.7L194.7,153.9z M195.2,153L195.2,153l-0.5,0l0.2,0.4L195.2,153L195.2,153L195.2,153z M194.9,152.2
		l0.4,0.4l0.1-0.1l19-30.9l51.3-83l-0.5,0L154.3-18.1l18.3,77.7l0.5,0L194.9,152.2z M287.7,130.6l-21.8-91.4l-0.3-0.3l-51.3,83
		l-18.7,30.4l-0.1,0.1l0.1,0.1l-0.3,0.3l-0.3,0.3l-0.1,0.1l-0.4,0.7l1.1-0.3l0.3,0l91.8-21.7L287.7,130.6z M194.6,153.1l0.4-0.2
		l0.3,0l0.4-0.2l-0.1-0.1l-0.1-0.1l-0.4-0.4l0,0.5L163.4,133l-47.9-29.8L81,82l-0.1,0.4L24.3,193.1l77.7-18.3l91.7-21.5l0.3,0l0.3,0
		L194.6,153.1z M195,152.6l-0.2-0.4l-21.7-92.6l-0.5,0L81.3,81.2l-0.4,0.4l34.6,21.5l47.9,29.8L195,152.6z"/>
</g>
</svg>
