<?xml version="1.0" encoding="utf-8"?>
<!-- Generator: Adobe Illustrator 22.1.0, SVG Export Plug-In . SVG Version: 6.00 Build 0)  -->
<svg version="1.1" id="Layer_1" xmlns="http://www.w3.org/2000/svg" xmlns:xlink="http://www.w3.org/1999/xlink" x="0px" y="0px"
	 viewBox="0 0 3546.2 2000" style="enable-background:new 0 0 3546.2 2000;" xml:space="preserve">
<style type="text/css">
	.st0{fill:#D1DEE5;}
	.st1{fill:none;}
	.st2{fill:#E1E1E0;}
	.st3{fill:#9A9A99;}
	.st4{fill:#DD9F41;}
	.st5{fill:#BC8836;}
	.st6{fill:#BBB9B8;}
	
		.st7{fill:none;stroke:#A5A2A0;stroke-width:12.7425;stroke-linecap:round;stroke-linejoin:round;stroke-miterlimit:10;stroke-dasharray:38.0451;}
	.st8{fill:#FEC64A;}
	.st9{fill:#1A649B;}
	.st10{fill:#0B4B77;}
	.st11{fill:#207FC3;}
	.st12{fill:#8FB133;}
	.st13{fill:#779633;}
	.st14{fill:#A1C635;}
	.st15{fill:#FFFFFF;}
	.st16{fill:#C83D20;}
	.st17{fill:#A5331D;}
	.st18{fill:#F0492A;}
	.st19{fill:#002B42;}
	.st20{fill:#C0CACE;}
	.st21{fill:#EE433C;}
	.st22{fill:#DA3D36;}
	.st23{fill:#CB3832;}
	.st24{fill:#4A311A;}
	.st25{fill:#F94E4E;}
	.st26{fill:#002237;}
	.st27{fill:#FEFEFE;}
	
		.st28{fill:none;stroke:#002B42;stroke-width:7.3979;stroke-linecap:round;stroke-linejoin:round;stroke-miterlimit:10;stroke-dasharray:22.0879;}
	.st29{fill:#10405B;}
	
		.st30{fill:none;stroke:#002B42;stroke-width:12.7425;stroke-linecap:round;stroke-linejoin:round;stroke-miterlimit:10;stroke-dasharray:38.0454;}
	.st31{fill:#14598B;}
	.st32{fill:#1B68A1;}
	.st33{fill:#869096;}
	.st34{fill:#656F73;}
	.st35{fill:#C4372E;}
</style>
<g id="Layer_2_1_">
	<g>
		<g>
			<path class="st0" d="M1913.6,1730.3l-279.8-135.5l-63.7,2.1l39,50.4l276.6,139.5c16.1,8.1,35.6,1.1,42.9-15.3l0,0
				C1935.5,1755.9,1928.8,1737.7,1913.6,1730.3z"/>
			<path class="st0" d="M1931.3,1758.6c0,4.3-0.9,8.6-2.7,12.8c-7.3,16.4-26.9,23.4-42.9,15.3l-276.6-139.5l-39-50.4l29.5-0.9
				l18.6,24.1l276.6,139.5c12.4,6.2,26.8,3.5,36.2-5.6C1931.2,1755.4,1931.3,1757,1931.3,1758.6z"/>
			<path class="st0" d="M1597.2,1595.9c0,0,4.6,16.6-10.8,22.1l-17.5-17.8c-2.8-2.9-0.5-7.7,3.6-7.3L1597.2,1595.9z"/>
		</g>
		<line class="st1" x1="1401.3" y1="659.6" x2="1378.6" y2="646.8"/>
		
			<ellipse transform="matrix(0.3065 -0.9519 0.9519 0.3065 -395.7535 2345.0425)" class="st0" cx="1411.5" cy="1444.1" rx="74.5" ry="134.7"/>
		<path class="st0" d="M2285.3,1274.4L1559.8,1454c-13.9,3.4-28.5-0.8-38.4-11.1l-35.1-36.7c-21.2-22.1-10.5-58.8,19.2-66.2
			l725.5-179.6c13.9-3.4,28.5,0.8,38.4,11.1l35.1,36.7C2325.6,1230.4,2315,1267.1,2285.3,1274.4z"/>
		<polygon class="st2" points="1711.9,1307.2 2103.7,1211.4 2011.9,1172.5 1618.5,1268.3 		"/>
		<polygon class="st3" points="1785.9,1271 1755.5,1249 1757.1,1159.3 1785.9,1152.6 		"/>
		<path class="st4" d="M2693.6,438v157.9c0,5.8-1.7,11.2-4.7,15.8l-200.7-148.9c3.8-6.3,9.9-11,17.4-13l151.7-39.8
			C2675.7,405.2,2693.6,419,2693.6,438z"/>
		<path class="st5" d="M2688.9,611.7c-3.8,5.9-9.8,10.4-16.9,12.2l-151.7,39.9c-18.3,4.8-36.3-9-36.3-28v-158c0-5.4,1.5-10.6,4.2-15
			L2688.9,611.7z"/>
		<path class="st6" d="M2277.9,527.5l-809.1,155c-5.5,1.3-10.3,3.9-14.3,7.5l-53.3-30.3c6.9-8.4,16.4-14.6,27.6-17.2l760.5-177.8
			c6.7-1.6,14.8-1.6,23.3-0.1c21.3,3.9,39.6,17.6,50.2,36.5L2277.9,527.5z"/>
		<path class="st3" d="M1463.1,1225.5l-37.3-6.9c-26.4-10.9-37.2-40.6-37.1-62.9l1.3-464.3c0-11.9,4.2-23,11.4-31.8l53.3,30.3
			c-6.3,5.8-10.2,14.2-10.2,23.3L1463.1,1225.5z"/>
		<polygon class="st6" points="1987.2,1105.6 1985.1,1166.2 1984.9,1172.8 1983.2,1225.5 1785.9,1271 1785.9,1151.5 		"/>
		<polygon class="st6" points="2103.7,1211.4 2103.7,1248.4 1711.6,1345.5 1711.9,1307.2 		"/>
		<polygon class="st3" points="1618.5,1268.3 1618.5,1300.6 1711.6,1345.5 1711.9,1307.2 		"/>
		<path class="st7" d="M2311.9,971.3l260.8-60c17.5-4,29.9-19.6,29.9-37.5V696.9"/>
		<polyline class="st7" points="1340.9,1205.9 1052.8,1272.2 1054,1071.6 		"/>
		<path class="st8" d="M2501.4,490.3v152.5c0,18.3,17.3,31.7,35,27l146.4-38.5c12.3-3.2,20.8-14.3,20.8-27V451.9
			c0-18.3-17.3-31.7-35-27l-146.4,38.4C2510,466.5,2501.4,477.6,2501.4,490.3z"/>
		<path class="st9" d="M1135.3,766.2v157.9c0,5.8-1.7,11.2-4.7,15.8L929.9,791c3.8-6.3,9.9-11,17.4-13l151.7-39.8
			C1117.3,733.4,1135.3,747.2,1135.3,766.2z"/>
		<path class="st10" d="M1130.6,939.9c-3.8,5.9-9.8,10.4-16.9,12.2L962,992c-18.3,4.8-36.3-9-36.3-28V806c0-5.4,1.5-10.6,4.2-15
			L1130.6,939.9z"/>
		<path class="st11" d="M943.1,818.5V971c0,18.3,17.3,31.7,35,27l146.4-38.5c12.3-3.2,20.8-14.3,20.8-27V780.1
			c0-18.3-17.3-31.7-35-27l-146.4,38.4C951.7,794.7,943.1,805.8,943.1,818.5z"/>
		<g>
			<path class="st12" d="M1481.3,286v157.9c0,5.8-1.7,11.2-4.7,15.8l-200.7-149c3.8-6.3,9.9-11,17.4-13l151.7-39.8
				C1463.4,253.1,1481.3,267,1481.3,286z"/>
			<path class="st13" d="M1476.6,459.7c-3.8,5.9-9.8,10.4-16.9,12.2L1308,511.8c-18.3,4.8-36.3-9-36.3-28v-158
				c0-5.4,1.5-10.6,4.2-15L1476.6,459.7z"/>
			<path class="st14" d="M1289.1,338.2v152.5c0,18.3,17.3,31.7,35,27l146.5-38.5c12.3-3.2,20.8-14.3,20.8-27V299.8
				c0-18.3-17.3-31.7-35-27L1310,311.2C1297.7,314.4,1289.1,325.5,1289.1,338.2z"/>
			<g>
				<path class="st13" d="M1395,453.3c-9.7-1.6-19.1-5.7-27.2-12.4l-33.7-28.1c-11.8-9.8-19-23.5-20.3-38.8
					c-1.3-15.2,3.4-30,13.2-41.7c5.7-6.7,15.8-7.6,22.5-1.9s7.6,15.8,1.9,22.5c-4.3,5.1-6.4,11.6-5.8,18.2
					c0.6,6.7,3.7,12.7,8.9,16.9l33.8,28.1c10.1,8.4,25.1,7.5,34-2.1l2.3-2.4c6-6.4,16.2-6.8,22.6-0.7c6.4,6,6.8,16.2,0.7,22.6
					l-2.3,2.4C1432.3,450.3,1413.2,456.2,1395,453.3z"/>
			</g>
			<g>
				<path class="st15" d="M1409.8,453.3c-9.7-1.6-19.1-5.7-27.2-12.4l-33.8-28.1c-11.8-9.8-19-23.5-20.3-38.8
					c-1.3-15.2,3.4-30,13.2-41.7c5.7-6.7,15.8-7.6,22.5-1.9s7.6,15.8,1.9,22.5c-4.3,5.1-6.4,11.6-5.8,18.2
					c0.6,6.7,3.7,12.7,8.9,16.9l33.8,28.1c10.1,8.4,25.1,7.5,34-2.1l2.3-2.4c6-6.4,16.2-6.8,22.6-0.7c6.4,6,6.8,16.2,0.7,22.6
					l-2.3,2.4C1447.1,450.3,1427.9,456.2,1409.8,453.3z"/>
			</g>
		</g>
		<g>
			<path class="st16" d="M2250.1,131.2v157.9c0,5.8-1.7,11.2-4.7,15.8L2044.7,156c3.8-6.3,9.9-11,17.4-13l151.7-39.8
				C2232.2,98.3,2250.1,112.2,2250.1,131.2z"/>
			<path class="st17" d="M2245.4,304.9c-3.8,5.9-9.8,10.4-16.9,12.2L2076.8,357c-18.3,4.8-36.3-9-36.3-28V171c0-5.4,1.5-10.6,4.2-15
				L2245.4,304.9z"/>
			<path class="st18" d="M2057.9,183.4v152.5c0,18.3,17.3,31.7,35,27l146.4-38.5c12.3-3.2,20.8-14.3,20.8-27V145
				c0-18.3-17.3-31.7-35-27l-146.4,38.4C2066.5,159.6,2057.9,170.7,2057.9,183.4z"/>
		</g>
		<polyline class="st7" points="1023.8,737.2 1023.8,470.3 1239.3,420.9 		"/>
		<polyline class="st7" points="2297.1,212.1 2594.4,144 2594.4,399.7 		"/>
		<line class="st7" x1="1535.3" y1="371.7" x2="1996.1" y2="264"/>
		<g>
			<path class="st15" d="M1721.8,1473.5c-2,0-4-0.6-5.8-1.8c-13.6-9.6-23.9-12.5-24-12.5c-5.3-1.5-8.5-7-7-12.3
				c1.4-5.3,6.9-8.5,12.2-7.1c0.5,0.1,13.6,3.7,30.3,15.5c4.5,3.2,5.6,9.4,2.4,14C1728,1472,1724.9,1473.5,1721.8,1473.5z"/>
		</g>
		<g>
			<path class="st6" d="M1539.9,1448.4c0,8.9-5.5,16.8-13.8,20l-48.7,18.5c-31.1,11.8-65.9,8.9-94.6-7.9l-114.6-67.1
				c-4.9-2.9-7.8-8.1-7.8-13.7c0-1.1,0.1-2.3,0.4-3.4c3.8-17.3,15.9-31.5,32.4-38l7.2-2.9l7.3-2.9l4.5-1.8c0.3-0.1,0.7-0.3,1-0.4
				c2.4-0.9,4.8-1.8,7.2-2.5c29.3-9.2,61.2-6.8,88.9,6.9l103,50.8c8.4,4.2,15.3,10.6,20.1,18.3
				C1537.2,1430,1539.9,1439,1539.9,1448.4z"/>
			<path class="st3" d="M1539.9,1448.4c0,8.9-5.5,16.8-13.8,20l-48.7,18.5c-31.1,11.8-65.9,8.9-94.6-7.9l-114.6-67.1
				c-4.9-2.9-7.8-8.1-7.8-13.7c0-1.1,0.1-2.3,0.4-3.4c2.1-9.4,6.6-17.9,13-24.8c0.4,0.3,0.8,0.6,1.3,0.9l114.6,67.1
				c28.7,16.8,63.5,19.7,94.6,7.9l48.7-18.5c0.7-0.3,1.3-0.5,1.9-0.8C1538.1,1433.2,1539.9,1440.7,1539.9,1448.4z"/>
			<g>
				<path class="st19" d="M1423.1,1412.2c-0.4,0.4-0.9,0.6-1.3,0.6s-0.9-0.1-1.2-0.5c-51.4-46.9-111.4-60.8-112-60.9
					c-0.3-0.1-0.5-0.2-0.7-0.3l4.5-1.8c0.3-0.1,0.7-0.3,1-0.4c14.5,4,65.3,20.2,109.7,60.8
					C1423.7,1410.3,1423.7,1411.4,1423.1,1412.2z"/>
			</g>
			<g>
				<path class="st20" d="M1378.4,1379.4c-1.9,2.8-5,4.2-8.2,4.2c-2,0-4-0.6-5.8-1.8c-13.6-9.6-23.9-12.5-24-12.5
					c-5.3-1.5-8.5-7-7-12.3c0.3-1.3,0.9-2.4,1.7-3.4c1,3.1,3.5,5.6,6.9,6.6c0.1,0,10.4,3,24,12.5c1.7,1.2,3.8,1.8,5.8,1.8
					c3,0,6-1.4,8-4C1380.7,1373.4,1380.3,1376.7,1378.4,1379.4z"/>
				<path class="st2" d="M1379.7,1370.6c-1.9,2.6-5,4-8,4c-2,0-4-0.6-5.8-1.8c-13.6-9.6-23.9-12.5-24-12.5c-3.4-0.9-5.9-3.5-6.9-6.6
					c2.4-3.1,6.5-4.7,10.5-3.6c0.6,0.1,13.6,3.7,30.3,15.5C1377.8,1366.8,1379.1,1368.6,1379.7,1370.6z"/>
			</g>
		</g>
		<g>
			<ellipse class="st0" cx="2625.9" cy="1394.8" rx="154.1" ry="78"/>
			<path class="st21" d="M2605.3,1422.2h-86.5c-39.4,0-71.3-31.9-71.3-71.3v-212.7h229.1v212.7
				C2676.6,1390.3,2644.6,1422.2,2605.3,1422.2z"/>
			<path class="st22" d="M2597.8,1422.2h-79c-39.4,0-71.3-31.9-71.3-71.3v-212.7h79v212.7
				C2526.5,1390.3,2558.4,1422.2,2597.8,1422.2z"/>
			<path class="st23" d="M2676.6,1138.2c0,5.3-2.9,10.4-8.1,15c-16.8,15-58.2,25.6-106.5,25.6s-89.7-10.6-106.5-25.6
				c-5.2-4.7-8.1-9.7-8.1-15c0-22.4,51.3-40.6,114.6-40.6S2676.6,1115.8,2676.6,1138.2z"/>
			<path class="st24" d="M2668.5,1153.2c-16.8,15-58.2,25.6-106.5,25.6s-89.7-10.6-106.5-25.6c16.8-15,58.2-25.6,106.5-25.6
				S2651.7,1138.2,2668.5,1153.2z"/>
			<g>
				<path class="st21" d="M2728.5,1209.2v95.6c0,28.6-23.3,51.9-51.9,51.9v-29.1c12.5,0,22.8-10.2,22.8-22.8v-95.6
					c0-12.5-10.2-22.8-22.8-22.8v-29.1C2705.2,1157.3,2728.5,1180.6,2728.5,1209.2z"/>
			</g>
			<g>
				<path class="st22" d="M2713.7,1209.2v95.6c0,23.5-15.7,43.4-37.2,49.8v-27c12.5,0,22.8-10.2,22.8-22.8v-95.6
					c0-12.5-10.2-22.8-22.8-22.8v-27C2698,1165.8,2713.7,1185.7,2713.7,1209.2z"/>
			</g>
			<path class="st25" d="M2593.3,1406.6h15.1c27.6,0,49.9-22.4,49.9-49.9v-141.3c0-4.2-3.4-7.6-7.6-7.6l0,0c-4.2,0-7.6,3.4-7.6,7.6
				v141.3C2643.3,1384.2,2620.9,1406.6,2593.3,1406.6z"/>
			<circle class="st25" cx="2648.2" cy="1189" r="10.2"/>
		</g>
		<g>
			<path class="st0" d="M2555.5,1545.7c2.1-6,0.1-13.2-6.6-16.7l-276.6-142.7c-13.8-7.1-29.7-8.9-44.7-5l-488.7,126.5
				c-6.7,1.7-10.2,7.5-10.2,13.4l0,0v0.3c0,0,0,0,0,0.1v22.8c0,12.7,7.1,24.2,18.3,30l253.7,133.1c16.8,8.8,36.2,11.2,54.6,6.8
				l479.5-115.7c12.5-3,21.4-14.1,21.4-27v-26.1L2555.5,1545.7z"/>
			<path class="st26" d="M2008.3,1637.9v0.3l-289.4-146.9v22.5c0,12.3,6.9,23.5,17.8,29.2l246.4,129.3c16.3,8.5,35.1,10.9,53,6.6
				l465.6-112.3c12.2-2.9,20.7-13.7,20.7-26.2v-25.3L2008.3,1637.9z"/>
			<path class="st19" d="M2512.3,1523.6l-481.4,119.6c-14.4,3.6-29.6,1.8-42.8-5l-262-135.2c-10.8-5.6-9-21.5,2.8-24.6l474.4-122.9
				c14.6-3.8,30-2,43.4,4.9l268.5,138.6C2526,1504.6,2524.2,1520.7,2512.3,1523.6z"/>
			<path class="st27" d="M1803.4,1507.6l194.3,98.7c16.6,8.4,35.6,10.7,53.7,6.3l392.4-94.1c10.3-2.5,11.9-16.4,2.5-21.2
				l-193.2-97.2c-16.4-8.3-35.2-10.5-53.1-6.3l-394.1,92.6C1795.7,1488.8,1794,1502.8,1803.4,1507.6z"/>
			<g>
				
					<ellipse transform="matrix(6.740518e-02 -0.9977 0.9977 6.740518e-02 485.6352 3518.4021)" class="st28" cx="2124.9" cy="1499.4" rx="33.3" ry="116"/>
				
					<ellipse transform="matrix(0.7532 -0.6578 0.6578 0.7532 -461.912 1767.8546)" class="st28" cx="2124.9" cy="1499.5" rx="116" ry="33.3"/>
			</g>
		</g>
		<g>
			<path class="st19" d="M1877.6,1691.5l-279.8-135.6l-63.7,2.1l39,50.4l276.6,139.5c16.1,8.1,35.6,1.1,42.9-15.3l0,0
				C1899.6,1717.1,1892.9,1698.9,1877.6,1691.5z"/>
			<path class="st26" d="M1895.4,1719.8c0,4.3-0.9,8.6-2.7,12.8c-7.3,16.4-26.9,23.4-42.9,15.3l-276.6-139.5l-39-50.4l29.5-0.9
				l18.6,24.1l276.6,139.5c12.4,6.2,26.8,3.5,36.2-5.6C1895.3,1716.6,1895.4,1718.2,1895.4,1719.8z"/>
			<path class="st29" d="M1561.3,1557.1c0,0,4.6,16.6-10.8,22.1l-17.5-17.8c-2.8-2.9-0.5-7.7,3.6-7.3L1561.3,1557.1z"/>
		</g>
		<path class="st19" d="M1444.3,713v490.8c0,14,13,24.3,26.6,21.2l786.4-181.6c12-2.8,20.6-13.5,20.6-25.8V535.3
			c0-20.1-18.7-35-38.3-30.5l-771,177.8C1454.4,685.8,1444.3,698.5,1444.3,713z"/>
		<polygon class="st27" points="1496.7,720.5 1496.7,1114.6 2225.4,947.4 2225.4,553.6 		"/>
		<path class="st2" d="M2277.9,980.2v40.1c0,10.8-7.4,20.1-17.9,22.5l-788.9,182.1c-13.7,3.2-26.8-7.3-26.8-21.3v-31.7L2277.9,980.2
			z"/>
		
			<ellipse transform="matrix(0.2046 -0.9788 0.9788 0.2046 687.5242 2507.4026)" class="st30" cx="1886.6" cy="830.7" rx="57.3" ry="199.8"/>
		
			<ellipse transform="matrix(0.8368 -0.5475 0.5475 0.8368 -146.8763 1168.4113)" class="st30" cx="1886.5" cy="830.6" rx="199.8" ry="57.3"/>
		<circle class="st3" cx="1886" cy="1098.7" r="18.7"/>
		<circle class="st6" cx="1923.8" cy="1089.3" r="9.3"/>
		<circle class="st6" cx="1848.6" cy="1108" r="9.3"/>
		<g>
			<path class="st13" d="M900.3,1528.8v45.2c0,17.9,8.6,34.6,23.1,45.1l307.4,220.7c13.1,9.4,29.6,12.6,45.2,8.9l278.7-66.6
				c19.6-4.7,33.4-22.4,33-42.6l-0.7-40.3l-328.3,80L900.3,1528.8z"/>
			<path class="st14" d="M1580.2,1678.2c12.8,7.6,9.9,26.9-4.6,30.4l-75.1,18.1l-213.2,51.4c-19.4,4.7-39.9,0.9-56.3-10.5
				l-22.4-15.5l-44.8-31.1l-12.2-8.5l-18-12.5l-219-152l-3.1-2.2l-4-2.8c-11.8-8.2-8.4-26.4,5.6-29.8l249-60.1
				c17.7-4.3,36.4-1.5,52.1,7.8l11.1,6.6l5.5,3.2l33.8,20.1l34.5,20.5l178.9,106.1l20.5,12.2l9.8,5.8l53.2,31.5L1580.2,1678.2z"/>
			<path class="st15" d="M1587.5,1724.9l-319.2,73.3c-6,1.4-10.3,6.7-10.3,12.9l0,0c0,8.5,7.9,14.8,16.3,12.9l306.2-70.9
				c4.1-1,7-4.6,7-8.9V1724.9z"/>
			<polygon class="st8" points="1317.8,1522.2 984.8,1596.8 984.8,1663.1 1037.3,1700.8 1039.3,1635.7 1380.2,1559.6 			"/>
			<polygon class="st5" points="984.8,1596.8 1039.3,1635.7 1037.3,1700.8 984.8,1663.1 			"/>
		</g>
		<g>
			<polyline class="st1" points="1754,1799.6 1747.3,1801.3 1665.8,1821.3 			"/>
			<g>
				<path class="st31" d="M1777.3,1832.4c0,10.6-7.3,19.8-17.6,22.2l-108.9,25.4c-1.9,0.4-3.9,0.6-5.8,0.6v-47.2l132.3-30.6V1832.4z
					"/>
				<path class="st32" d="M1645,1833.4v47.2c-3.6-0.1-7.1-1-10.3-2.8l-47.1-25.7c-7.3-4-11.9-11.7-11.9-20v-26.3l65.7,28.3
					L1645,1833.4z"/>
				<path class="st11" d="M1770.4,1810.3l-119.7,26.3c-8.3,1.8-17,0.9-24.8-2.6l-45.1-20.4c-7.6-3.4-6.6-14.5,1.5-16.5l112.9-27.9
					c8.4-2.1,17.3-1.3,25.3,2.1l11,4.8v4l24.2,10.9l6.6-1.6l9.7,4.2C1779.9,1797.1,1778.8,1808.5,1770.4,1810.3z"/>
				<polygon class="st0" points="1756,1791.2 1676.5,1810.6 1652.2,1798.3 1647.8,1796.1 1725.7,1777.5 1725.7,1777.5 
					1731.6,1780.1 1755.8,1791.1 				"/>
				<polygon class="st31" points="1731.6,1776.1 1731.6,1780.2 1652.2,1798.3 1647.8,1796.1 1725.7,1777.5 				"/>
				
					<ellipse transform="matrix(0.7636 -0.6457 0.6457 0.7636 -766.3799 1509.1931)" class="st33" cx="1677.8" cy="1801.2" rx="3.6" ry="4.1"/>
				<g>
					<path class="st34" d="M1743.2,1785.4c-0.2,0.5-0.6,0.8-1.1,1l-56.1,15.4c-0.2,0-0.3,0.1-0.5,0.1c-0.8,0-1.5-0.5-1.7-1.3
						c-0.3-0.9,0.3-1.9,1.2-2.2l54.1-14.8L1743.2,1785.4z"/>
				</g>
			</g>
			<path class="st3" d="M1433.6,1896.9v45.2c-6.1-0.4-12.2-2-17.7-4.8l-38.4-19.3c-5-2.5-8.2-7.7-8.2-13.3V1872l58.6,26.1
				L1433.6,1896.9z"/>
			<path class="st6" d="M1567.2,1901.4c0,7-4.8,13-11.5,14.5l-108.5,25.1c-4.5,1-9.1,1.4-13.6,1.1v-45.2l133.6-27.7V1901.4z"/>
			<path class="st2" d="M1375.2,1881.8l39.6,18.8c8.3,3.9,17.6,5,26.6,3.1l117.6-25.2c9.8-2.1,11.2-15.4,2.1-19.6l-46.5-21.2
				c-8.6-3.9-18.2-4.8-27.4-2.5l-110.1,27.1C1367.7,1864.7,1366.4,1877.6,1375.2,1881.8z"/>
			<polygon class="st21" points="1418.5,1852.1 1496.7,1891.8 1496.7,1929.6 1535,1920.7 1535,1883.6 1457.6,1842.4 			"/>
			<polyline class="st35" points="1496.7,1891.8 1535,1883.6 1535,1920.7 1496.7,1929.6 1496.7,1891.8 			"/>
		</g>
		<path class="st17" d="M2172.1,171c-5.8-2.8-12.3-4.2-18.7-4.2c-9.6,0-19.1,3.1-26,9c-18.5,15.7-23.6,38.4-13.1,58.2l29.6,47.5
			c2.6,4.2,8.8,3.9,11-0.6l32.1-65.7c2.7-5.2,3.8-10.3,3.8-15.1C2190.7,186.9,2182,175.9,2172.1,171z M2170.4,207.2
			c-2,11.4-12.9,20.7-24.3,20.7c-11.4,0-19-9.3-17-20.7s12.9-20.7,24.3-20.7C2164.8,186.6,2172.4,195.8,2170.4,207.2z"/>
		
			<ellipse transform="matrix(0.9654 -0.2607 0.2607 0.9654 -4.7969 571.0587)" class="st17" cx="2150.2" cy="303.6" rx="30.3" ry="7.2"/>
		<path class="st15" d="M2183.4,174.3c-5.8-2.8-12.3-4.2-18.7-4.2c-9.6,0-19.1,3.1-26,9c-18.5,15.7-23.6,38.4-13.1,58.2l29.6,47.5
			c2.6,4.2,8.8,3.9,11-0.6l32.1-65.7c2.7-5.2,3.8-10.3,3.8-15.1C2202,190.2,2193.3,179.2,2183.4,174.3z M2181.8,210.5
			c-2,11.4-12.9,20.7-24.3,20.7c-11.4,0-19-9.3-17-20.7s12.9-20.7,24.3-20.7C2176.1,189.9,2183.8,199.1,2181.8,210.5z"/>
		
			<ellipse transform="matrix(0.9654 -0.2607 0.2607 0.9654 -5.2665 574.1182)" class="st15" cx="2161.5" cy="306.9" rx="30.3" ry="7.2"/>
		<g>
			<path class="st5" d="M2645.6,512.9l-0.1,67.9c0,0.7-0.5,1.4-1.2,1.6l-87.7,23.1c-2.4,0.6-4.8-1.2-4.8-3.7v-65.2
				c0-1.2,1.2-2,2.3-1.5l45.1,22.5c0.6,0.3,1.4,0.2,1.9-0.4l41.6-45.5C2643.8,510.8,2645.6,511.5,2645.6,512.9z"/>
			<path class="st5" d="M2555.5,526.9l42-44.4c0.5-0.5,1.2-0.7,1.9-0.3l44,22.2c1.3,0.7,1.2,2.6-0.3,3l-86,22.3
				C2555.6,530,2554.4,528.1,2555.5,526.9z"/>
			<path class="st15" d="M2651,518.3l-0.1,67.9c0,0.7-0.5,1.4-1.2,1.6l-87.7,23.1c-2.4,0.6-4.8-1.2-4.8-3.7V542c0-1.2,1.2-2,2.3-1.5
				l45.1,22.5c0.6,0.3,1.4,0.2,1.9-0.4l41.6-45.5C2649.2,516.1,2651,516.8,2651,518.3z"/>
			<path class="st15" d="M2558.4,532.5l42-44.4c0.5-0.5,1.2-0.7,1.9-0.3l44,22.2c1.3,0.7,1.2,2.6-0.3,3l-86,22.3
				C2558.5,535.7,2557.3,533.7,2558.4,532.5z"/>
		</g>
		<path class="st10" d="M1105,915.8l-25-20.4c7.7-9.4,12.9-20.4,14.9-32c3-16.7-1-32.5-11-44.5c-9.9-11.8-24.4-18.2-40.9-18.2
			c-16,0-32,6.2-45.2,17.3c-13.1,11.1-21.9,26-24.7,41.9c-3,16.7,1,32.5,11,44.5c9.9,11.8,24.4,18.2,40.9,18.2
			c13.1,0,26.2-4.1,37.7-11.7l27.7,22.6c2.1,1.7,4.7,2.6,7.3,2.6c3.3,0,6.6-1.4,8.9-4.2C1110.7,927.1,1109.9,919.9,1105,915.8z
			 M999.5,891.7c-6.2-7.4-8.5-17.4-6.6-28.2c4.2-23.6,26.6-42.7,50.1-42.7c10.5,0,19.5,3.9,25.5,11.1c6.2,7.4,8.5,17.4,6.6,28.2l0,0
			c-4.2,23.6-26.6,42.7-50.1,42.7C1014.6,902.8,1005.5,898.8,999.5,891.7z"/>
		<path class="st15" d="M1113.5,922.8l-25-20.4c7.7-9.4,12.9-20.4,14.9-32c3-16.7-1-32.5-11-44.5c-9.9-11.8-24.4-18.2-40.9-18.2
			c-16,0-32,6.2-45.2,17.3c-13.1,11.1-21.9,26-24.7,41.9c-3,16.7,1,32.5,11,44.5c9.9,11.8,24.4,18.2,40.9,18.2
			c13.1,0,26.2-4.1,37.7-11.7l27.7,22.6c2.1,1.7,4.7,2.6,7.3,2.6c3.3,0,6.6-1.4,8.9-4.2C1119.1,934.1,1118.4,926.9,1113.5,922.8z
			 M1008,898.7c-6.2-7.4-8.5-17.4-6.6-28.2c4.2-23.6,26.6-42.7,50.1-42.7c10.5,0,19.5,3.9,25.5,11.1c6.2,7.4,8.5,17.4,6.6,28.2l0,0
			c-4.2,23.6-26.6,42.7-50.1,42.7C1023.1,909.8,1014,905.8,1008,898.7z"/>
	</g>
</g>
</svg>
