<?xml version="1.0" encoding="utf-8"?>
<!-- Generator: Adobe Illustrator 22.1.0, SVG Export Plug-In . SVG Version: 6.00 Build 0)  -->
<svg version="1.1" id="Layer_1" xmlns="http://www.w3.org/2000/svg" xmlns:xlink="http://www.w3.org/1999/xlink" x="0px" y="0px"
	 viewBox="0 0 1400 980" style="enable-background:new 0 0 1400 980;" xml:space="preserve">
<style type="text/css">
	.st0{fill:#CFD9E6;}
	.st1{fill:#7ADED4;}
	.st2{fill:#FF5959;}
	.st3{fill:#778692;}
	.st4{fill:#C4A0D8;}
	.st5{fill:#F2F5F9;}
	.st6{fill:#EEDA23;}
	.st7{fill:#FFFEFD;}
</style>
<g>
	<g>
		<path class="st0" d="M1183.8,345c-20,7.5-41.3,16.3-58.8,28.8l0,0l0,0c-2.5,10-6.3,18.8-7.5,28.8c15-3.8,86.3-38.8,63.8-56.3"/>
		<path class="st0" d="M1127.5,360c-8.8-1.3-26.3,7.5-36.3,13.8c-1.3,3.8-1.3,12.5,0,16.3c23.8-6.3,27.5-16.3,37.5-32.5"/>
		<path class="st1" d="M1118.8,378.7c-6.3,0-23.8,13.8-31.3,18.8c2.5,20,18.8,15,28.8,2.5"/>
		<path class="st1" d="M1093.7,411.3c-2.5,8.8-15,25-20,36.3c12.5,2.5,27.5,1.3,41.3,1.3c0-11.3-11.3-33.8-17.5-42.5"/>
		<path class="st2" d="M1009.9,88.5c-27.5,37.5,5,90.1,46.3,95.1c27.5,3.8,56.3-1.3,85.1,3.8c16.3,2.5,30,5,35,23.8
			c2.5,6.3-3.8,35,0,38.8l0,0c10,2.5,11.3-8.8,12.5-17.5c-1.3,5-1.3,11.3-2.5,17.5c10-1.3,25,0,20,15c-3.8,11.3-20,5-21.3,23.8
			c23.8-20,120.6-92.6,74.3-127.7c18.8-20,8.1-57.3-10.7-77.3c-23.8-23.8-82.1-29.2-113.3-26.7c-26.3,1.3-55.3,27.8-80.4,19
			C1037.4,71,1003.7,44.7,1009.9,88.5L1009.9,88.5"/>
		<path class="st2" d="M1026.2,281.2c7.5,10,25-3.8,37.5,0c5,1.3,10,7.5,16.3,8.8c5,1.3,12.5-1.3,17.5,1.3
			c13.8,6.3,17.5,16.3,8.8,31.3c-15,26.3-40,37.5-61.3,13.8c-10-11.3-30-41.3-21.3-55"/>
		<path class="st2" d="M1024.9,281.2c-8.8-17.5-2.5-27.5,10-36.3c13.8-10,45-5,58.8,3.8c22.5,12.5,16.3,60.1,0,43.8
			c-8.8-10,1.3-25-15-35c-6.3-5-28.8-8.8-36.3-3.8c-10,7.5-2.5,23.8-12.5,28.8"/>
		<g>
			<path d="M1035.9,169.8c-0.2,23.6-7.6,46.8-11,70c-3,20.4-3.6,41.8,9.7,58.7c14.7,18.7,37.4,26.4,60.6,24.9
				c4.9-0.3,9.7-1.1,14.5-2.2c3.7-0.9,7.7-2.5,11.5-1.9c4.3,0.6,6.3,5.9,7.6,9.4c2.5,6.6,2.1,13.6,1.5,20.5
				c-0.4,4.3-1.1,8.6-1.8,12.8c-0.3,1.9,2.6,2.7,2.9,0.8c1.7-11.5,4.2-23.6,0.3-34.9c-2.2-6.2-5.6-12-12.9-11.7
				c-3.4,0.2-6.7,1.3-10,2.1c-5.9,1.5-11.9,2.1-18,2.3c-12.3,0.4-24.6-2.2-35.5-8.1c-10.8-5.9-20.7-15.9-25.5-27.3
				c-4.2-10.1-4.3-21.6-3.6-32.4c1.6-23.9,8.9-46.9,11.7-70.6c0.5-4.1,0.8-8.3,0.8-12.5C1039,167.9,1036,167.9,1035.9,169.8
				L1035.9,169.8z"/>
		</g>
		<g>
			<path d="M1189.8,206.1c-1.8,14.5-3.7,29.1-3.8,43.8c0,1,1.3,2,2.3,1.3c3.6-2.7,8.3-5.5,12.8-3.4c3.3,1.5,4.9,5.2,5.5,8.5
				c0.7,3.4,0.1,7.4-2.2,10.1c-3.2,3.8-8.8,2.5-12.8,0.8c-0.8-0.3-1.6,0.3-1.8,1c-8.5,27.3-7.5,56-10.1,84.2c-0.2,1.9,2.8,1.9,3,0
				c2.6-27.9,1.6-56.3,10-83.4c-0.6,0.3-1.2,0.7-1.8,1c5,2,10.5,2.8,14.9-0.8c3.6-3,4.5-8.4,3.9-12.8c-0.6-4.6-2.9-9-7.1-11.3
				c-5.4-2.9-11.5,0.1-15.8,3.4c0.8,0.4,1.5,0.9,2.3,1.3c0.1-14.6,1.9-29.3,3.8-43.8C1193.1,204.2,1190.1,204.2,1189.8,206.1
				L1189.8,206.1z"/>
		</g>
		<g>
			<path d="M1191.1,264.7c2.6-2.8,4.1-6,8.1-7.1c-0.6-0.2-1.1-0.5-1.7-0.7c0.8,1.3,1.7,2.5,2.5,3.8c0.1-0.6,0.2-1.2,0.2-1.8
				c-0.3,0.3-1.5,1.1-1.1,1.2c-0.3-0.1-0.6-0.5-0.9-0.8c-1.2-1-2.5-1.7-4-2.1c-1.9-0.5-2.7,2.4-0.8,2.9c1.9,0.5,2.8,1.9,4.4,2.7
				c1.8,0.8,3.3-0.6,4.6-1.8c0.5-0.4,0.6-1.3,0.2-1.8c-0.8-1.3-1.7-2.5-2.5-3.8c-0.4-0.6-1-0.9-1.7-0.7c-4.6,1.3-6.3,4.7-9.4,7.9
				C1187.7,264,1189.8,266.1,1191.1,264.7L1191.1,264.7z"/>
		</g>
		<g>
			<path d="M1066.7,219.4c-0.6,5.7-3.6,11.5-7.5,15.6c-0.5,0.6-0.6,1.6,0,2.1c1.8,1.5,3.7,2.3,6.1,2.5c1.9,0.2,1.7-2.8-0.2-3
				c-1.5-0.1-2.1-0.6-4.1-1.6c0,0.7,0,1.4,0,2.1c5-4.8,7.8-11.2,8.6-17.7C1069.8,217.4,1067,217.5,1066.7,219.4L1066.7,219.4z"/>
		</g>
		<g>
			<path d="M1116.2,219.2c0.9-0.1,1.6-0.6,1.6-1.6c0-0.8-0.7-1.6-1.6-1.6c-1.8,0.2-1.9,2.3-2,3.7c0,1,1,1.6,1.9,1.4
				c1.1-0.2,2.2-0.6,2.9-1.6c0.7-1,0.7-2.4,0.7-3.6c0-1-1-1.6-1.9-1.4c-1.3,0.2-2.7,0.9-3.3,2.2c-0.5,1.1-0.4,2.4,0.3,3.4
				c0.7,0.9,1.8,1.6,3,1.2c1.5-0.6,2.1-2.2,2.3-3.6c0.1-1-0.4-1.8-1.4-1.9c-1.5-0.1-3.9-0.2-4.6,1.5c-0.9,2,1,3.4,2.6,4.2
				c0.7,0.3,1.7,0.2,2.1-0.5c0.4-0.9,0.6-1.7,0.5-2.7c-0.1-0.7-0.6-1.2-0.9-1.7c-0.9-1.7-3.5-0.2-2.6,1.5c0.2,0.3,0.3,0.5,0.5,0.8
				c0.2,0.3,0-0.2,0.1,0.2c0-0.2-0.2,0.3-0.2,0.4c0.7-0.2,1.4-0.4,2.1-0.5c-0.4-0.2-0.8-0.4-1.2-0.7c0,0-0.4-0.4-0.2-0.2
				c-0.1-0.2-0.1-0.2,0,0c0.1,0.2,0,0.4-0.1,0.6c0,0.1-0.4,0.3-0.1,0.1c-0.2,0.1,0.4-0.1,0.4-0.1c0.5-0.1,1.1,0,1.6,0.1
				c-0.5-0.6-1-1.3-1.4-1.9c-0.1,0.5-0.2,0.9-0.3,1.4c0.1-0.2-0.1,0.2-0.2,0.3c0.2-0.3-0.3,0.2,0.1-0.1c-0.1,0.1,0.1,0,0.3-0.1
				c-0.2,0-0.1,0,0.2,0c-0.1,0-0.1,0,0.1,0.1c-0.4-0.2,0.1,0.2,0,0c-0.3-0.3,0.1,0.2,0,0c-0.1-0.1-0.2-0.4,0,0
				c0-0.1-0.1-0.3-0.1-0.4c0.1,0.4,0,0,0-0.1c0,0.5,0.2-0.3,0,0.2c0-0.1,0.3-0.4,0.1-0.2c0.2-0.3,0-0.1,0.2-0.2
				c0.3-0.2,0.6-0.3,1.1-0.3c-0.6-0.5-1.3-1-1.9-1.4c0,0.5,0,1-0.1,1.5c0,0.2-0.1,0.3-0.2,0.5c0.2-0.3,0,0-0.1,0
				c0.3-0.3-0.3,0.1,0,0c-0.4,0.1-0.7,0.2-1.1,0.3c0.6,0.5,1.3,1,1.9,1.4c0-0.4,0-0.9,0.1-1.2c0-0.1,0.2-0.5,0-0.1c0,0,0,0,0-0.1
				c-0.4,0.7-1.1,0.7-2.1,0.2c-0.1-0.2-0.3-0.4-0.4-0.7c0-0.1,0-0.2,0-0.4c0.1-0.3,0.1-0.5,0.2-0.8c0.4-0.2,0.8-0.5,1.2-0.7
				C1114.3,216.3,1114.3,219.3,1116.2,219.2L1116.2,219.2z"/>
		</g>
		<g>
			<path d="M1045.9,206.2c-1,1-1.7,2.1-1.7,3.6c0,0.6,0.5,1.4,1.1,1.4c1.4,0.2,2.7,0.3,4-0.3c0.8-0.4,1.5-1.3,1.4-2.2
				c-0.2-2.2-2.5-3-4.4-2.7c-1,0.2-2.1,0.8-2.6,1.8c-0.5,1.1-0.2,2.1,0.5,3.1c1,1.2,3.4,2.1,4.8,1.2c0.7-0.5,1.1-1.3,1.1-2.2
				c0-0.1,0-0.3,0-0.4c0,0.4,0-0.1,0.1-0.2c0.1-0.2,0.1-0.4,0.2-0.7c0.3-0.9,0-1.7-0.8-2.2c-0.7-0.5-1.9-0.5-2.7-0.6
				c-0.9-0.1-1.4,0.8-1.5,1.5c-0.2,1.4,0,3,1.3,3.8c1.1,0.7,2.4,0.2,3.4-0.5c1-0.7,1.3-2,0.8-3.1c-0.7-1.4-2.7-1.6-4-1.6
				c-1.9,0-1.9,3,0,3c0.3,0,0.6,0,0.9,0c0.4,0-0.3-0.1,0.1,0c0.1,0,0.3,0.1,0.4,0.1c0.1,0,0.4,0.2,0,0c0.1,0,0.1,0.1,0.2,0.1
				c0.1,0.1,0.3,0.2-0.1-0.1c0.3,0.2-0.2-0.3-0.1-0.1c0-0.1-0.1-0.3-0.1-0.4c0,0.1-0.1,0.3,0-0.2c0,0.1-0.1,0.4,0.1-0.1
				c-0.1,0.1-0.3,0.4,0,0c-0.1,0.1-0.2,0.2-0.3,0.3c0.4-0.3,0.1-0.1,0,0c-0.1,0.1-0.3,0.1,0.1-0.1c-0.1,0-0.1,0-0.2,0.1
				c-0.3,0.1,0.4,0,0,0c-0.2,0,0.4,0.1,0.2,0c-0.3-0.1,0.3,0.2,0.1,0.1c-0.1-0.1-0.3-0.2,0.1,0.1c-0.1-0.1-0.2-0.3,0.1,0.1
				c0-0.1-0.1-0.1-0.1-0.2c-0.1-0.2,0.1,0.4,0,0c0-0.1,0-0.2-0.1-0.3c0.1,0.5,0,0,0-0.1c0-0.3,0-0.6,0.1-0.9c-0.5,0.5-1,1-1.5,1.5
				c0.4,0,0.3,0,0.7,0.1c0.2,0,0.4,0.1,0.6,0.1c0.3,0.1-0.3-0.2-0.1-0.1c-0.1-0.1-0.4-0.5-0.5-0.7c-0.1-0.2,0.1-0.8-0.1-0.4
				c-0.1,0.3-0.2,0.6-0.3,0.8c-0.1,0.3-0.1,0.6-0.1,0.9c0,0.1,0,0.9,0,0.3c0,0.1-0.1,0.3,0.1-0.1c-0.1,0.2,0.3-0.3,0.1-0.1
				c-0.2,0.2,0.3-0.2,0.1-0.1c0.4-0.2,0.3-0.1,0.1-0.1c-0.3,0.1,0.4,0,0.1,0c-0.1,0-0.1,0-0.2,0c-0.3,0,0.4,0.1,0.1,0
				c-0.1,0-0.2,0-0.3-0.1c-0.1,0-0.2-0.1-0.2-0.1c-0.3-0.1,0.3,0.2,0.1,0c-0.2-0.1-0.3-0.2-0.4-0.2c-0.1-0.1-0.3-0.2,0,0
				c-0.1,0-0.1-0.1-0.2-0.2c-0.1-0.1-0.1-0.1-0.2-0.2c-0.2-0.2,0.2,0.3,0,0c-0.2-0.3,0.1,0.4,0-0.1c0.1,0.4,0,0.3,0,0.1
				c0,0.4,0,0.3,0,0.1c-0.1,0.4-0.1,0.2,0,0.1c-0.2,0.4-0.1,0.1,0,0.1c-0.3,0.3-0.1,0.1,0,0c0.1,0,0.5-0.3,0.2-0.1
				c0.2-0.1,0.4-0.1,0.6-0.2c-0.5,0.1,0.1,0,0.2,0c0.3,0-0.4-0.1-0.1,0c0.1,0,0.2,0,0.2,0.1c0.1,0,0.1,0,0.2,0.1
				c-0.5-0.2-0.1-0.1,0,0c0.4,0.2-0.2-0.2,0.1,0.1c0.2,0.2-0.2-0.3,0,0c0.1,0.2-0.1-0.4-0.1-0.2c0,0.1,0,0.3,0-0.2
				c0,0.1-0.1,0.3,0-0.2c0,0.2,0.2-0.4,0.1-0.1c0.2-0.4,0.2-0.2,0.1-0.1c0.3-0.3,0.2-0.2,0.1-0.1c-0.1,0.1-0.3,0.1,0.1,0
				c-0.1,0-0.2,0.1-0.3,0.1c-0.1,0-0.2,0-0.3,0.1c0.4-0.1,0,0-0.1,0c-0.3,0-0.7,0-1,0c0.1,0-0.5-0.1-0.3,0c0.4,0.5,0.7,1,1.1,1.4
				c0-0.1,0-0.2,0-0.4c0,0.1,0,0.1,0-0.1c0-0.1,0-0.2,0.1-0.3c-0.1,0.2-0.1,0.2,0,0c0-0.1,0.1-0.1,0.1-0.2c-0.1,0.1-0.1,0.1,0,0
				c0.2-0.2,0.4-0.4,0.5-0.6C1049.4,207,1047.3,204.8,1045.9,206.2L1045.9,206.2z"/>
		</g>
		<g>
			<path d="M1072.6,270.1c-2.4-7-13.7-11.1-20-7.2c-1.6,1-0.1,3.6,1.5,2.6c4.6-2.8,13.9,0.2,15.6,5.4
				C1070.3,272.8,1073.2,272,1072.6,270.1L1072.6,270.1z"/>
		</g>
		<g>
			<path d="M1190.5,357.7c12-2.4,25.2,0.3,36.9,3.1c12.1,2.9,26,6.9,35.5,15.3c1.4,1.3,3.6-0.8,2.1-2.1
				c-9.7-8.5-23.3-12.6-35.5-15.7c-12.5-3.2-26.9-6-39.8-3.4C1187.8,355.2,1188.6,358,1190.5,357.7L1190.5,357.7z"/>
		</g>
		<g>
			<path d="M1217.8,401.5c-6.8,7.2-11.4,17.2-12.9,26.9c-0.3,1.9,2.6,2.7,2.9,0.8c1.4-9.3,5.6-18.8,12.1-25.6
				C1221.2,402.2,1219.1,400.1,1217.8,401.5L1217.8,401.5z"/>
		</g>
		<g>
			<path d="M1172.7,99.2c-7,12.2-18.2,1.5-26-4c-6.5-4.7-13-5-20.8-4.1c-10.4,1.3-33.9,7.6-30.9,22.5c3,14.9,21.8,16.8,34,15.7
				c12.3-1.1,30.7-6,35.8-18.8c5.2-13.1-8-24.1-19.9-25.6c-13-1.6-28.8,4.1-31.6,18.3c-3,14.9,9.1,21.9,21.8,23.7
				c7.2,1,14.4,1,21.7,1.4c5.3,0.3,12.8,0.3,16.8,4.4c4,4,0,12.3-3.5,15.2c-4.6,4-11.9,3.2-17.4,1.8c-12.6-3.1-27-12.9-30.7-25.9
				c-2-6.9,1.2-13.1,6.4-17.5c6.6-5.7,16.5-5.9,24.6-4.4c10.8,1.9,37,13.5,26.9,28.4c-4.7,7-16.1,11.6-24.3,11.6
				c-6.7,0-11.9-4.5-15.8-9.5c-7.5-9.8-11.9-23.2-23.4-29.4c-6.2-3.3-12.9-2.6-19.5-1.1c-8,1.8-17.2,5.2-21.9,12.2
				c-3.8,5.5-0.7,12,3.6,16.1c5.8,5.6,14.2,8.5,21.7,10.9c14.9,4.7,31.3,7.8,46.6,3.5c19.9-5.5,35-21.4,55.3-26.1
				c1-0.2,1.4-1.4,0.9-2.2c-5.7-9.9-19.6-15-30-18c-9.8-2.8-24.9-5.2-32.4,3.7c-0.6,0.7-0.6,1.5,0,2.1c6.4,7.2,14.9,11.5,22.9,16.5
				c10,6.4,17.2,15.4,18.4,27.5c1,10.6-7.2,13.3-16.1,11.5c-10.2-2.1-20.2-8.1-26.9-16c-7.9-9.4-5.7-21.1,3.7-28.2
				c8-6,18.9-8.5,28.7-7c7.6,1.2,17.9,4.7,20.5,12.8c1.4,4.4-1.1,9.6-4,12.8c-3.1,3.4-8.4,3.1-12.5,2.4c-7.7-1.3-15-4.8-22.2-7.5
				c-5.6-2.1-11.9-4.5-18-3.4c-5.6,1-13.1,4.5-13,11.1c0.1,6,7,10.3,11.7,12.6c13,6.1,29.8,4.2,42.1-2.6c5.4-3,9.8-7.6,11.9-13.5
				c2.6-7.1-0.3-14.8-4-20.9c-0.6,0.7-1.1,1.5-1.7,2.2c14.6,2.7,35.4,25.3,16.6,36.8c-7.3,4.4-16-1.7-21.1-6.6
				c-5.3-5-9.9-11.8-11.6-19c-0.3,0.6-0.7,1.2-1,1.8c28.6-6.1,29.5,55.6,57.4,41.8c1.7-0.9,0.2-3.4-1.5-2.6
				c-13.7,6.8-21.4-12.8-26.7-22c-6.5-11.2-15.3-23.3-29.9-20.2c-0.8,0.2-1.2,1.1-1,1.8c3.3,14,21.9,36.7,38,26.9
				c8.7-5.3,9.7-15.7,5.4-24c-4.4-8.5-14.1-16-23.5-17.7c-1.2-0.2-2.4,1-1.7,2.2c5.5,8.9,6.5,18.7-1.5,26.4
				c-6.8,6.6-17.3,9.2-26.5,9.6c-9.3,0.4-21.5-1.9-27.1-10.2c-3.5-5.3,2.4-8.7,6.7-10.3c4.6-1.7,8.8-0.9,13.4,0.4
				c11.8,3.4,34.5,18.2,44.8,5.1c4.4-5.6,5.6-13.2,1.2-19.1c-4.4-5.9-12.3-8.7-19.2-10c-15.1-3-35.5,3.5-41.3,19
				c-6.8,18.2,15.8,32.6,30.2,37.1c5.9,1.8,13.4,2.8,18.6-1.2c6.2-4.8,4.6-14.4,2.6-20.8c-6.2-20-27.6-23.7-40.6-37.8
				c0,0.7,0,1.4,0,2.1c7-8.4,21.6-5.1,30.6-2.6c9.2,2.6,22,7.5,27,16.3c0.3-0.7,0.6-1.5,0.9-2.2c-22,5.2-38.3,22.9-60.6,27.4
				c-9,1.8-18.3,0.3-27.2-1.5c-9-1.9-18.1-4.5-26.2-8.8c-6.9-3.7-15.3-11.2-8.3-19c6.1-6.8,18.1-9.7,26.9-10.1
				c14.5-0.7,21.6,15.8,28.1,25.9c7,10.9,16.1,18.1,29.6,14.2c12.5-3.6,27.6-14.8,18.2-28.7c-8.2-12.1-26.4-17.8-40.3-16.7
				c-12.6,0.9-24.9,10.7-23,24.3c1.8,12.6,14.6,22.2,25.3,27.2c9.1,4.2,23.7,7.4,30.6-2.3c2.7-3.8,4.8-10,2.7-14.5
				c-2-4.4-7-5.9-11.4-6.8c-13.6-2.5-29,0.8-41.8-5.5c-7-3.4-9.2-11.1-7.4-18.4c1.9-7.6,9.4-12.1,16.5-13.9
				c7.4-1.9,15.7-0.8,22.1,3.3c6.2,4,9.7,12.1,6.2,18.9c-3.4,6.7-11.5,10.4-18.2,12.7c-8,2.7-16.6,3.8-25,3.1
				c-7.4-0.6-15.3-3.1-19.1-9.9c-4.8-8.3,3.9-14.7,10.5-17.9c5.9-2.8,12.7-4.3,19.2-4.8c6.3-0.5,11.1,0.3,16.3,4
				c9.5,6.6,21.9,17.2,30.1,3C1176.3,99.1,1173.7,97.6,1172.7,99.2L1172.7,99.2z"/>
		</g>
		<g>
			<path d="M1216.8,99.3c2.3-1.2,4.2-0.5,4.8,2.1c0.8,3.3-1.9,6.6-4.4,8.3c-1.6,1.1-0.1,3.7,1.5,2.6c3.9-2.8,6.9-7.2,5.6-12.2
				c-1.1-4.3-5.6-5.3-9.1-3.4C1213.5,97.6,1215,100.2,1216.8,99.3L1216.8,99.3z"/>
		</g>
		<g>
			<path d="M1218,121c0-0.7,0-1.3,0-2c0-1.9-3-1.9-3,0c0,0.7,0,1.3,0,2C1215,122.9,1218,122.9,1218,121L1218,121z"/>
		</g>
		<g>
			<path d="M1230,105.5c2.7,0.1,4.6,1.2,3.9,4.1c-0.7,2.8-3.2,4.9-5.7,6.1c-1.8,0.8-0.2,3.4,1.5,2.6c3.6-1.6,6.9-5.1,7.3-9.1
				c0.5-4.4-3.1-6.5-7-6.7C1228.1,102.4,1228.1,105.4,1230,105.5L1230,105.5z"/>
		</g>
		<g>
			<path d="M1223,129c0-0.7,0-1.3,0-2c0-1.9-3-1.9-3,0c0,0.7,0,1.3,0,2C1220,130.9,1223,130.9,1223,129L1223,129z"/>
		</g>
	</g>
	<g>
		<path d="M1080.7,368.7c-25.6,8.8-53,10.4-76.9,24.1c-1.7,1-0.2,3.6,1.5,2.6c23.6-13.6,50.8-15.1,76.1-23.8
			C1083.3,370.9,1082.5,368,1080.7,368.7L1080.7,368.7z"/>
	</g>
	<g>
		<path d="M1010.9,89.1c7.5,6.6,14.3,15,25.1,15.4c1.9,0.1,1.9-2.9,0-3c-9.7-0.4-16.1-8.6-22.9-14.6
			C1011.6,85.7,1009.5,87.8,1010.9,89.1L1010.9,89.1z"/>
	</g>
</g>
<g>
	<g>
		<g>
			<path class="st3" d="M762,164.8c-2.4,19.4-19.4,43.6-36.3,52.1c6.1-10.9,9.7-21.8,13.3-33.9c-24.2,31.5-75.1,29.1-111.4,44.8
				c-50.9,21.8-13.3,48.4-18.2,86c-49.6-35.1-42.4-171.9-4.8-208.3c29.1-30.3,140.5-33.6,179.2-2.4c49.6,40,33.9,161-7.3,197.4
				c-1.2-23,8.5-48.4,2.4-70.2c-3.6-13.3-12.1-23-14.5-36.3C763.2,184.2,764.5,173.3,762,164.8"/>
			<g>
				<path d="M703.2,326.6c26.4,0,60.7-2.9,74.8-28.9c6.9-12.7,7.5-27.8,7.5-41.9c0-16.8-4.2-35.6,1-51.9c0.6-1.9-2.3-2.6-2.9-0.8
					c-4.4,13.9-1.8,29.5-1.2,43.7c0.5,15,0.6,30.8-4.9,45c-11.2,28.8-47.8,31.8-74.2,31.7C701.3,323.6,701.3,326.6,703.2,326.6
					L703.2,326.6z"/>
			</g>
			<g>
				<path d="M592.2,215.7c1.7,24.3,0.1,51.7,12.1,73.8c14.3,26.2,48.8,33.3,75.9,36.1c1.9,0.2,1.9-2.8,0-3
					c-26.8-2.8-59.8-9.8-73.8-35.5c-5.4-10-7.4-21.6-8.6-32.8c-1.4-12.8-1.7-25.8-2.6-38.6C595.1,213.8,592.1,213.7,592.2,215.7
					L592.2,215.7z"/>
			</g>
			<g>
				<path d="M579.1,244.9c-3.1-3.2-7.5-6-11.9-4c-3.4,1.5-5.5,5.2-6.1,8.8c-0.7,3.7-0.1,7.9,2.8,10.6c3.9,3.6,9.7,2.4,14.1,0.7
					c2-0.8,3.9-1.7,5.7-2.8c1.7-1,0.2-3.6-1.5-2.6c-3.9,2.2-10,5.5-14.7,3.5c-2.9-1.3-3.8-4.5-3.6-7.4c0.2-2.9,1.5-6.1,4-7.7
					c3.3-2.1,6.9,0.7,9.2,3.1C578.3,248.4,580.4,246.3,579.1,244.9L579.1,244.9z"/>
			</g>
			<g>
				<path d="M793.4,238.5c2.9-2.4,7.2-5.1,11.1-3.1c2.8,1.4,4.1,4.7,4.5,7.6c0.4,2.3,0.1,5.8-1.9,7.4c-3.1,2.4-7.7-1.1-10.1-3
					c-1.5-1.2-3.6,0.9-2.1,2.1c3.5,2.9,8.8,6.4,13.4,3.7c3.3-2,4.1-6.6,3.7-10.1c-0.4-4-2.4-8.2-6-10.2c-5.1-2.8-10.7,0.4-14.7,3.6
					C789.8,237.6,791.9,239.7,793.4,238.5L793.4,238.5z"/>
			</g>
			<g>
				<path d="M683.1,246.8c-1.3,7.1-3.8,13.8-6.1,20.6c-0.3,1,0.5,1.8,1.4,1.9c2.5,0.2,4.8,1,7.3,1.2c1.9,0.2,1.9-2.8,0-3
					c-2.5-0.3-4.8-1.1-7.3-1.2c0.5,0.6,1,1.3,1.4,1.9c2.3-6.8,4.8-13.5,6.1-20.6C686.3,245.7,683.4,244.9,683.1,246.8L683.1,246.8z"
					/>
			</g>
			<g>
				<path d="M703.9,297.1c11.4,0.9,21.3-5,25.7-15.6c0.7-1.8-2.2-2.6-2.9-0.8c-3.8,9.4-12.8,14.3-22.8,13.4
					C702,293.9,702,296.9,703.9,297.1L703.9,297.1z"/>
			</g>
			<g>
				<path d="M632.2,237.5c0,1.8-0.1,5.9,2.3,6.3c0.6,0.1,1.4,0,1.7-0.7c1.3-2.6,2.8-4.9,3.8-7.6c0.4-1.3-1.1-2.3-2.2-1.7
					c-1.3,0.8-2.5,1.6-3.7,2.6c-1.6,1.3-1.8,3.8,0.8,3.9c-0.5-0.5-1-1-1.5-1.5c0.2,2.2,2.3,1.8,3.5,0.7c0.7-0.7,2.2-2.1,2.2-3.3
					c0-0.7-0.7-1.6-1.5-1.5c-0.6,0.1-0.9,0.2-1.3,0.6c0.5-0.1,1-0.3,1.5-0.4c-1.4-0.4-2.7-0.6-3.9,0.3c-0.8,0.6-0.6,1.8-1.2,2.5
					c-1.3,1.4,0.8,3.6,2.1,2.1c0.5-0.6,0.8-1.2,1-2c0-0.1,0.2-0.6,0.1-0.5c-0.3,0.3,0.7,0.3,1,0.4c0.5,0.2,1.1,0,1.5-0.4
					c0.3-0.3,0.1-0.2-0.8,0.2c-0.5-0.5-1-1-1.5-1.5c0-0.6,0.3-0.8-0.1-0.3c-0.2,0.2-0.3,0.4-0.5,0.6c-0.2,0.3-0.5,0.5-0.7,0.8
					c-0.1,0.1-0.2,0.2-0.3,0.3c0,0-0.1,0.1-0.1,0.1c0.6-0.6,1.3-0.2,2,1.1c-0.1-0.8-0.6-1.5-1.5-1.5c0.7,0,1.2,1.3,0.8,1.8
					c0.2-0.2,0.4-0.4,0.6-0.5c0.4-0.3,0.8-0.6,1.3-0.9c0.6-0.4,1.2-0.8,1.8-1.2c-0.7-0.6-1.5-1.1-2.2-1.7c-0.9,2.5-2.3,4.6-3.5,6.9
					c0.6-0.2,1.1-0.5,1.7-0.7c0.4,0.1,0.4,0.4,0.2-0.3c-0.1-0.4-0.2-0.8-0.2-1.2c-0.1-0.6-0.1-1.2-0.1-1.9
					C635.2,235.5,632.2,235.5,632.2,237.5L632.2,237.5z"/>
			</g>
			<g>
				<path d="M726,239.9c0-0.5-0.2-0.9-0.5-1.3c-0.4-0.4-1-0.5-1.5-0.4c-1.7,0.3-2.1,3.9-2.3,5.2c-0.2,1.9,1.7,3.3,3,1.6
					c0.7-0.9,1-2.6,1.3-3.7c0.2-0.7,0.4-1.5,0.6-2.2c0.1-0.3,0.1-0.5,0.2-0.8c0.2-0.6,0,0-0.2,0.2c-0.5,0.1-1,0.3-1.5,0.4
					c0,0,0,0,0,0c-0.3-0.2-0.6-0.5-0.9-0.7c-0.1-0.2-0.1-0.4-0.2-0.7c0.5-0.5,1-1,1.5-1.5c-1.7,0.1-3.2,1.5-4.3,2.8
					c-1.1,1.3-1.4,3.6,0.6,3.9c0-1,0-2,0-3c-2,0.1-2.1,2-0.8,2.9c0.7,0.5,1.8,0.8,2.7,1c0.9,0.3,1.9,0.6,2.9,0.6
					c1.6,0,2.2-1.8,1.2-2.9c-0.4,0.9-0.7,1.7-1.1,2.6c2.5-0.3,2.5-3.4,2.7-5.3c-0.1,0.4-0.3,0.7-0.4,1.1c0,0,0,0,0,0
					c-0.9-0.4-1.7-0.7-2.6-1.1c0,0.1,0,0.1,0,0.2c0.6-0.5,1.3-1,1.9-1.4c-1.6-0.4-6.3-1.6-6.7,1c-0.2,1.4-0.1,4.5,1.9,4.4
					c0.6,0,1.1-0.3,1.6-0.7c0.2-0.2,0.3-0.3,0.5-0.5c0.3-0.3,0.2-0.1-0.1-0.1c1.9-0.2,1.9-3.2,0-3c-0.9,0.1-1.5,0.5-2.1,1.1
					c-0.1,0.1-0.7,0.6-0.4,0.4c2.1-1.4,1.7,1.4,1.6,0.3c0-0.3,0-0.7-0.1-1c0,0.3-0.9,0.6-0.5,0.5c-0.2,0,0.4,0,0.4,0
					c0.4,0,0.8,0.1,1.2,0.1c0.6,0.1,1.2,0.2,1.8,0.4c0.9,0.2,1.9-0.5,1.9-1.4c0-0.1,0-0.1,0-0.2c0-1.3-1.6-2.1-2.6-1.1
					c-0.5,0.5-0.4,1.3-0.5,1.9c0,0.3-0.1,0.7-0.2,1c0,0.2-0.1,0.4-0.2,0.6c-0.2,0.5-0.4,0,0.7-0.1c-1.3,0.2-2,1.5-1.1,2.6
					c-0.7-0.8,1.9-2.2,0.8-2.2c-0.2,0-0.2,0,0,0c-0.1,0-0.2,0-0.3-0.1c-0.5-0.1-1-0.2-1.4-0.4c-0.5-0.1-1-0.3-1.4-0.5
					c-0.1,0-0.6-0.3-0.3-0.1c-0.5-0.2-0.3-0.4,0.1,0.3c0.1,0.4,0.1,0.8,0.2,1.2c0,0,0,0,0,0c-0.2,0.3-0.5,0.6-0.7,0.9
					c-0.2,0.1-0.4,0.1-0.6,0.2c2-0.1,1.9-2.8,0-3c1.1,0.5,1.5,1,1.2,1.7c0-0.1,0.1-0.2,0.2-0.3c0.3-0.4,0.6-0.7,1-1
					c0.3-0.2,0.5-0.5,0.8-0.7c0.2-0.1,0.9-0.4,0.5-0.4c0.8-0.1,1.5-0.6,1.5-1.5c0-1-0.9-1.8-1.9-1.5c-0.7,0.2-1,0.7-1.2,1.4
					c-0.4,1.1-0.6,2.2-0.9,3.3c-0.2,0.6-0.4,1.3-0.6,1.9c-0.1,0.2-0.1,0.4-0.2,0.7c-0.1,0.4,0.1-0.3,0,0c0,0.1-0.1,0.1-0.1,0.2
					c1.9,1.1,2.7,1.2,2.5,0.3c0.1,0.5,0,0.1,0,0c0-0.3,0.1-0.6,0.1-1c0.1-0.5,0.3-1,0.4-1.5c0,0.1,0.2-0.6,0.1-0.4
					c0.3-0.6,0.2,0.2-0.6,0.3c-0.5-0.1-1-0.3-1.5-0.4c-0.1-0.3-0.3-0.5-0.4-0.8C723.1,241.8,726.1,241.8,726,239.9L726,239.9z"/>
			</g>
			<g>
				<path d="M679.4,325.9c-1.1,15.1-10.7,41.8-30,39.7c-1.9-0.2-1.9,2.8,0,3c21.1,2.3,31.7-26,33-42.7
					C682.6,323.9,679.6,323.9,679.4,325.9L679.4,325.9z"/>
			</g>
			<g>
				<path d="M709.7,326.3c1.6,9.3,3.1,19.2,9.2,26.8c7,8.8,19.5,9.7,29.8,9.4c1.9-0.1,1.9-3.1,0-3c-9.9,0.3-20.8-0.5-27.7-8.5
					c-5.8-6.7-7-17.1-8.4-25.5C712.3,323.6,709.4,324.4,709.7,326.3L709.7,326.3z"/>
			</g>
			<path class="st3" d="M764.5,109.9c15.7-41.2,111.4-30.3,102.9,20.6c-33.9-12.1-65.4-1.2-96.9-23"/>
			<g>
				<path d="M763.6,90.7c-0.7-0.3-2.4-0.4-3-0.8c-0.1,0.8-0.2,1.6-0.3,2.4c16.7-10.4,40.6,14.9,27.2,30.3c-1.3,1.5,0.9,3.6,2.1,2.1
					c15.5-17.9-11.2-47.3-30.9-35c-0.7,0.5-1.1,1.7-0.3,2.4c1.4,1.1,2.7,1,4.3,1.6C764.6,94.3,765.4,91.4,763.6,90.7L763.6,90.7z"/>
			</g>
			<g>
				<path class="st4" d="M735.9,131.5c1,0.4,2.3,0.6,3.9,0.8c0.7-4.4,2.3-9.4,2.7-13.7c-2.5-0.6-5.3-1.2-8.1-1.3
					c-0.3-1-0.6-1.9-0.9-2.8c1.2-0.3,2.5-1.1,4.3-2.4c-2.5-3.6-4.8-8.4-7.6-11.8c-1.5,0.8-3,1.8-4.5,2.8c-1.2-0.8-2.5-1.3-3.8-1.7
					c0.5-1,0.8-2.5,1-4.4c-4.4-0.7-9.4-2.3-13.7-2.7c-0.5,1.8-0.9,3.8-1.2,5.9c-1.7,0.2-3.3,0.7-4.9,1.3c-0.4-0.9-1.1-2-2-3.3
					c-3.6,2.5-8.4,4.8-11.8,7.6c0.9,1.5,1.8,3.1,2.9,4.7c-1.3,1.8-2.4,3.9-3.2,6c-2.3,0.2-4.6,0.7-6.6,1.2c0.3,4.4,2,9.4,2.7,13.7
					c0.8-0.1,1.6-0.2,2.2-0.4c0.3,2,0.9,4,1.8,5.8c-1.1,1.4-2.1,2.9-3,4.3c3.3,2.9,7.9,5.4,11.4,8.1c0.8-1,1.4-1.9,1.9-2.7
					c2.3,0.9,4.9,1.5,7.6,1.8c0.2,2.1,0.7,4.1,1.2,6c4.4-0.3,9.4-2,13.7-2.7c-0.3-2-0.6-3.4-1.1-4.5c1.3-0.4,2.6-0.8,3.8-1.3
					c1.7,1.5,3.7,2.8,5.5,3.9c2.9-3.3,5.4-7.9,8.1-11.4c-1.3-1-2.3-1.8-3.3-2.2c0.1-0.3,0.2-0.6,0.3-0.9
					C735.6,134,735.8,132.8,735.9,131.5z M702.2,133.2c-7.1-7.8,0.2-22.7,10.9-20.7l-0.5-0.2c3.8,0.3,6.8,1,8.8,5
					c1.7,3.3,2.8,8.6,1.8,12.4C721.1,137.2,706.9,138.3,702.2,133.2z"/>
				<g>
					<path class="st1" d="M677.3,142.5c0.6,0.2,1.5,0.4,2.5,0.5c0.4-2.8,1.5-6.1,1.7-8.9c-1.6-0.4-3.5-0.8-5.3-0.9
						c-0.2-0.6-0.4-1.2-0.6-1.8c0.8-0.2,1.6-0.7,2.8-1.6c-1.6-2.3-3.1-5.5-4.9-7.6c-0.9,0.5-2,1.1-2.9,1.8c-0.8-0.5-1.6-0.9-2.5-1.1
						c0.3-0.7,0.5-1.6,0.7-2.8c-2.8-0.4-6.1-1.5-8.9-1.7c-0.3,1.2-0.6,2.5-0.8,3.8c-1.1,0.2-2.2,0.5-3.2,0.9
						c-0.3-0.6-0.7-1.3-1.3-2.1c-2.3,1.6-5.5,3.1-7.6,4.9c0.6,1,1.2,2,1.9,3c-0.8,1.2-1.5,2.5-2.1,3.9c-1.5,0.1-3,0.5-4.3,0.8
						c0.2,2.8,1.3,6.1,1.7,8.9c0.5-0.1,1-0.2,1.5-0.2c0.2,1.3,0.6,2.6,1.2,3.8c-0.7,0.9-1.4,1.9-1.9,2.8c2.1,1.9,5.2,3.5,7.4,5.2
						c0.5-0.7,0.9-1.2,1.2-1.7c1.5,0.6,3.2,1,4.9,1.1c0.2,1.4,0.5,2.7,0.8,3.9c2.8-0.2,6.1-1.3,8.9-1.7c-0.2-1.3-0.4-2.2-0.7-2.9
						c0.9-0.2,1.7-0.5,2.5-0.9c1.1,1,2.4,1.8,3.6,2.5c1.9-2.1,3.5-5.2,5.2-7.4c-0.8-0.7-1.5-1.1-2.1-1.4c0.1-0.2,0.2-0.4,0.2-0.6
						C677.1,144.1,677.2,143.3,677.3,142.5z M655.4,143.6c-4.6-5.1,0.1-14.7,7.1-13.4l-0.3-0.1c2.5,0.2,4.4,0.6,5.7,3.2
						c1.1,2.1,1.8,5.6,1.2,8.1C667.7,146.1,658.5,146.9,655.4,143.6z"/>
				</g>
				<g>
					<path class="st5" d="M695.5,173.3c0.6,0.2,1.3,0.3,1.9,0.4c0.8,0.1,1.7-0.2,1.8-1c0.4-2.3,1-4.5,1.3-6.8c0.1-0.8-0.2-1.6-1-1.8
						c-1.5-0.3-2.9-0.6-4.4-0.7c0.5,0.4,1,0.7,1.4,1.1c-0.1-0.5-0.3-0.9-0.4-1.4c-0.2,0.6-0.5,1.1-0.7,1.7c0.8-0.3,1.5-0.7,2.1-1.2
						c0.7-0.4,1-1.3,0.5-2.1c-1.3-1.9-2.4-3.9-3.7-5.8c-0.5-0.7-1.3-1-2.1-0.5c-1.5,0.9-1.4,1-2.9,0.4c0.3,0.6,0.7,1.2,1,1.8
						c0.3-0.7,0.4-1.4,0.5-2.2c0.1-0.8-0.2-1.7-1-1.8c-2.3-0.4-4.5-1-6.8-1.3c-0.8-0.1-1.6,0.2-1.8,1c-0.4,1.7-0.3,1.9-1.9,2.5
						c0.6,0.2,1.1,0.5,1.7,0.7c-0.3-0.6-0.6-1.1-1-1.6c-0.4-0.6-1.3-1-2.1-0.5c-1.9,1.3-3.9,2.4-5.8,3.7c-0.7,0.5-1,1.3-0.5,2.1
						c1.4,2.4-0.1,3.1-2.5,3.6c-0.9,0.2-1.2,1.1-1,1.8c0.3,2.3,0.9,4.5,1.3,6.8c0.2,0.9,1.1,1.2,1.8,1c0.4-0.1,0.7-0.1,1.1-0.2
						c-0.6-0.3-1.2-0.7-1.8-1c0.4,1.7,0.5,2.4-0.4,3.8c-0.3,0.5-0.3,1.4,0.2,1.8c1.9,1.5,4,2.8,5.9,4.2c0.7,0.5,1.6,0.1,2.1-0.5
						c0.3-0.4,0.6-0.9,0.9-1.3c-0.6,0.2-1.1,0.5-1.7,0.7c2.1,0.7,2.7,0.4,3.3,2.8c0.2,0.9,1.1,1.2,1.8,1c2.3-0.3,4.5-0.9,6.8-1.3
						c0.9-0.2,1.2-1.1,1-1.8c-0.1-0.8-0.2-1.5-0.5-2.2c-0.3,0.6-0.7,1.2-1,1.8c1.5-0.5,2.1,0.3,3.4,1.1c0.5,0.3,1.4,0.3,1.8-0.2
						c1.5-1.9,2.8-4,4.2-5.9c0.5-0.7,0.1-1.6-0.5-2.1c-0.5-0.4-1-0.8-1.6-1.1c0.2,0.6,0.5,1.1,0.7,1.7c0.3-0.7,0.4-1.5,0.5-2.3
						c0.3-1.9-2.6-2.7-2.9-0.8c0,0.8-0.2,1.6-0.5,2.3c-0.2,0.6,0.1,1.4,0.7,1.7c0.6,0.3,1.1,0.7,1.6,1.1c-0.2-0.7-0.4-1.4-0.5-2.1
						c-1.3,1.8-2.4,3.6-3.7,5.3c0.6-0.1,1.2-0.2,1.8-0.2c-3-2-2.6-2.4-5.7-1.4c-0.8,0.2-1.3,1-1,1.8c0.3,0.7,0.5,1.4,0.5,2.2
						c0.3-0.6,0.7-1.2,1-1.8c-2.3,0.4-4.5,1-6.8,1.3c0.6,0.3,1.2,0.7,1.8,1c-0.3-1-0.4-2-0.6-2.9c-0.1-0.5-0.6-1-1-1
						c-1.3-0.2-2.5-0.5-3.7-0.9c-0.7-0.2-1.3,0.2-1.7,0.7c-0.3,0.4-0.6,0.9-0.9,1.3c0.7-0.2,1.4-0.4,2.1-0.5
						c-1.8-1.3-3.6-2.4-5.3-3.7c0.1,0.6,0.2,1.2,0.2,1.8c1.9-3,1.5-2.7,0.7-6.2c-0.2-0.9-1.1-1.2-1.8-1c-0.4,0.1-0.7,0.1-1.1,0.2
						c0.6,0.3,1.2,0.7,1.8,1c-0.4-2.3-1-4.5-1.3-6.8c-0.3,0.6-0.7,1.2-1,1.8c4.1-0.9,3.6-0.7,5.7-4.2c0.3-0.4,0.3-1.1,0-1.5
						c-0.5-0.7-1-1.5-1.5-2.3c-0.2,0.7-0.4,1.4-0.5,2.1c1.9-1.4,3.9-2.5,5.8-3.7c-0.7-0.2-1.4-0.4-2.1-0.5c0.4,0.5,0.7,1,1,1.6
						c0.3,0.6,1.1,0.9,1.7,0.7c0.8-0.3,1.6-0.5,2.4-0.7c0.5-0.1,1-0.6,1-1c0.1-1,0.3-1.9,0.6-2.9c-0.6,0.3-1.2,0.7-1.8,1
						c2.3,0.3,4.5,0.9,6.8,1.3c-0.3-0.6-0.7-1.2-1-1.8c-0.1,0.7-0.2,1.5-0.5,2.2c-0.3,0.8,0.3,1.6,1,1.8c0.5,0.2,1,0.5,1.5,0.7
						c0.5,0.2,1.1,0.3,1.5,0c0.7-0.5,1.5-1,2.2-1.4c-0.7-0.2-1.4-0.4-2.1-0.5c1.4,1.9,2.5,3.9,3.7,5.8c0.2-0.7,0.4-1.4,0.5-2.1
						c-0.6,0.5-1.3,0.9-2.1,1.2c-0.6,0.3-0.9,1.1-0.7,1.7c0.1,0.5,0.3,0.9,0.4,1.4c0.2,0.7,0.8,1,1.4,1.1c1.2,0.1,2.4,0.3,3.6,0.6
						c-0.3-0.6-0.7-1.2-1-1.8c-0.3,2.3-0.9,4.5-1.3,6.8c0.6-0.3,1.2-0.7,1.8-1c-0.7-0.1-1.3-0.2-1.9-0.4
						C694.4,169.9,693.6,172.8,695.5,173.3z"/>
					<path class="st5" d="M680.4,171.6c-2.4-2.8,0.1-8.2,3.9-7.7c1.9,0.3,2.7-2.3,0.8-2.9c-0.1,0-0.2-0.1-0.2-0.1
						c-0.1,1-0.3,2-0.4,2.9c2,0.2,2.9,1.1,3.5,3c0.5,1.6,0.8,3.8-0.7,4.9C685.5,173,682,173.2,680.4,171.6c-1.4-1.4-3.5,0.8-2.1,2.1
						c3,3,9.3,2.6,12-0.7c1.8-2.2,1.2-5.6,0.2-8.1c-1.1-2.8-3.2-3.8-6-4.1c-1.8-0.2-1.9,2.4-0.4,2.9c0.1,0,0.2,0.1,0.2,0.1
						c0.3-1,0.5-1.9,0.8-2.9c-6.9-1-11.2,7.5-6.8,12.7C679.5,175.2,681.6,173.1,680.4,171.6z"/>
				</g>
			</g>
		</g>
		<path class="st2" d="M608.3,399.8c17.9-11.9,13.1-37,37-35.8c2.4,27.4,29.8,27.4,51.3,29.8c16.7,1.2,25,1.2,37-10.7
			c11.9-9.5,13.1-27.4,31-23.8c0,0,1.2,34.6,14.3,41.7c13.1,7.2-35.8,37-90.6,26.2C633.4,416.5,608.3,399.8,608.3,399.8z"/>
		<g>
			<path d="M646,411.6c-2.1-1.3-4-4.4-6.9-2.7c-2.2,1.3-5,3.9-4.8,6.8c0.3,4.5,7.6,4,10.6,3.6c2.7-0.4,9.8-1.7,8.9-5.9
				c-0.4-2.1-2.8-3.1-4.6-3.9c-2.4-1-4.9-0.6-5.5-3.5c-1-4.7-1.3-9.5-0.6-14.3c-0.7,0.3-1.5,0.6-2.2,0.9c6.2,3,6.4,10.6,6.4,16.6
				c0,1,1.3,2,2.3,1.3c4.8-3.6,8.7-3.4,14.3-2.2c-0.1-0.9-0.2-1.8-0.4-2.7c-3.6,2.6-5.8,5.9-10.4,7c-1.9,0.5-1.1,3.2,0.8,2.9
				c4.2-0.7,10.6,0.2,9.7,5.9c-1.1,6.5-8,1.2-10.2-1.3c-1-1.1-3,0.1-2.5,1.5c0.8,2.1,2.3,5.8,0.6,7.9c-1.9,2.4-4.7-6.9-4.9-7.5
				c-0.2-1.1-1.8-1.5-2.5-0.7c-2.2,2.4-4.9,4.2-8.2,4.6c-5.6,0.6-2.2-5.1-0.4-7.2c0.7-0.9,0.4-2.7-1.1-2.6c-3.3,0.3-12.1,0-7.2-5
				c4.5-4.5,12.2-3,17.2-0.5c1.7,0.9,3.2-1.7,1.5-2.6c-6.5-3.2-17.1-4.7-21.9,2.3c-5.1,7.4,5.2,9.4,10.4,8.9
				c-0.4-0.9-0.7-1.7-1.1-2.6c-2.7,3.2-6.2,8.7-1.2,11.6c4.7,2.7,11-1.5,14.1-4.8c-0.8-0.2-1.7-0.4-2.5-0.7
				c0.7,3.3,2.9,10.9,7.8,9.9c5.2-1.1,3.4-8.5,2.2-11.9c-0.8,0.5-1.7,1-2.5,1.5c4.1,4.6,12.3,8.6,15.1,0.5
				c2.8-8.4-7.1-11.1-13.3-10.1c0.3,1,0.5,1.9,0.8,2.9c4.9-1.2,7.2-4.4,11.1-7.3c0.9-0.7,1-2.5-0.4-2.7c-6.5-1.3-11.1-1.6-16.7,2.5
				c0.8,0.4,1.5,0.9,2.3,1.3c-0.1-7.1-0.6-15.7-7.9-19.2c-0.8-0.4-2-0.1-2.2,0.9c-1,6.3-0.3,12.5,1.2,18.7c0.1,0.5,0.6,0.9,1,1
				c0.6,0.1,9,2.5,8.3,3.3c-1.3,1.6-4.3,1.9-6.1,2.3c-2.1,0.4-5,0.6-6.9-0.4c-0.8-0.4-0.2-1.2,0.1-1.8c2.3-3.7,4.3-1.4,6.6,0.1
				C646.2,415.3,647.7,412.7,646,411.6L646,411.6z"/>
		</g>
		<g>
			<path d="M572.4,396.1c12.8-3.7,23.9-11.7,37-14.3c1.9-0.4,1.1-3.3-0.8-2.9c-13.1,2.6-24.2,10.6-37,14.3
				C569.8,393.8,570.6,396.7,572.4,396.1L572.4,396.1z"/>
		</g>
		<g>
			<path d="M788.9,372.3c10.9-2.1,21.3,9.1,31.4,11.9c1.9,0.5,2.7-2.4,0.8-2.9c-10.9-3.1-20.9-14.2-33-11.9
				C786.2,369.8,787,372.7,788.9,372.3L788.9,372.3z"/>
		</g>
	</g>
	<g>
		<path d="M812,107.5c16.7,0.2,30.2,6.4,44.2,14.8c1.7,1,3.2-1.6,1.5-2.6c-14.5-8.7-28.5-15-45.8-15.2
			C810.1,104.5,810.1,107.5,812,107.5L812,107.5z"/>
	</g>
	<g>
		<path d="M829.6,101.4c7.8,2.1,15.1,5.5,21.3,10.6c1.5,1.2,3.6-0.9,2.1-2.1c-6.7-5.4-14.4-9.2-22.7-11.4
			C828.5,98.1,827.7,101,829.6,101.4L829.6,101.4z"/>
	</g>
</g>
<g>
	<g>
		<g>
			<path class="st1" d="M417.1,118.2c3.9,10.8,11.8,28.5,10.8,43.3c-1,13.8-11.8,46.2-28.5,45.2c-3.9-22.6,10.8-45.2,3-67.9
				c-19.7,15.7-15.7,33.4-18.7,55.1c-3,22.6-18.7,28.5-38.4,33.4c-36.4,8.9-87.5-9.8-97.4,38.4c-6.9-5.9-13.8-12.8-20.7-18.7
				c0,3-1,4.9-1,6.9c-12.8-2-20.7,3-17.7,15.7c2,11.8,11.8,13.8,18.7,18.7c7.9,4.9,18.7,12.8,22.6,21.6c2.9,7.9,2.9,22.6-8.9,22.6
				c-3.9,0-23.6-17.7-29.5-20.7c-11.8-6.9-24.6-12.8-34.4-22.6c-20.7-18.7-29.5-44.3-32.5-71.8c-3.9-50.2,20.7-97.4,69.8-113.1
				c43.3-13.8,88.8-27.2,133.1-37c30.5-6.9,44.9-0.3,62.9,39.3"/>
			<g>
				<path d="M404.2,169.3c-4.8,5.3-4.7,14.6-4.8,21.3c-0.3,9.8,0.5,19.5,1.3,29.3c2.1,26,15.8,55.1-1.2,78.9
					c-13.1,18.4-40,17.7-59.8,14.9c-13.8-2-29.9-5-34.7,11.8c-2,7-1.6,14.6-1.7,21.8c0,4.4-1.2,13.6,2.6,17c1.4,1.3,3.6-0.8,2.1-2.1
					c-2.5-2.2-1.7-9.3-1.7-12.4c0-5,0-10.1,0.3-15.2c0.5-8.8,3.2-18.1,13.1-19.4c8.4-1.1,17.3,1.3,25.6,2.3
					c10.1,1.3,20.6,1.1,30.6-1c21-4.5,33.4-21.2,35.1-42.2c1.1-13.9-3.4-27.9-5.8-41.4c-1.9-10.5-2.3-21.4-2.7-32
					c-0.2-5.4-0.2-10.8,0.2-16.1c0.3-4.2,0.7-9.9,3.7-13.2C407.6,169.9,405.5,167.8,404.2,169.3L404.2,169.3z"/>
			</g>
			<g>
				<path d="M219.9,232.3c0.4,6.9,2.5,14.6,5,21.1c0.7-0.6,1.5-1.1,2.2-1.7c-12.2-6-19.6,5.6-19.3,16.8c0.1,5.3,2,10.7,6.4,14
					c5.4,4.1,12.8,1.3,17.9-1.7c1.7-1,0.2-3.6-1.5-2.6c-4.5,2.6-10.1,4.9-14.9,1.7c-3.5-2.4-4.7-7.5-4.9-11.4
					c-0.4-8.7,4.9-19.1,14.8-14.2c1.1,0.5,2.7-0.4,2.2-1.7c-2.3-6.2-4.5-13.6-4.9-20.3C222.8,230.3,219.8,230.3,219.9,232.3
					L219.9,232.3z"/>
			</g>
			<g>
				<path d="M226.8,284.4c-0.8,6,3.2,9.7,7.9,12.7c3.1,2,6.3,3.6,9.1,6.1c2.4,2.1,2.9,5.1,3.2,8.1c1.5,12.3,0.8,26.3-1.5,38.5
					c-0.4,1.9,2.5,2.7,2.9,0.8c2.3-12,2.7-25.3,1.7-37.4c-0.4-5.4-1.4-9.8-5.8-13.4c-5.3-4.3-15.7-7-14.6-15.5
					C230,282.5,227,282.5,226.8,284.4L226.8,284.4z"/>
			</g>
			<g>
				<path d="M384.1,235.2c0.3,6.9,2.8,13.6,3,20.7c0.4-0.5,0.7-1,1.1-1.4c-4.3,0.9-8.7,0.9-13,0c-1.9-0.4-2.7,2.5-0.8,2.9
					c4.8,1,9.8,1,14.6,0c0.6-0.1,1.1-0.8,1.1-1.4c-0.1-7-2.6-13.7-3-20.7C387,233.3,384,233.3,384.1,235.2L384.1,235.2z"/>
			</g>
			<path d="M327.6,268.7c-5.9-4.9-13.8,1-16.7,8.9c-7.9,18.7,13.8,26.6,27.5,28.5c12.8,2,52.1-2,44.3-24.6
				c-4.9-14.8-37.4-6.9-49.2-10.8L327.6,268.7z"/>
			<g>
				<path d="M219,267.2c1.8,0.3,3.9,0.8,5.1,2.4c1.2,1.6,1,3.8,0.7,5.6c0.8-0.2,1.7-0.4,2.5-0.7c-1.4-1.1-1.4-1.4-0.6-2.7
					c0.6-1,0.9-2,1-3.1c0.1-1.9-2.9-1.9-3,0c-0.1,1.4-1.4,2.4-1.7,3.8c-0.4,1.7,0.9,3.1,2.1,4.1c0.8,0.6,2.3,0.6,2.5-0.7
					c0.4-2.7,0.5-5.5-1-7.9c-1.5-2.3-4.3-3.3-6.9-3.8C217.9,263.9,217.1,266.8,219,267.2L219,267.2z"/>
			</g>
			<g>
				<path class="st6" d="M284.6,125.5c-34.5-6-37.6,54.6-0.8,51c12.6-1.4,22.6-8.4,24.1-21.3c0.9-9.9-0.6-23.5-9.6-29.3
					c-2.1-1.7-5.6-2.3-8.2-3.5"/>
				<g>
					<path d="M274.6,153.5c-0.1-0.1-0.2-0.3-0.3-0.4c-0.7-0.9-2.3-0.4-2.5,0.7c-0.2,0.8-0.1,1.5,0,2.3c0.2,1.8,2.3,2,2.9,0.4
						c0.4-1,0.5-2,0.6-3c0.3-1.6-1.8-2.7-2.7-1.2c-0.7,1.2-0.9,2.1-1.3,3.4c-0.5,1.9,2.4,2.7,2.9,0.9c0.1-0.4,1.5-0.6,1.8-1.6
						c-1,0-1.9,0-2.9,0c1.8,6,4.8,13.3,5.1,20.2c0.2,4.6-0.2,9.3-0.1,13.9c0.1,5,1.8,16.3,9.8,12.8c5.9-2.6,4.7-12.9,4.3-17.9
						c-0.3-4.7-0.7-9,0.3-13.7c1.5-6.9,4.6-13.1,5.1-20.2c0.1-0.8-0.7-1.6-1.5-1.5c-0.2,0-0.3,0-0.5,0.1c-1.2,0.1-1.8,1.2-1.3,2.3
						c-0.1,0.4-0.3,0.9-0.4,1.3c-0.3,1.1,0.7,2.2,1.8,1.8c1-0.3,2-0.7,2.7-1.5c0.5-0.6,0.5-1.2,0.2-1.8c-0.1-0.2-0.2-0.3-0.2-0.5
						c-0.2-0.5-0.8-0.7-1.3-0.7c-1,0-1.8-0.2-2.7,0.4c-1.6,1.1-0.1,3.7,1.5,2.6c0.6,0,0.6,0,0.1-0.2c0.1-0.6,0.2-1.2,0.2-1.8
						c-0.4,0.4-0.8,0.6-1.3,0.8c0.6,0.6,1.2,1.2,1.8,1.8c0.3-1.3,0.6-2.4,0.1-3.6c-0.4,0.8-0.9,1.5-1.3,2.3c0.2,0,0.3,0,0.5-0.1
						c-0.5-0.5-1-1-1.5-1.5c-0.7,10.2-6.5,19.1-5.7,29.5c0.4,5.7,1.9,13.1-0.9,18.4c-0.8,1.6-2.4,1.4-3.8,1c-2-0.6-2.4-3.3-2.7-5.1
						c-0.8-4.1-0.5-8.5-0.4-12.6c0.2-9.7-2.5-18-5.1-27.3c-0.4-1.4-2.5-1.4-2.9,0c-0.1,0.4-1.5,0.8-1.8,1.7c1,0.3,1.9,0.5,2.9,0.8
						c0.2-0.9,0.5-1.8,1-2.7c-0.9-0.4-1.8-0.8-2.7-1.2c-0.2,1-0.2,2-0.6,3c1,0.1,2,0.3,2.9,0.4c-0.1-0.5-0.1-1-0.1-1.5
						c-0.8,0.2-1.7,0.4-2.5,0.7c0.1,0.1,0.2,0.3,0.3,0.4C273.7,157.2,275.8,155,274.6,153.5L274.6,153.5z"/>
				</g>
				<g>
					<path d="M280.8,186.7c3.2-0.4,7.1-0.7,9.8-2.7c1.6-1.1,0.1-3.7-1.5-2.6c-2.3,1.6-5.6,2-8.3,2.3
						C278.9,183.9,278.9,186.9,280.8,186.7L280.8,186.7z"/>
				</g>
				<g>
					<path d="M282.6,194.3c4.3,0.1,8.9,0.4,12-3.1c1.3-1.4-0.8-3.6-2.1-2.1c-2.5,2.8-6.5,2.3-9.9,2.2
						C280.7,191.3,280.7,194.3,282.6,194.3L282.6,194.3z"/>
				</g>
				<g>
					<path d="M249.2,179.8c1.9-0.3,3.7-0.9,5.5-1.7c0.7-0.3,0.9-1.4,0.5-2.1c-0.4-0.8-1.3-0.9-2.1-0.5c-1.2,0.6-2.6,1.1-4,1.3
						c-0.8,0.1-1.5,0.6-1.5,1.5C247.7,179.1,248.4,179.9,249.2,179.8L249.2,179.8z"/>
				</g>
				<g>
					<path d="M240.9,150.7c1.6-1.2,4-1.2,6-1c1.9,0.1,1.9-2.9,0-3c-2.4-0.2-5.5-0.1-7.5,1.4C237.9,149.3,239.4,151.9,240.9,150.7
						L240.9,150.7z"/>
				</g>
				<g>
					<path d="M253.2,112c0.2,1,0.9,2,1.5,2.9c0.7,1.2,1.5,2.3,2.3,3.4c1,1.6,3.6,0.1,2.6-1.5c-0.7-1.1-1.4-2.1-2.1-3.2
						c-0.5-0.7-1.2-1.6-1.3-2.4C255.8,109.3,252.9,110.1,253.2,112L253.2,112z"/>
				</g>
				<g>
					<path d="M282.2,102.6c-0.4,1.8-0.2,3.5,0,5.3c0.1,0.8,0.6,1.5,1.5,1.5c0.8,0,1.6-0.7,1.5-1.5c-0.2-1.5-0.4-3-0.1-4.5
						C285.4,101.5,282.5,100.7,282.2,102.6L282.2,102.6z"/>
				</g>
				<g>
					<path d="M313,105.3c-1.1,2.4-2.2,4.9-3.9,7c-1.2,1.5,0.9,3.6,2.1,2.1c1.8-2.3,3.1-4.9,4.3-7.6C316.4,105,313.8,103.5,313,105.3
						L313,105.3z"/>
				</g>
				<g>
					<path d="M320,136.7c1.8,0.3,3.5,0.2,5.3,0c0.8-0.1,1.5-0.6,1.5-1.5c0-0.8-0.7-1.6-1.5-1.5c-1.5,0.2-3,0.4-4.5,0.1
						C319,133.4,318.1,136.3,320,136.7L320,136.7z"/>
				</g>
				<g>
					<path d="M320.9,159.2c2.2,0.3,4.4,0.6,6.6,1.1c1.9,0.5,2.7-2.4,0.8-2.9c-2.4-0.6-4.9-0.9-7.4-1.3
						C319,156,319.1,159,320.9,159.2L320.9,159.2z"/>
				</g>
				<g>
					<path d="M313.7,174.2c1.5,1.7,3.3,3,5.4,3.8c0.8,0.3,1.6-0.3,1.8-1c0.2-0.8-0.3-1.6-1-1.8c-1.6-0.6-3-1.7-4.1-3
						C314.6,170.6,312.5,172.7,313.7,174.2L313.7,174.2z"/>
				</g>
			</g>
			<g>
				<path d="M325,240.4c-0.4-0.8-1.2-1.3-2.1-1.1c-0.8,0.2-1.2,1.1-1.4,1.8c-0.2,1.3-0.2,2.7-0.2,4c0,0.9,1,1.8,1.9,1.4
					c1-0.3,2-0.7,3-1c-0.6-0.5-1.3-1-1.9-1.4c0,0.3,0,0.6,0.2,0.9c0.3,0.4,0.8,0.8,1.3,0.7c1.3-0.1,1.5-1.2,1.8-2.2
					c0.1-0.4,0.2-0.8,0.3-1.2c0-0.2,0.1-0.3,0.1-0.5c0.2-0.5,0,0.1-0.2,0.3c-0.4,0.1-0.7,0.3-1.1,0.4c0,0,0,0,0,0
					c-0.4-0.2-0.9-0.6-1.3-0.8c-0.1-0.7-0.2-0.7-0.2-0.7c1,0,2,0,3,0c-0.2-2-2.9-1.7-4.4-1c-0.7,0.3-1.5,0.9-1.8,1.6
					c-0.5,1.1-0.1,2.2,1,2.8c0.6,0.3,1.3,0.3,1.8-0.2c0.6-0.6,1.4-1.4,1.1-2.3c-0.3-1-1.2-1.2-2.2-1.2c-1.9,0-1.9,3,0,3
					c0.1,0,0.2,0,0.4,0c0.3,0,0.2,0-0.4-0.1c-0.2-0.3-0.4-0.6-0.7-0.9c0,0,0,0,0,0c0-0.3,0-0.5,0-0.8c0-0.5,0.3-0.6,0.1-0.3
					c-0.2,0.2-0.3,0.3-0.5,0.5c0.6-0.1,1.2-0.2,1.8-0.2c-0.2-0.1-0.1-0.1,0,0.1c0.1,0.1,0.2,0.2,0.2,0.4c0.1,0.3,0,0.6-0.1,0.8
					c0.1-0.1,0-0.1-0.1,0.1c0.1-0.1,0.4-0.3,0.1-0.1c0.2-0.1,0.3-0.2,0.5-0.3c0.1,0,0.2-0.1,0.2-0.1c-0.2,0.1-0.2,0.1,0,0
					c0.2-0.1,0.4-0.1,0.6-0.2c0.4-0.1-0.1,0,0.1,0c0.1,0,0.1,0,0.2,0c-0.6,0-1-0.6-1.1-1.2c0.1,0.8,0.6,1.5,1.5,1.5
					c0.8,0,1.5-0.7,1.5-1.5c0-0.3,0-0.6-0.2-0.9c-0.3-0.4-0.8-0.8-1.3-0.7c-1.3,0.1-1.5,1.2-1.8,2.2c-0.1,0.4-0.2,0.8-0.3,1.2
					c0,0.2-0.1,0.3-0.1,0.5c-0.2,0.5,0-0.1,0.2-0.3c0.4-0.1,0.7-0.3,1.1-0.4c0,0,0,0,0,0c0.4,0.2,0.9,0.5,1.3,0.7
					c0.1,0.7,0.2,0.9,0.2,0.6c0-0.9-0.9-1.8-1.9-1.4c-1,0.3-2,0.7-3,1c0.6,0.5,1.3,1,1.9,1.4c0-0.8,0-1.6,0.1-2.3c0-0.2,0-0.4,0-0.6
					c0-0.1,0-0.2,0-0.3c0,0.4,0,0,0-0.1c0-0.1,0.2-0.6,0-0.2c-0.4,0.6-1.1,0.7-2,0.2c-0.3-0.3-0.1-0.1,0,0.1
					C323.3,243.6,325.9,242.1,325,240.4L325,240.4z"/>
			</g>
			<g>
				<path d="M393.8,223.4c-0.4-0.8-1.2-1.3-2.1-1.1c-0.8,0.2-1.2,1.1-1.4,1.8c-0.2,1.3-0.2,2.7-0.2,4c0,0.9,1,1.8,1.9,1.4
					c1-0.3,2-0.7,3-1c-0.6-0.5-1.3-1-1.9-1.4c0,0.3,0,0.6,0.2,0.9c0.3,0.4,0.8,0.8,1.3,0.7c1.3-0.2,1.5-1.2,1.8-2.2
					c0.1-0.4,0.2-0.8,0.3-1.2c0-0.2,0.1-0.3,0.1-0.5c0.2-0.5,0,0.1-0.2,0.3c-0.4,0.1-0.7,0.3-1.1,0.4c0,0,0,0,0,0
					c-0.4-0.2-0.9-0.6-1.3-0.8C394,224,394,224,394,224c1,0,2,0,3,0c-0.2-2-2.9-1.7-4.4-1c-0.7,0.3-1.5,0.9-1.8,1.6
					c-0.5,1.1-0.1,2.2,1,2.8c0.6,0.3,1.3,0.3,1.8-0.2c0.6-0.6,1.4-1.4,1.1-2.3c-0.3-1-1.2-1.2-2.2-1.2c-1.9,0-1.9,3,0,3
					c0.1,0,0.2,0,0.4,0c0.3,0,0.2,0-0.4-0.1c-0.2-0.3-0.4-0.6-0.6-0.9c0,0,0.1,0,0.1,0c0-0.3,0-0.5,0-0.8c0-0.5,0.3-0.6,0.1-0.3
					c-0.2,0.2-0.4,0.3-0.5,0.5c0.6-0.1,1.2-0.2,1.8-0.2c-0.2-0.1-0.2-0.1,0,0.1c0.1,0.1,0.2,0.2,0.2,0.4c0.1,0.3,0,0.6-0.1,0.8
					c0.1-0.1,0-0.1-0.1,0.1c0.1-0.1,0.4-0.3,0.1-0.1c0.2-0.1,0.3-0.2,0.5-0.3c0.1,0,0.2-0.1,0.2-0.1c-0.2,0.1-0.2,0.1,0,0
					c0.2-0.1,0.4-0.1,0.6-0.2c0.4-0.1-0.1,0,0.1,0c0.1,0,0.1,0,0.2,0c-0.6,0-1-0.6-1.1-1.2c0.1,0.8,0.6,1.5,1.5,1.5
					c0.8,0,1.5-0.7,1.5-1.5c0-0.3,0-0.6-0.2-0.9c-0.3-0.4-0.8-0.8-1.3-0.7c-1.3,0.1-1.5,1.2-1.8,2.2c-0.1,0.4-0.2,0.8-0.3,1.2
					c0,0.2-0.1,0.3-0.1,0.5c-0.2,0.5,0,0.1,0.2-0.1c0.4-0.1,0.7-0.3,1.1-0.3c0,0,0,0,0,0c0.4,0,0.9,0.3,1.3,0.6
					c0.1,0.7,0.2,0.8,0.2,0.6c0-0.9-0.9-1.8-1.9-1.5c-1,0.3-2,0.6-3,1c0.6,0.5,1.3,1,1.9,1.4c0-0.8,0-1.6,0.1-2.4c0-0.2,0-0.4,0-0.6
					c0-0.1,0-0.2,0-0.3c0,0.4,0,0,0-0.1c0-0.1,0.2-0.6,0-0.2c-0.4,0.6-1.1,0.7-2,0.2c-0.3-0.3-0.1-0.1,0,0.1
					C392.1,226.6,394.7,225.1,393.8,223.4L393.8,223.4z"/>
			</g>
			<g>
				<path class="st7" d="M312.1,277.8c10,4.8,20.1,9.5,31.1,11.6c13,2.4,26.2,0.4,38.9-2.6c1.9-0.4,1.1-3.3-0.8-2.9
					c-12.3,2.9-24.8,4.7-37.3,2.6c-10.7-1.8-20.7-6.6-30.4-11.3C311.9,274.4,310.3,277,312.1,277.8L312.1,277.8z"/>
			</g>
			<g>
				<path class="st7" d="M331.2,272.8c-4,8.3-5.5,17.4-9,25.9c-0.7,1.8,2.2,2.6,2.9,0.8c3.4-8.2,4.8-17.1,8.7-25.2
					C334.6,272.6,332.1,271.1,331.2,272.8L331.2,272.8z"/>
			</g>
			<g>
				<path class="st7" d="M359.6,272.2c-2.8,8.7-4,17.7-5.9,26.6c-0.4,1.9,2.5,2.7,2.9,0.8c1.9-8.9,3.1-17.9,5.9-26.6
					C363.1,271.1,360.2,270.4,359.6,272.2L359.6,272.2z"/>
			</g>
		</g>
		<path class="st4" d="M219.6,355.7c-14,6.4-42.1,12.8-54.8,26.8c-31.9,31.9,19.1,35.7,42.1,37c34.4,1.3,66.3-2.5,99.5-3.8
			c19.1-1.3,88,6.4,62.5-24.2c-8.9-11.5-34.4-26.8-48.5-30.6c-10.2,25.5-21.7,30.6-49.7,28.1c-23-2.6-44.6-15.3-53.6-30.6"/>
		<path class="st3" d="M238.8,349.4c-1.3,0-2.6,1.3-5.1,0c-15.3,35.7,105.8,47.2,80.3,3.8c15.3,8.9,16.6,34.4,2.5,43.4
			s-44.6,3.8-59.9,1.3c-14-2.6-37-5.1-44.6-19.1c-7.7-14,1.3-28.1,16.6-28.1"/>
		<g>
			<path d="M231.6,359.5c-7.9,5.4-14.3,12.9-16,22.6c-0.3,1.9,2.6,2.7,2.9,0.8c1.5-8.9,7.3-15.8,14.6-20.8
				C234.7,361,233.2,358.4,231.6,359.5L231.6,359.5z"/>
		</g>
		<g>
			<path d="M243.6,371c-0.2,7.1-2.1,14.4-3.8,21.3c-0.5,1.9,2.4,2.7,2.9,0.8c1.8-7.2,3.7-14.7,3.9-22.1
				C246.7,369.1,243.7,369.1,243.6,371L243.6,371z"/>
		</g>
		<g>
			<path d="M263,379.3c4.1,6,3.6,13.7,3.6,20.7c0,2,3,2,3,0c0-7,0.3-15.9-4-22.3C264.5,376.1,261.9,377.7,263,379.3L263,379.3z"/>
		</g>
		<g>
			<path d="M290.6,381.4c7.1,1.7,9,10.1,9.1,16.4c0,1.9,3,1.9,3,0c-0.1-7.7-2.8-17.2-11.3-19.3C289.6,378,288.8,380.9,290.6,381.4
				L290.6,381.4z"/>
		</g>
		<g>
			<path d="M311.8,377.6c7.1-1,11.3,4.4,13.5,10.4c0.6,1.8,3.5,1,2.9-0.8c-2.7-7.8-8.3-13.7-17.1-12.5
				C309.1,374.9,310,377.8,311.8,377.6L311.8,377.6z"/>
		</g>
	</g>
	<g>
		<path d="M391.9,107.1c11.3,8.8,11.5,26.9,11.6,39.9c0,1.9,3,1.9,3,0c0-13.8-0.5-32.7-12.4-42.1
			C392.6,103.8,390.4,105.9,391.9,107.1L391.9,107.1z"/>
	</g>
</g>
<g>
	<g>
		<path class="st3" d="M1018.5,621.2c-5.7,97.6,124.8,91.8,189.4,93.3c5.7,18.7-11.5,37.3-10,56c20.1,0,35.9-58.3,41.7-12.3
			c2.9,24.4-8.2,12.3-22.5,18c-12.9,5.7-10.6,18.7-20.6,31.7c25.8,10,68.9-37.3,77.5-58.8c5.7-12.9,11.5-33,10-47.4
			c-2.9-15.8-12.9-23-14.3-37.3c-5.7-37.3,5.7-67.4-43-83.2c-30.1-8.6-61.7,1.4-91.8-12.9c-18.7-7.2-28.7-20.1-43.1-31.6
			c-14.3,12.9-1.4,21.5,7.2,34.4c-7.2-2.9-27.3-25.8-34.4-21.5c-8.6,5.7,8.6,28.7,11.5,34.4c-17.2,4.3-18.7-25.8-35.9-23
			c-24.4,4.3,2.9,27.3,1.4,37.3c0,28.7-18.7-17.2-31.6-7.2c-11.5,8.6,2.9,14.3,4.3,21.5"/>
		<g>
			<path d="M1046.3,690.7c-0.9,13.8-3.1,27.4-5.2,41.1c-1.8,11.8-4.4,24.7-2.5,36.6c3.2,21,17.6,37.9,34,50.4
				c7.7,5.9,16.8,8.8,26.3,9c10,0.3,19.9-2.2,29.9-2.6c10.9-0.5,20.9,1.3,27.8,10.4c5.6,7.3,7.9,16.8,10.2,25.6
				c0.5,1.9,3.4,1.1,2.9-0.8c-3.8-14.9-9.1-32.3-25.7-37.1c-19.5-5.6-39.8,5.9-59.2-1.1c-10.8-3.9-20-13.1-27.4-21.6
				c-7.5-8.6-13.1-18.9-15.5-30.1c-2.7-12.8,0.4-27.1,2.3-39.9c2-13.3,4.1-26.6,5-40C1049.4,688.8,1046.4,688.8,1046.3,690.7
				L1046.3,690.7z"/>
		</g>
		<g>
			<path d="M1224.9,751c0.6-3.1,2-8.4,5.9-5.3c3.7,2.9,5.9,8,7.3,12.4c1.3,4.1,2.4,9.5,0.1,13.5c-3.2,5.6-12.6,1.5-16.7-0.4
				c-1.7-0.8-3.3,1.8-1.5,2.6c5.7,2.6,15.3,6.4,20.2,0.3c3.8-4.7,2.3-12,0.7-17.2c-1.7-5.2-4.6-11.6-9.6-14.4
				c-5.5-3.1-8.4,3.5-9.2,7.8C1221.6,752.1,1224.5,752.9,1224.9,751L1224.9,751z"/>
		</g>
		<g>
			<path d="M1083.3,745.8c-3,7-7.7,13-12.3,19.1c-0.6,0.8,0.1,1.9,0.9,2.2c4.2,1.4,8.2,2.6,12.6,2.8c1.9,0.1,1.9-2.9,0-3
				c-4.1-0.2-8-1.4-11.9-2.7c0.3,0.7,0.6,1.5,0.9,2.2c4.6-6,9.3-12,12.3-19.1C1086.6,745.5,1084,744,1083.3,745.8L1083.3,745.8z"/>
		</g>
		<g>
			<path d="M1144.5,781.2c-7.3,13.5-27,16.1-38.5,6.5c-1.5-1.2-3.6,0.9-2.1,2.1c12.9,10.8,35,8.2,43.2-7.1
				C1148,781,1145.4,779.5,1144.5,781.2L1144.5,781.2z"/>
		</g>
		<g>
			<path d="M1132.8,739.7c7.6,4.3,16.8,5.6,24.7,1.4c1.7-0.9,0.2-3.5-1.5-2.6c-6.9,3.8-15,2.4-21.6-1.4
				C1132.6,736.1,1131.1,738.7,1132.8,739.7L1132.8,739.7z"/>
		</g>
		<g>
			<path d="M1054.9,727.2c5,6.1,13.4,7.1,20.5,4.5c1.8-0.7,1-3.6-0.8-2.9c-6.2,2.3-13.2,1.7-17.6-3.7
				C1055.8,723.6,1053.7,725.7,1054.9,727.2L1054.9,727.2z"/>
		</g>
		<g>
			<path d="M1215.9,781.9c-26.7,4.1-23.2,43.7-8.8,58.7c1.3,1.4,3.5-0.7,2.1-2.1c-13-13.5-16.8-49.9,7.5-53.6
				C1218.6,784.5,1217.8,781.6,1215.9,781.9L1215.9,781.9z"/>
		</g>
		<path class="st1" d="M1163.2,853.8c-18.4-12.3-27.6,23.5-43.9,32.7c19.4,3.1,19.4,22.5,35.7,2c7.1-9.2,14.3-22.5,10.2-32.7"/>
		<path class="st1" d="M1204.1,836.4c4.1-5.1,14.3,12.3-4.1,25.5c-10.2,7.1-25.5,10.2-34.7,19.4c-11.2,11.2-3.1,18.4-4.1,33.7
			c11.2-2,19.4-15.3,28.6-21.4c9.2-5.1,21.4-8.2,29.6-16.3c18.4-17.4,7.1-38.8-12.3-45.9"/>
		<g>
			<path d="M1225.9,863.4c21.4-6.4,46.5,1.4,66.6,9.2c1.8,0.7,2.6-2.2,0.8-2.9c-20.6-7.9-46.2-15.7-68.2-9.2
				C1223.3,861.1,1224,864,1225.9,863.4L1225.9,863.4z"/>
		</g>
		<g>
			<path d="M1145.9,857.4c-19,1-38.2-0.7-56.5,5.2c-1.8,0.6-1.1,3.5,0.8,2.9c18.1-5.8,37-4.1,55.8-5.1
				C1147.8,860.3,1147.8,857.3,1145.9,857.4L1145.9,857.4z"/>
		</g>
		<g>
			<path d="M1264.6,679.6c7.7-7.8,15-16.5,16.9-27.7c0.3-1.9-2.6-2.7-2.9-0.8c-1.8,10.6-8.7,18.9-16.1,26.3
				C1261.1,678.9,1263.3,681,1264.6,679.6L1264.6,679.6z"/>
		</g>
		<g>
			<path d="M1270.6,688.6c5.2-4.9,12-7.2,18.8-8.6c1.9-0.4,1.1-3.3-0.8-2.9c-7.3,1.6-14.6,4.2-20.2,9.4
				C1267.1,687.9,1269.2,690,1270.6,688.6L1270.6,688.6z"/>
		</g>
		<g>
			<path d="M1222.3,765.4c2.8-1.5,4-4.7,7.1-5.8c-0.6-0.5-1.3-1-1.9-1.4c0,0.9-0.1,1.8-0.3,2.7c-0.1,0.2-0.5,0.7-0.2,0.6
				c0,0,0.1,0,0.2,0.1c0.1,0.1,0.1,0.2,0,0.1c0.1,0.2,0,0.4-0.1,0.6c1.3-1.4-0.8-3.6-2.1-2.1c-1.3,1.5-0.6,4,1.5,4.4
				c3.4,0.6,4.1-3.9,4.1-6.3c0-0.9-1-1.8-1.9-1.4c-1.8,0.6-3.3,1.5-4.6,2.9c-1.1,1.2-1.9,2.5-3.3,3.2
				C1219.1,763.7,1220.6,766.3,1222.3,765.4L1222.3,765.4z"/>
		</g>
		<g>
			<path d="M1207.9,721.3c4-5.2,9.2-9.6,15.6-11.3c1.9-0.5,1.1-3.4-0.8-2.9c-7.2,2-12.9,6.9-17.4,12.7
				C1204.1,721.4,1206.7,722.8,1207.9,721.3L1207.9,721.3z"/>
		</g>
	</g>
	<g>
		<path class="st6" d="M1173,613.5c-30.1-17.9-54.6,37.6-18.9,47.4c12.3,3.2,24.1,0.2,30.1-11.3c4.3-8.9,7.8-22.1,1.5-30.8
			c-1.4-2.4-4.4-4.2-6.4-6.2"/>
		<g>
			<path d="M1153.8,636.4c-0.1-0.2-0.1-0.3-0.2-0.5c-0.4-1.3-2-1.5-2.7-0.4c-0.4,0.7-0.6,1.4-0.8,2.2c-0.4,1.4,1.5,2.6,2.5,1.5
				c0.8-0.9,1.3-1.8,1.9-2.9c0.9-1.6-1.1-2.9-2.4-1.8c-1,0.8-1.6,1.7-2.4,2.8c-1.1,1.6,1.5,3,2.6,1.5c-0.5,0.6,1.8-0.4,2.3-0.9
				c-0.9-0.3-1.9-0.5-2.8-0.8c-0.6,6.9-0.3,14.2-2.5,20.8c-1.4,4.2-3.4,8.2-4.9,12.4c-1.9,5.4-4.3,15.3,4.4,15.9
				c6.5,0.4,9.3-11.4,10.7-15.8c1.3-4.2,2.4-8.1,4.8-11.9c3.8-5.9,9-10.6,12-17.1c0.4-0.9,0.1-1.9-0.9-2.2c-0.2,0-0.3-0.1-0.5-0.1
				c-0.9-0.2-2,0.4-1.9,1.4c0,0.5-0.6,1.1-0.9,1.5c-0.7,1,0.3,2.2,1.3,2.3c1.1,0.1,2.1,0,3-0.6c0.4-0.2,0.8-0.8,0.7-1.3
				c0-0.2,0-0.4,0-0.6c0-0.5-0.3-1.1-0.7-1.3c-1.1-0.5-1.9-0.9-3-0.6c-1.9,0.5-1.1,3.4,0.8,2.9c3.1-0.8-0.9-1.5-0.8-1.5
				c0.4,0.8,0.9,1.5,1.3,2.3c0.6-0.9,1.4-1.8,1.3-3c-0.6,0.5-1.3,1-1.9,1.4c0.2,0,0.3,0.1,0.5,0.1c-0.3-0.7-0.6-1.5-0.9-2.2
				c-4.1,8.9-12.2,15.1-15.5,24.5c-2.1,5.8-2.8,12.7-7.1,17.5c-1.2,1.4-2.5,1.5-4,0.7c-2.3-1.3-1.7-4-1.3-6.2c0.8-4,2.5-7.9,4-11.7
				c3.7-9.1,4.1-17.9,5-27.6c0.2-1.7-2-1.8-2.8-0.8c0.5-0.6-1.8,0.3-2.3,0.9c0.9,0.5,1.7,1,2.6,1.5c0.5-0.8,1.2-1.5,1.9-2.2
				c-0.8-0.6-1.6-1.2-2.4-1.8c-0.4,0.8-0.9,1.6-1.4,2.3c0.8,0.5,1.7,1,2.5,1.5c0.1-0.5,0.3-1,0.5-1.4c-0.9-0.1-1.8-0.2-2.7-0.4
				c0.1,0.2,0.1,0.3,0.2,0.5C1151.4,639,1154.3,638.3,1153.8,636.4L1153.8,636.4z"/>
		</g>
		<g>
			<path d="M1147.8,669.4c3.2,0.8,6.9,1.7,10.1,0.9c1.9-0.5,1.1-3.4-0.8-2.9c-2.7,0.7-5.9-0.2-8.5-0.9
				C1146.8,666,1146,668.9,1147.8,669.4L1147.8,669.4z"/>
		</g>
		<g>
			<path d="M1146.8,677.2c4.1,1.7,8.1,3.4,12.4,1.3c1.7-0.9,0.2-3.5-1.5-2.6c-3.3,1.7-6.9-0.3-10.1-1.6
				C1145.8,673.6,1145,676.5,1146.8,677.2L1146.8,677.2z"/>
		</g>
		<g>
			<path d="M1120.7,651.8c1.7,0.4,3.6,0.4,5.4,0.3c1.9-0.1,1.9-3.1,0-3c-1.5,0.1-3.1,0.1-4.6-0.2
				C1119.6,648.4,1118.8,651.3,1120.7,651.8L1120.7,651.8z"/>
		</g>
		<g>
			<path d="M1123.3,621.5c1.8-0.5,3.9,0.3,5.6,1.1c1.7,0.8,3.3-1.8,1.5-2.6c-2.4-1.1-5.2-2.2-7.9-1.4
				C1120.7,619.2,1121.5,622.1,1123.3,621.5L1123.3,621.5z"/>
		</g>
		<g>
			<path d="M1148.5,589.5c-0.4,2.5,0.7,5.3,1.2,7.7c0.4,1.9,3.3,1.1,2.9-0.8c-0.3-1.2-0.5-2.3-0.8-3.5c-0.2-0.7-0.5-2.1-0.4-2.6
				C1151.7,588.4,1148.8,587.6,1148.5,589.5L1148.5,589.5z"/>
		</g>
		<g>
			<path d="M1178.7,591.4c-0.9,1.5-1.4,3.2-1.8,4.9c-0.5,1.9,2.4,2.7,2.9,0.8c0.4-1.5,0.7-2.9,1.5-4.2
				C1182.4,591.3,1179.8,589.8,1178.7,591.4L1178.7,591.4z"/>
		</g>
		<g>
			<path d="M1206.6,604.9c-1.9,1.9-3.8,3.7-6.1,5.1c-1.7,1-0.1,3.6,1.5,2.6c2.5-1.5,4.6-3.6,6.7-5.6
				C1210.1,605.6,1208,603.5,1206.6,604.9L1206.6,604.9z"/>
		</g>
		<g>
			<path d="M1202.2,636.7c1.5,0.9,3.2,1.4,5,1.8c1.9,0.5,2.7-2.4,0.8-2.9c-1.5-0.4-2.9-0.7-4.2-1.5
				C1202.1,633.1,1200.6,635.7,1202.2,636.7L1202.2,636.7z"/>
		</g>
		<g>
			<path d="M1194.7,657.9c2.1,1.1,4.2,2.2,6.1,3.6c1.6,1.1,3.1-1.5,1.5-2.6c-1.9-1.4-4-2.5-6.1-3.6
				C1194.5,654.4,1193,657,1194.7,657.9L1194.7,657.9z"/>
		</g>
		<g>
			<path d="M1182.8,669.2c0.8,2.1,2,4,3.6,5.5c1.4,1.3,3.6-0.8,2.1-2.1c-1.3-1.2-2.3-2.6-2.9-4.2
				C1185,666.6,1182.1,667.4,1182.8,669.2L1182.8,669.2z"/>
		</g>
	</g>
	<g>
		<path d="M1038.9,607.1c4.8,4.6,10.4,8.2,16.3,11.2c1.7,0.9,3.2-1.7,1.5-2.6c-5.7-2.9-11.1-6.3-15.7-10.8
			C1039.7,603.6,1037.6,605.7,1038.9,607.1L1038.9,607.1z"/>
	</g>
	<g>
		<path d="M1072.9,583.1c3.3,4.2,7.6,7.8,12.3,10.2c1.7,0.9,3.2-1.7,1.5-2.6c-4.5-2.3-8.6-5.7-11.7-9.8
			C1073.9,579.4,1071.8,581.6,1072.9,583.1L1072.9,583.1z"/>
	</g>
	<g>
		<path d="M1097.6,567.4c5.7,1.4,10.1,5.8,16,7c1.9,0.4,2.7-2.5,0.8-2.9c-5.8-1.2-10.2-5.6-16-7
			C1096.5,564.1,1095.7,567,1097.6,567.4L1097.6,567.4z"/>
	</g>
</g>
<g>
	<g>
		<path class="st2" d="M352.2,654.3c-1.1,13.7-18.2,18.3-27.2,10.3c-5.7,16-25,14.9-36.3,4.6c2.3,18.3-21.6,28.6-35.2,18.3
			c-2.3,17.2-20.4,17.2-32.9,12.6c-2.3,6.9-11.3,9.2-12.5,12.6c-2.3,5.7-1.1,10.3-1.1,17.2c0,14.9,1.1,22.9,7.9,35.5
			c15.9,29.8,32.9,30.9,62.4,32c5.7,19.5-19.3,51.5-31.8,24c-10.2,11.4-25,11.4-28.4-5.7c-4.5,3.4-13.6,8-20.4,6.9
			c-11.4-3.4-4.5-11.4-10.2-17.2c-9.1-11.4-25-11.4-19.3-32c-20.4-8-5.7-24-12.5-35.5c-2.3-5.7-12.5-6.9-15.9-12.6
			c-2.3-6.9,2.3-11.4,0-18.3c-2.3-6.9-13.6-9.2-11.4-20.6c2.3-9.2,13.6-8,15.9-14.9c4.5-13.7-12.5-29.8,14.8-32
			c-4.5-16-7.9-33.2,14.8-34.3c-1.1-19.5,6.8-27.5,25-29.8c-5.7-21.7,25-22.9,38.6-19.5c4.5-20.6,29.5-16,40.9-5.7
			c9.1-11.4,21.6-12.6,34.1-11.4c5.7,1.1,12.5,3.4,15.9,3.4c4.5,1.1,12.5-2.3,17-1.1c12.5,2.3,15.9,9.2,25,13.7
			c10.2,4.6,27.2,0,26.1,17.2c15.9,0,29.5,9.2,22.7,26.3c20.4,2.3,21.6,26.3,7.9,38.9c13.6,3.4,18.2,18.3,9.1,28.6
			c15.9,17.2-1.1,20.6-4.5,32c-3.4,13.7,10.2,28.6-12.5,34.3c6.8,9.2,3.4,22.9-9.1,19.5c6.8,9.2,7.9,26.3-7.9,25.2
			c6.8,12.6-2.3,27.5-15.9,20.6c-1.1,12.6-9.1,19.5-21.6,14.9c-2.3,11.4-15.9,12.6-25,8c-9.1,14.9-32.9-6.9-21.6-19.5
			c5.7-6.9,35.2-4.6,45.4-11.4c25-14.9,28.4-53.8,22.7-80.1c-10.2,4.6-14.8-5.7-13.6-14.9c-12.5,1.1-19.3-9.2-11.4-20.6
			c-9.1-3.4-9.1-13.7-7.9-21.7"/>
		<g>
			<path d="M302.8,802.4c26.3,1.1,58.6,0.3,74-24.8c9.1-14.9,9.1-33.4,8.5-50.2c-0.6-19.4-2.4-39.5-7.3-58.3
				c-0.5-1.9-3.4-1.1-2.9,0.8c4.6,17.7,6.2,36.5,7.1,54.7c0.8,17.1,1,35.3-7.5,50.7c-13.9,25-47,25.2-72,24.2
				C300.9,799.3,300.9,802.3,302.8,802.4L302.8,802.4z"/>
		</g>
		<g>
			<path d="M206.3,684.5c5.1,12.8,1.5,26.4,0,39.5c-1.9,16.4,1,31.6,9.1,46c6.1,10.8,15.1,20,26.6,24.7c11.3,4.7,23.8,5.3,35.9,6.4
				c1.9,0.2,1.9-2.8,0-3c-11.4-1-23.2-1.6-34-5.8c-13-5-21.9-16-28.2-28c-7.6-14.8-7.8-30.5-5.6-46.6c1.6-11.4,3.5-23-0.9-34
				C208.5,682,205.6,682.7,206.3,684.5L206.3,684.5z"/>
		</g>
		<g>
			<path d="M392.6,694.5c5.9-4.2,8.7,2.8,8.8,7.9c0.1,2.7-0.6,5.8-2.6,7.7c-2.7,2.5-7,0.4-9.6-1.1c-1.7-1-3.2,1.6-1.5,2.6
				c3.7,2.2,8.4,3.9,12.4,1.3c3.2-2.2,4.3-6.4,4.4-10.1c0.2-7.4-5.3-16.6-13.3-10.9C389.6,693.1,391.1,695.7,392.6,694.5
				L392.6,694.5z"/>
		</g>
		<g>
			<path d="M200.5,705.4c-5.6-1-12.2,1-15,6.3c-3.2,6.2,3.4,10.1,8.5,11.3c1.9,0.4,2.7-2.5,0.8-2.9c-3.7-0.9-9-3.1-6.2-7.7
				c2.2-3.6,7.3-4.8,11.1-4.2C201.6,708.6,202.4,705.7,200.5,705.4L200.5,705.4z"/>
		</g>
		<path class="st0" d="M259.6,839.5c8.6,3.1,15.5,13.3,22.5,20.2c13.9,13.7,9.4,27.2-1,46.3c-11.9-15.2-46.1-58.7-22.3-67.5"/>
		<path class="st0" d="M324.9,838.9c-21.6,25-44.3,30.6-6.8,62.4c9.1-13.6,17-32.9,21.6-47.7c5.7-18.2,1.1-20.4-17-17"/>
		<g>
			<path d="M231,854c0,0-2,0-3,0c-2,0-2,3,0,3c15,0,30.5-0.1,41.6-11.8c10.9-11.4,11.8-29.4,11.4-44.2c0-1.9-3-1.9-3,0
				c0.4,14-0.5,30.2-10,41.4c-10,11.8-26,11.6-40,11.6c-2,0-2,3,0,3c1,0,2,0,3,0C233,857,233,854,231,854C231,854,233,854,231,854z"
				/>
		</g>
		<g>
			<path d="M315.4,804.8c0.9,0.2,2,8.7,2.2,9.9c0.8,4.7,1.5,9.4,2.2,14.1c1.7,10.3,8,18.2,16.4,24.4c11.6,8.6,26.1,9,39.9,7.4
				c17.1-2,33.2-5.2,49.1,3.7c1.7,0.9,3.2-1.6,1.5-2.6c-13.7-7.7-28-7.2-43.1-5.1c-16.9,2.3-33.8,3.8-48-7.5
				c-4.7-3.8-10.2-9.6-11.8-15.5c-1.1-4-1.5-8.3-2.1-12.4c-0.7-4.5-1.4-9.1-2.4-13.6c-0.4-1.7-0.9-5.2-3-5.7
				C314.4,801.4,313.6,804.3,315.4,804.8L315.4,804.8z"/>
		</g>
		<g>
			<path d="M289.3,723.6c-4.1,8.2-7.8,16.6-12.3,24.7c-0.4,0.8-0.1,2,0.9,2.2c4.7,1,8.9,0.4,12.6-2.9c1.4-1.3-0.7-3.4-2.1-2.1
				c-2.9,2.5-6,2.8-9.6,2.1c0.3,0.7,0.6,1.5,0.9,2.2c4.5-8,8.2-16.4,12.3-24.7C292.8,723.4,290.2,721.9,289.3,723.6L289.3,723.6z"/>
		</g>
		<g>
			<path d="M307.6,771.5c5.7-6.4,15.5-6.6,23.2-4.5c1.9,0.5,2.7-2.4,0.8-2.9c-8.7-2.3-19.7-1.9-26.1,5.3
				C304.2,770.8,306.4,772.9,307.6,771.5L307.6,771.5z"/>
		</g>
		<g>
			<path class="st4" d="M270.5,672.1c-17.3-6.8-35.9,2.5-46.1,16.7c-5.1,7-7.8,15.9-6.8,24.6c1,9.5,6.6,17.2,13.7,23.2
				c9.4,8,21.5,12.5,33.3,7.1c10.1-4.6,16.4-15.5,19.8-25.5c3.8-11.2,4.6-24.5-0.4-35.4c-5.4-11.8-18-14.7-29.7-11.9
				c-3.8,0.9-2.2,6.7,1.6,5.8c10.7-2.6,20.3,0.7,23.9,11.7c3.5,10.4,1.4,22.8-2.9,32.7c-4.1,9.3-11.7,18.7-22.6,19.1
				c-15.5,0.5-30.9-16.2-30.8-31c0.2-21.5,25.8-39.1,45.6-31.3C272.5,679.3,274,673.5,270.5,672.1L270.5,672.1z"/>
		</g>
		<g>
			<path class="st4" d="M288.8,704.7c3.4-2.1,9.2-1.5,12.9-0.9c3.8,0.6,5.4-5.2,1.6-5.8c-5.4-0.9-12.7-1.5-17.6,1.5
				C282.5,701.6,285.5,706.8,288.8,704.7L288.8,704.7z"/>
		</g>
		<g>
			<path class="st4" d="M344.4,672.1c-16.4-6.4-31.5,4.5-38.2,19.3c-7.1,15.8-4.5,34.1,9.6,44.8c10.9,8.3,25.3,10.5,36.8,2.1
				c10.1-7.4,15.6-20,16.7-32.3c1.6-17.3-9.1-31.4-27-31.6c-3.9,0-3.9,6,0,6c30.2,0.4,24.1,42.4,4.9,54.2
				c-13,8.1-30.5-1.1-36.6-13.7c-7.1-14.8,1.4-37.5,16.7-43.6c5.1-2,10.4-1.5,15.4,0.5C346.4,679.3,348,673.5,344.4,672.1
				L344.4,672.1z"/>
		</g>
		<g>
			<path d="M324.4,708.4c6.9,5.2,14.1,3.2,18.1-4.2c0.9-1.7-1.7-3.2-2.6-1.5c-1.4,2.5-3,4.8-5.8,5.7c-2.9,1-5.9-0.8-8.1-2.5
				C324.3,704.6,322.9,707.2,324.4,708.4L324.4,708.4z"/>
		</g>
		<g>
			<path d="M242.5,714c1.9,3.6,5,6,9.1,6.1c4.7,0.2,8.5-3.7,10.7-7.4c1-1.7-1.6-3.2-2.6-1.5c-3.7,6-10.8,8.4-14.7,1.2
				C244.1,710.8,241.5,712.3,242.5,714L242.5,714z"/>
		</g>
		<g>
			<path d="M286.7,891.6c-0.8,3.4-1.6,8.1,1,11c1.9,2.1,4.8,2.4,7.4,1.6c6.8-2,11-9.5,9.3-16.3c-0.5-1.9-3.4-1.1-2.9,0.8
				c1.3,5.1-1.7,10.3-6.4,12.3c-6.3,2.7-6.5-4.3-5.5-8.7C290,890.5,287.1,889.7,286.7,891.6L286.7,891.6z"/>
		</g>
		<g>
			<path d="M285.7,890.5c-10.2,1.3-20.6,0.1-30.8,0c-1.2,0-1.8,1.3-1.3,2.3c3.2,6.7,6.8,18.8,14.5,22c8.1,3.3,17.1-5.9,22.4-10.6
				c1.5-1.3-0.7-3.4-2.1-2.1c-4.3,3.7-13.1,13.1-19.7,9.6c-2.7-1.4-4.4-4.6-5.9-7.1c-2.5-4.3-4.5-8.8-6.6-13.3
				c-0.4,0.8-0.9,1.5-1.3,2.3c10.3,0.1,20.6,1.3,30.8,0C287.6,893.3,287.6,890.3,285.7,890.5L285.7,890.5z"/>
		</g>
		<g>
			<path d="M302.2,893.3c10,4.9,20.4,7.5,31.6,7.6c-0.5-0.6-1-1.3-1.4-1.9c-1.4,8.3-6.2,14.4-11.9,20.3c0.6-0.1,1.2-0.2,1.8-0.2
				c-9-4-17.7-9.4-22.9-18c-1-1.7-3.6-0.1-2.6,1.5c5.5,9,14.5,14.9,24,19c0.6,0.3,1.3,0.3,1.8-0.2c6.1-6.2,11.2-12.8,12.7-21.6
				c0.2-1-0.4-1.9-1.4-1.9c-10.6-0.1-20.5-2.5-30.1-7.2C302,889.9,300.4,892.5,302.2,893.3L302.2,893.3z"/>
		</g>
		<g>
			<path d="M288,891.8c2.3-2.4,3.3-4.8,6.7-5.8c-0.6-0.5-1.3-1-1.9-1.4c0.1,4,1.1,8,0.1,11.9c1,0.1,2,0.3,2.9,0.4
				c0.2-4.8,3.3-7.7,4.9-11.9c-0.7,0.3-1.5,0.6-2.2,0.9c1.4,0.8,1.3,3,1.9,4.4c0.8,1.8,3.3,0.2,2.6-1.5c-1-2.3-0.6-4-3-5.5
				c-0.9-0.5-1.9,0-2.2,0.9c-0.8,2.1-2.2,3.8-3.3,5.8c-1.2,2.2-1.6,4.5-1.7,6.9c-0.1,1.7,2.5,2,2.9,0.4c1.2-4.2,0.2-8.5,0.1-12.7
				c0-1-0.9-1.7-1.9-1.4c-1.9,0.5-3.4,1.2-4.9,2.6c-1.3,1.1-2,2.8-3.2,4C284.5,891.1,286.7,893.3,288,891.8L288,891.8z"/>
		</g>
		<g>
			<path d="M313.2,586.1c-16.3-4.8-39.2-3.2-50.1,11.5c-3.9,5.2-5.5,13.1-1.8,18.8c3.2,4.9,9.7,6.6,15.2,6.9
				c11.1,0.7,29.3-6.5,25.3-20.6c-3.9-13.7-27.1-15.4-37.9-11.2c-8.6,3.4-16.6,13.8-9.5,22.2c7.6,9.1,20.3,12.8,30.4,18.2
				c0.1-0.9,0.2-1.8,0.4-2.7c-16.4,3.3-41.3-3-46.7-20.9c-1.5-4.9-0.9-10.6,1.8-14.9c3.3-5.3,11.6-5,16.9-4.1
				c11.7,1.9,15,11.9,21.9,19.9c9.2,10.6,27.4,12.2,39.8,7c5.4-2.2,9.3-6.4,9.8-12.3c0.7-8-5-14.1-11.9-17
				c-8.1-3.4-17.9-2.9-24.8,2.6c-7.8,6.2-6.5,16.9-5.2,25.6c0.7,5,0.5,9.9,1,14.8c0.1,1.1,1.9,6.1,1,6.8c-3.1,2.3-9.2,2.8-12.8,2.7
				c-6.6-0.2-13.1-3.4-18.8-6.5c-10-5.4-21.9-13.3-27.2-23.7c-5.3-10.3,6.8-15.6,14.8-17.5c9.4-2.3,20.7-2.8,30,0.3
				c9.2,3.1,17.7,8.5,26.3,13c14,7.3,33.4,17.1,47.7,5.4c5.1-4.2,8.4-10.6,5.4-16.9c-2.8-6-10.6-8.9-16.6-10
				c-6.9-1.2-15-0.3-20.7,4.2c-7.7,6.2-9.1,16.8-11.4,25.7c-1.4,5.6-3.6,10.7-7.7,14.9c-4,4-9.6,5.7-15,6.7
				c-11,2.2-23.9,1.5-34.2-2.9c-10.2-4.3-19.8-14.5-19.7-26.1c0.1-10.4,8.8-18.7,17.2-23.5c11.3-6.4,25.9-8.7,38.7-8.6
				c7.2,0.1,14.4,1.5,21,4.3c5.3,2.3,9.5,6.4,13.4,10.6c6.4,6.6,13.5,15.1,23.3,16.2c7,0.8,13.8-0.7,18-6.6
				c8.4-11.7-1.9-28.5-13.6-33c-17.2-6.6-42.2,5.4-47.4,23.1c-3.3,11.1,5.7,24.5-5.5,32.9c-6.6,4.9-16.5,4.9-24.3,4.7
				c-10.3-0.3-20.5-2.1-30.4-4.7c-7.9-2-16.1-4.5-23.1-8.6c-9.4-5.5-14.2-14.6-6.2-23.5c6.7-7.5,17.8-11.4,27.6-12.6
				c9.3-1.1,20.5,0.3,27.4,7.1c5.1,5.1,7.2,12.8,10.3,19.2c7.1,14.6,21,20.1,36.6,18.9c14.7-1.2,33.7-7,41.2-20.9
				c3.2-5.9,2.9-13.3-0.5-19.1c-3.5-6-10.6-8.8-17-10.1c-13.5-2.8-31.8-0.6-42.8,8.2c-16.2,12.9-16.9,36.9-35.4,47.7
				c-15.3,9-46.4,4.3-38.7-19.5c2.8-8.9,14.7-12.3,22.7-14.1c9-2,18.6-2.5,27.8-1.6c12.5,1.2,22.2,7.6,31.9,14.9
				c8.8,6.5,17.4,11.8,27.9,15.1c16.4,5.3,41.3,9.2,54.2-5.4c1.3-1.4-0.8-3.6-2.1-2.1c-14.3,16-43.9,8.5-60.7,1.1
				c-10.8-4.7-19.4-13.3-29.4-19.5c-8.4-5.2-17.7-7.2-27.5-7.5c-14.9-0.5-37.8,1.3-46.5,15.5c-3.9,6.4-3.3,15.9,1.2,21.9
				c4.4,5.8,12.1,8,19,8.7c9,0.8,17.7-2,25-7c7.8-5.3,12.4-13.6,16.5-22c4.3-9,8.7-18.6,17-24.7c6.2-4.6,14.8-6.4,22.3-7.3
				c14.3-1.7,40.1,2.8,33.4,23.3c-2.7,8.3-11.8,13.5-19.3,16.6c-8.2,3.4-17.2,5.1-26.1,5.1c-8.4,0-16.2-2.8-22.2-8.9
				c-5.4-5.4-7.7-13.1-10.9-19.8c-7.6-15.9-25.3-19.1-41.4-15.7c-12.8,2.7-35.2,14.4-27.2,30.8c3.4,6.9,11.3,10.8,18,13.6
				c8.5,3.6,17.7,5.9,26.7,7.6c9.3,1.8,18.9,2.8,28.5,2.3c6.8-0.4,14.1-1.7,19.5-6.2c8.9-7.4,5.2-18.7,4.9-28.6
				c-0.3-13.3,12.8-22.1,24.1-25.7c10.2-3.2,20.7-2.5,28.4,5.5c5.3,5.5,7.8,14.5,4.3,21.5c-4.6,9.3-17.4,7.4-24.6,2.9
				c-8.9-5.6-14.5-15.3-23.3-21c-10.2-6.7-24.2-7.3-35.9-6.2c-11.1,1-22.9,4-32.5,9.8c-15.4,9.4-21.8,27.3-9.9,42.2
				c13.1,16.3,38.1,18.8,57,13c9.2-2.8,14.9-9.8,17.9-18.6c3.3-9.8,3.3-22.7,13-28.9c13.1-8.4,44.3,3.2,26.4,19.2
				c-7.4,6.7-18.2,4.9-26.8,2c-9.9-3.3-19-8.7-28.1-13.6c-7.2-3.8-14.8-8.1-22.9-9.2c-9.5-1.3-20.1-0.4-29.2,2.6
				c-5.9,1.9-13.1,6-13.7,12.9c-0.8,9.3,7.8,16.9,14.3,22.1c8.6,7,18.4,13.2,29.1,16.3c4.4,1.3,8.9,1.5,13.3,0.5
				c2.8-0.6,6.5-1.1,8.7-3.2c1.2-1.1,0.9-2.9,0.5-4.3c-1-4.1-0.8-7.9-1-12.1c-0.6-11.4-5.9-24.2,5.5-32c8.6-5.9,25-1.5,28.6,8.2
				c3.1,8.2-2.3,13.8-9.8,16.1c-7.5,2.3-16,1.8-23.4-0.5c-9.3-2.9-13.3-11.3-18.8-18.5c-6.4-8.6-19.1-11.8-29.2-8.2
				c-9.4,3.5-10.3,15.8-7.4,24c6.4,18.3,32.7,24.4,49.7,21c1.3-0.3,1.5-2.2,0.4-2.7c-7.6-4.1-15.6-7.2-22.9-11.8
				c-3.3-2.1-7-4.9-8.5-8.7c-2.1-5.2,3.1-9.9,6.7-12.7c9.5-7.3,45.7-2.6,36.5,14.8c-5.6,10.7-32.2,14.8-35.8,0.4
				c-2.6-10.4,8.7-18.8,17-21.9c9.7-3.5,21-3.5,30.9-1.1c0.7,0.2,1.3,0.4,2,0.6C314.3,589.5,315.1,586.6,313.2,586.1L313.2,586.1z"
				/>
		</g>
	</g>
	<g>
		<path d="M156.8,882.3c14.1-6.2,27.4-15.5,43.2-15.8c1.9,0,1.9-3,0-3c-16.5,0.4-30.2,9.8-44.8,16.2
			C153.5,880.5,155,883.1,156.8,882.3L156.8,882.3z"/>
	</g>
</g>
<g>
	<g>
		<path class="st1" d="M811.1,617.1c6.9,38.1-62.3,53.1-84.2,75C705,714,701.5,739.4,690,766c-8.1,19.6-39.2,54.3-64.6,36.9
			c-2.3-1.2-4.6-2.3-6.9-3.5c27.7-49.6-12.2-109.3,0.5-162.4c5.8-27.7,25.7-50.9,51.1-67.1c20.8-13.9,56-19.9,80.2-23.3
			c30-3.5,87.6,7,109.5,31.2c24.2,25.4,12.7,79.7-13.9,98.1c-5.8-24.2,5.8-47.3-5.8-72.7c-2.3,27.7-10.5,53.1-40.5,61.2
			c10.4-12.7,26.4-39.3,11.4-54.3c0,2.3,0,5.9,0,5.9"/>
		<path class="st1" d="M858.6,664.4c-1.2,40.4,1.2,84.3,10.4,123.5c-31.2,17.3-92.4,31.2-127,19.6c0-17.3,31.2-15,42.7-16.2
			c21.9-2.3,49.6-11.5,58.9-33.5c6.9-13.9-4.6-100.4,13.9-99.3"/>
		<path class="st1" d="M621.9,798.3c21.9,8.1,48.5,31.2,63.5,5.8c8.1-13.9,10.4-41.6-8.1-43.9c-18.5-3.5-38.1,25.4-49.6,35.8"/>
		<path class="st4" d="M595.6,896.7c-1.5-24.8,27.7-32.1,46.7-39.4c23.3-8.8,23.3-13.1,35-32.1c8.8-14.6,8.8-20.4,30.6-16
			c4.4,1.5,19,5.8,21.9,10.2c5.8,7.3,0,16,2.9,21.9c10.2,13.1,30.6,7.3,45.2,8.8c24.8,1.5,91.9,30.6,40.8,46.7
			c-32.1,8.8-81.7,0-115.2,0c-33.6,0-74.4-1.5-105-4.4"/>
		<g>
			<g>
				<path d="M845.3,670.9c0.2,24.1,8.8,47.9,3.9,72.1c-3.3,15.8-14.9,33.3-29.9,40.6c-9.2,4.5-20,6-30.1,7.3
					c-6.9,0.9-13.4,0.9-20.3,0.5c-5.6-0.3-11.2,0.1-16.3,2.4c-9.9,4.3-16.1,13.8-20.9,23.1c-2.3,4.4-3.8,8.8-4.9,13.6
					c-0.6,2.5-1.8,6.5-0.5,9c0.9,1.7,3.5,0.2,2.6-1.5c-1.5-2.8,1.6-10.1,2.4-12.9c1.7-5.4,4.9-10.7,8-15.4
					c3.2-4.9,7.2-9.2,12.3-12.2c6.3-3.6,13.7-3.3,20.6-2.9c11.5,0.7,23.2-1.1,34.4-3.7c7.2-1.7,14.3-4.2,20.4-8.4
					c13.3-9.3,22.7-26.1,25.5-41.7c4.2-23.3-4.2-46.5-4.4-69.8C848.3,669,845.3,669,845.3,670.9L845.3,670.9z"/>
			</g>
			<g>
				<path d="M677.7,678.6c-2.8,14.6,0.8,29.2,1,43.8c0.6-0.5,1.3-1,1.9-1.4c-8.3-1.4-15.9,2.8-16.1,12.1c-0.1,2.9,2.4,4.7,4.6,6
					c4.5,2.7,7.3,6.4,10.4,10.6c7.9,10.7,8.3,23.9,7.3,36.8c-1.1,14.8-5.2,29.3-6,44.1c-0.1,1.9,2.9,1.9,3,0
					c1.4-23.2,10.5-46.9,4.5-70.1c-2-7.7-7.5-14.7-12.7-20.6c-2-2.2-5.1-3.1-7.3-5.1c-2.2-2,0.5-7,1.8-8.6c2.2-2.8,6.5-2.8,9.7-2.2
					c0.9,0.2,1.9-0.4,1.9-1.4c-0.2-14.4-3.8-28.7-1.1-43C680.9,677.5,678,676.7,677.7,678.6L677.7,678.6z"/>
			</g>
			<g>
				<path d="M818,705.2c-0.3,4.7,0.4,9.3,0.7,13.9c0.1,2.2,0.1,4.5-0.9,6.4c-1.4,3-5.7,2.7-8.4,2.4c-1.9-0.2-1.9,2.8,0,3
					c5.4,0.5,10.4-0.6,11.9-6.3c1.7-6.2-0.7-13.1-0.3-19.4C821.2,703.3,818.2,703.3,818,705.2L818,705.2z"/>
			</g>
			<path d="M788.2,746.7c-7.1-1-19.2-6.1-28.3-4c-27.3,7.1-13.1,30.3,6.1,35.4c13.1,4,46.5,3,56.6-9.1
				C837.7,749.7,807.4,745.7,788.2,746.7"/>
			<g>
				<path d="M759.4,701.2c1.3-10.8,16.3-9.2,18.3,0.4c0.4,1.9,3.3,1.1,2.9-0.8c-2.7-13.2-22.5-13.5-24.2,0.4
					C756.2,703.1,759.2,703.1,759.4,701.2L759.4,701.2z"/>
			</g>
			<g>
				<path d="M832.1,697.6c0.7-1.8,1.8-3.7,3.7-4.3c2.3-0.7,3.9,1.9,4.6,3.6c0.8,1.8,3.4,0.2,2.6-1.5c-1.3-2.9-3.8-5.6-7.2-5.2
					c-3.4,0.4-5.5,3.5-6.6,6.5C828.5,698.6,831.4,699.4,832.1,697.6L832.1,697.6z"/>
			</g>
			<g>
				<path d="M675.1,729c1.4,0,3-0.4,4.4-0.2c1.9,0.4,2.1,3.7,2.3,5.1c0.5-0.6,1-1.3,1.4-1.9c-0.6-0.1-1.5-1.1-2-1.6
					c0.1,0.4,0.3,0.7,0.4,1.1c0.1-0.6,1.1-1.5,1.6-2c1.4-1.4-0.8-3.5-2.1-2.1c-1,1-2.8,2.9-2.4,4.5c0.4,1.6,3.1,2.9,4.5,3.1
					c1.1,0.1,1.6-1.1,1.4-1.9c-0.3-2.5-0.9-5.7-3.4-6.9c-1.9-0.9-4.1-0.3-6.1-0.3C673.1,726,673.1,729,675.1,729L675.1,729z"/>
			</g>
		</g>
		<g>
			<path d="M625.2,873c12,13.5,20.4,29.2,28.9,44.9c0.9,1.7,3.5,0.2,2.6-1.5c-8.7-16-17.3-31.8-29.4-45.5
				C626,869.4,623.9,871.5,625.2,873L625.2,873z"/>
		</g>
		<g>
			<path d="M667.5,845.2c16.9,20.7,56.4,35,70.9,4.1c0.8-1.7-1.8-3.3-2.6-1.5c-13.7,29.2-50.5,14.5-66.2-4.7
				C668.4,841.6,666.3,843.7,667.5,845.2L667.5,845.2z"/>
		</g>
		<g>
			<path d="M693.3,813.5c-0.2,7.1-2.7,14.3-4.5,21.1c-1.5,5.9-3.7,12.6-2.8,18.7c0.3,1.9,3.2,1.1,2.9-0.8c-1-6.2,1.9-13.6,3.4-19.6
				c1.6-6.3,3.8-12.8,3.9-19.4C696.3,811.6,693.3,811.6,693.3,813.5L693.3,813.5z"/>
		</g>
		<g>
			<path d="M706.4,815c1.3,14.2-10.2,26.7-8.8,40.8c0.2,1.9,3.2,1.9,3,0c-1.5-14,10-26.6,8.8-40.8
				C709.3,813.1,706.3,813.1,706.4,815L706.4,815z"/>
		</g>
		<g>
			<path d="M721.1,821.9c-4.6,12-7.2,25.5-7.3,38.3c0,1.9,3,1.9,3,0c0.1-12.6,2.7-25.8,7.2-37.5
				C724.7,820.9,721.8,820.1,721.1,821.9L721.1,821.9z"/>
		</g>
		<g>
			<path d="M794.2,859.5c8.8,15,12.4,33.4,23.6,47c1.2,1.5,3.3-0.6,2.1-2.1c-10.9-13.3-14.5-31.7-23.1-46.4
				C795.8,856.3,793.2,857.8,794.2,859.5L794.2,859.5z"/>
		</g>
		<g>
			<path class="st7" d="M757.1,746.4c13.3,3.4,20.7,17.8,25.2,29.6c0.7,1.8,3.6,1,2.9-0.8c-4.9-12.8-12.9-28-27.3-31.7
				C756.1,743,755.3,745.9,757.1,746.4L757.1,746.4z"/>
		</g>
	</g>
	<g>
		<path d="M657.5,767c-1.2,10.6-4.6,21.9-9.8,31.2c-0.9,1.7,1.7,3.2,2.6,1.5c5.5-9.9,8.9-21.6,10.2-32.8
			C660.7,765.1,657.7,765.1,657.5,767L657.5,767z"/>
	</g>
	<g>
		<path d="M670.5,775c-0.3,7.2-3.7,14.9-5.9,21.6c-0.6,1.8,2.3,2.6,2.9,0.8c2.3-7,5.7-14.9,6.1-22.4
			C673.6,773.1,670.6,773.1,670.5,775L670.5,775z"/>
	</g>
	<g>
		<path class="st6" d="M676.9,581.9c25.1-14,47.6-16.2,75.9-11.1c15.1,2.1,30.5,7.5,28.2,25.9c-1.9,16.4-17.3,32.5-31.3,39
			c-17.9,7-39.1,4.4-57,6c-4,0.5-8.7,0.4-11.8,2.2c-4.3,3.2-3.1,12.5-7.5,15.1c-11.1,7.5-8.1-10.4-5.5-16.8
			c-6.9-1.1-16.5,2.1-15.2-8.1c17.2-2.2,8.9-9.2,7.8-23.2c-0.5-9.3,1.4-20.3,10.1-25.5L676.9,581.9z"/>
		<g>
			<path class="st7" d="M775,574.5c-8.5-0.2-13.8,8.2-21.9,9.9c-6.4,1.3-5.2-6.6-1.5-3.1c1.4,1.3,3.5-0.8,2.1-2.1
				c-4.5-4.3-10.6-0.2-7.7,5.5c1.6,3.2,5.8,3,8.8,2.4c7.4-1.5,12.5-9.8,20.2-9.6C776.9,577.5,776.9,574.5,775,574.5L775,574.5z"/>
		</g>
		<g>
			<path class="st7" d="M750.4,587.1c-4.3,0.2-6.8,3.3-7.6,7.4c-0.6,3.6-0.1,9.2,2.6,11.9c3.2,3.3,7.1,1.6,10.1-1.1
				c1.2-1.1,1.2-3.2,1-4.7c-0.3-3.1-1.3-5.9,1.3-8.4c1.4-1.3-0.7-3.4-2.1-2.1c-1.8,1.7-2.6,3.6-2.7,6.1c0,1.1,0.2,2.3,0.4,3.4
				c0.4,2.5,0.3,3.7-2.2,5.2c-4.1,2.5-5.3-4.1-5.4-6.7c-0.1-3.4,0.3-7.8,4.7-8C752.3,590,752.3,587,750.4,587.1L750.4,587.1z"/>
		</g>
		<g>
			<path class="st7" d="M747.3,607.9c-2.6,3-10.9,8.2-14.3,3.4c-1.2-1.8-0.9-5.8-1.6-7.9c-1.8-5-6.3-10-12-8.8
				c-3,0.6-7.8,5.7-4.5,8.6c3.1,2.7,8.4,3.2,12,1.2c1.7-0.9,0.2-3.5-1.5-2.6c-1.9,1.1-4.3,0.9-6.3,0.4c-3-0.7-1.3-3.1,0.3-4.3
				c2.6-1.9,5,0.5,6.6,2.1c3.3,3.5,3,7.7,4.2,11.9c0.7,2.7,3.7,3.6,6.2,3.9c5.2,0.6,9.9-1.8,13.2-5.7
				C750.6,608.6,748.5,606.5,747.3,607.9L747.3,607.9z"/>
		</g>
		<g>
			<path class="st7" d="M717.2,604.4c-3.4,3.8-3,8.8-3,13.6c0,4.3-0.4,12.3-5.6,13.8c-3.2,1-8.8-10.7,1.4-4.6c1.7,1,3.2-1.6,1.5-2.6
				c-2.7-1.6-7.8-4.1-9.9-0.3c-1.6,2.9,0.4,6.8,2.5,8.9c3.2,3,7.1,1.4,9.5-1.6c2.3-2.9,3.1-6.3,3.5-9.9c0.4-4.8-1.3-11.2,2.2-15.2
				C720.6,605.1,718.5,603,717.2,604.4L717.2,604.4z"/>
		</g>
		<g>
			<path class="st7" d="M716.3,595.6c-6.1-2.1-13.3,0.8-18.4,4.1c-2.7,1.7-8,5.9-6.4,9.8c1.2,2.9,5,2.9,7.6,2.3
				c3.4-0.8,5.9-3.6,5.9-7.1c0-1.9-3-1.9-3,0c0,4.4-8.2,5.3-7.6,2.9c0.7-3.1,5.3-5.6,7.8-7c3.9-2.1,9.1-3.7,13.4-2.2
				C717.3,599.1,718.1,596.2,716.3,595.6L716.3,595.6z"/>
		</g>
		<g>
			<path class="st7" d="M702.1,599.6c-3.1-5.1-9.5-7.4-15.1-8.3c-4.3-0.6-11-0.1-13.6,4.1c-1.6,2.5-1.1,5.6,1.6,7.1
				c3.4,1.9,6.9-1.1,8.7-3.8c1.1-1.6-1.5-3.1-2.6-1.5c-1,1.5-3.4,4-5.3,2.2c-2-1.9,2.1-4.1,3.3-4.5c6.3-2.5,16.9,0.2,20.4,6.2
				C700.5,602.7,703.1,601.2,702.1,599.6L702.1,599.6z"/>
		</g>
		<g>
			<path class="st7" d="M691.8,593.5c6.2-2.9,12.8-5.2,16.4-11.4c1.3-2.2,3.1-6.7-0.7-7.6c-3.6-0.8-8.2,2.1-11.3,3.5
				c-3,1.4-8.1,5.2-11.6,4.8c0.4,0.8,0.9,1.5,1.3,2.3c1.3-2.5,2.8-5,4.4-7.3c1.1-1.6-1.5-3.1-2.6-1.5c-1.7,2.3-3.1,4.8-4.4,7.3
				c-0.6,1.1,0.2,2.1,1.3,2.3c2.2,0.2,4.8-1.3,6.7-2.2c3.7-1.7,7.3-3.6,11.1-5.1c1.3-0.5,2.7-1,4-1.1c1.1-0.1-0.3,2.1-0.9,3.1
				c-3,5.7-9.8,7.8-15.3,10.3C688.5,591.7,690,594.3,691.8,593.5L691.8,593.5z"/>
		</g>
		<g>
			<path class="st7" d="M702,584c4.3,5.6,11,8,17.8,6c0.8-0.2,1.2-1,1-1.8c-0.6-2.8-2.2-5.2-3.2-7.9c-1.1-2.9,3.6-2.4,4.9-1.9
				c1.8,0.8,1.7,3.4,1.7,5c0,5.4-0.5,9.8,3.3,14.3c4.2,5,8.5-2.7,9.6-6c1.8-5.4-1.7-9.4-5.9-12.2c-2.7-1.8-5.2-3.1-6.5-6.3
				c-1.6-3.9,1.5-7.2,5.3-4.2c1.1,0.9,1.5,2.8,1.8,4c1.2,4.3,1.7,9.7,6.5,11.4c4.6,1.6,6.8-2.5,7.7-6.2c0.5-2.3,0.8-6.5,3.8-6.8
				c4.9-0.5,4.5,9.2,4.8,12.3c0.2,1.9,3.2,1.9,3,0c-0.6-5.7-0.1-14.9-7.8-15.3c-5.7-0.3-6.2,7.4-7.3,11.2c-0.6,2.1-2.8,2.7-4.6,1.2
				c-1.4-1.2-1.9-3.5-2.4-5.2c-0.8-2.7-1.2-5.7-2.8-8.1c-3-4.3-10.9-4-11.5,1.9c-0.7,7.2,4.7,10,9.8,13.5c1.7,1.2,3.1,2.9,3.3,5
				c0.3,2.4-2.9,10.7-5.8,6.4c-2.1-3.2-1.9-6.5-1.6-10.1c0.4-5.7-3-11.2-9.6-9.2c-6.9,2.1-0.5,9.7,0.3,13.8c0.3-0.6,0.7-1.2,1-1.8
				c-5.4,1.6-11-0.1-14.5-4.6C703.5,580.9,700.8,582.4,702,584L702,584z"/>
		</g>
		<g>
			<path class="st7" d="M781.2,588.6c-4.6-1.5-30-4.8-28.2,4.9c1.2,6.6,8.3,7.1,13.6,7.5c4.7,0.4,9.1,1.8,6.5,7.4
				c-1.5,3.3-7.4-1.7-9.1-2.8c-4.3-2.9-10-4.9-11.8,1.7c-1.8,6.3,8.4,11.6,11.7,15.4c2.1,2.3,1.8,5.6-2,5.6c-2.4,0-4.8-1-7-1.7
				c-3.9-1.2-7.5-1.9-11.6-1.9c-2.8,0-6.3,0-7.9,2.8c-1.4,2.5-1.1,4.5,1.2,6.2c1.3,1,3.1,1.4,4.7,2c1.9,0.7,2.9,2.3,3.9,3.7
				c0-0.3,0-0.5,0-0.8c-1,0.5-2,1-3.1,1.4c-1.8,0.8-3.9,0.7-5.8,0.7c-4.2-0.1-6.9-2.3-8.1-6.1c-1.8-5.5,0-13.1,5-16.4
				c7.6-5.1,9.2,3.9,12.2,8.7c1,1.6,3.6,0.1,2.6-1.5c-2.1-3.3-3.1-7.3-5.7-10.1c-2.6-2.8-6.7-1.4-9.7-0.1c-7.3,3.2-9,13.4-7.2,20.2
				c2.2,8.6,12.5,9.9,19.6,6.7c1.8-0.8,4.4-1.8,3.1-4.2c-1.3-2.4-3.3-4.1-5.8-5.1c-1.7-0.7-6.1-1.3-3.7-4.4c1-1.3,5.6-0.7,7-0.6
				c4.5,0.1,8.7,1.9,13,3c5.9,1.5,12.6-1.8,8.8-8.6c-1.7-3-5-5.2-7.5-7.4c-1.5-1.3-2.9-2.7-4-4.3c-1.4-2.1-0.1-5.2,2.6-4.5
				c4.4,1.2,10.1,9,15.2,6.3c3.4-1.8,4.9-8.2,2.1-11.1c-3.8-3.9-10.4-2.7-15.2-3.7c-1.6-0.3-6.1-3.7-3.7-5.5
				c2.1-1.6,5.6-1.6,8.1-1.8c5.1-0.3,10.8-0.1,15.7,1.4C782.3,592,783.1,589.1,781.2,588.6L781.2,588.6z"/>
		</g>
		<g>
			<path class="st7" d="M726.7,626.7c-3.1-2.1-6.1-3.2-9.4-0.9c-2.5,1.7-4.5,5.2-4.8,8.2c-0.2,2.2,1.5,8.3-1.2,9.3
				c-5.3,2.1-5.5-4.7-6-7.7c-0.3-1.8-0.8-3.9-2.7-4.6c-1.9-0.7-5.2-0.2-6.4,1.5c-1.3,1.8-2.1,4-3.2,5.9c-0.8,1.4-1.6,2.8-2.7,4.1
				c-1.7,1.9-2-0.8-2.3-2.3c-2.2-8.6,8.8-11.4,13-17c3.7-4.9,2.3-11.4-4-12.8c-6.5-1.4-16,2.2-19.7,7.8c-1.5,2.2-0.7,4.9,1.2,6.5
				c2.9,2.5,7.6,1.7,11,1c-0.6-0.6-1.2-1.2-1.8-1.8c-2.9,8.2-16.8-2.7-18.9,7.5c-1.3,6.2,12.5,4.9,15.1,8c0.1-0.8,0.2-1.6,0.3-2.4
				c-4.4,2.3-9.2,2.6-13.9,3.7c-1.9,0.5-1.1,3.4,0.8,2.9c5-1.2,10-1.6,14.6-4c0.9-0.5,0.9-1.7,0.3-2.4c-1.6-1.9-4.4-2.4-6.7-2.9
				c-1.8-0.4-11.7-2.6-5.2-4.7c3.2-1,7.2,1,10.6,0.6c3.2-0.3,4.9-2.7,5.9-5.5c0.4-1.1-0.8-2.1-1.8-1.8c-2.4,0.5-4.7,0.8-7.1,0.2
				c-5-1.2,0.7-5.7,2.4-6.8c3.4-2.1,7.8-3.1,11.7-2.9c5.4,0.2,5.2,5.7,2.5,8.8c-2,2.3-4.9,4-7.3,5.9c-4.5,3.6-6.8,7.3-5.7,13.1
				c0.7,3.7,3.3,7.1,6.9,4.1c3.2-2.7,4.5-7.3,6.6-10.8c0.8-1.4,3.2-0.4,3.6,0.9c0.4,1.2,0.4,2.6,0.6,3.9c0.3,2.1,0.8,4,2.2,5.6
				c2.4,2.8,8.7,2.7,10.1-1c0.9-2.3,0.6-4.9,0.5-7.3c-0.1-1.7-0.1-2.9,0.8-4.5c2.2-4,4.7-5.2,8.8-2.4
				C726.7,630.4,728.2,627.8,726.7,626.7L726.7,626.7z"/>
		</g>
		<g>
			<path class="st7" d="M671.3,597.3c-4,1.4-7.9,3.5-10.5,6.9c-1.6,2.2-1,6.2,1.3,7.7c6.6,4.3,15.3-2.9,22.2-2.6
				c-0.5-0.5-1-1-1.5-1.5c0.2,4.4-7.1,7.2-10.3,8.7c-3.9,1.8-7.9,3.3-11.8,5.1c-1.8,0.8-0.2,3.4,1.5,2.6c5.3-2.5,10.8-4.3,15.9-7.1
				c3.4-1.9,7.9-4.8,7.8-9.2c0-0.9-0.7-1.5-1.5-1.5c-4.7-0.3-9.6,2.2-14.2,3.2c-2.5,0.6-6.8,1.4-7.2-2.1c-0.4-3.6,6.6-6.3,9.2-7.3
				C673.9,599.5,673.1,596.6,671.3,597.3L671.3,597.3z"/>
		</g>
	</g>
	<g>
		<path d="M646.2,564.3c6.3,3.2,11.7,7.8,18,11c1.7,0.9,3.2-1.7,1.5-2.6c-6.3-3.2-11.7-7.8-18-11C646,560.8,644.5,563.4,646.2,564.3
			L646.2,564.3z"/>
	</g>
	<g>
		<path d="M664.2,554.3c4.3,3.3,8.2,7.4,13,10c1.7,0.9,3.2-1.7,1.5-2.6c-4.8-2.6-8.7-6.7-13-10C664.2,550.5,662.7,553.1,664.2,554.3
			L664.2,554.3z"/>
	</g>
	<g>
		<path d="M683.9,538.1c1.6,2.1,2.3,5.9,3.2,8.4c1.1,3.1,2.2,6.3,3.6,9.3c0.8,1.7,3.4,0.2,2.6-1.5c-1.7-3.5-2.8-7.3-4.1-11
			c-0.8-2.4-1.5-5.3-3.1-7.3C684.9,534.4,682.8,536.6,683.9,538.1L683.9,538.1z"/>
	</g>
</g>
</svg>
