<?xml version="1.0" encoding="utf-8"?>
<!-- Generator: Adobe Illustrator 22.1.0, SVG Export Plug-In . SVG Version: 6.00 Build 0)  -->
<svg version="1.1" id="Layer_1" xmlns="http://www.w3.org/2000/svg" xmlns:xlink="http://www.w3.org/1999/xlink" x="0px" y="0px"
	 viewBox="0 0 1400 980" style="enable-background:new 0 0 1400 980;" xml:space="preserve">
<style type="text/css">
	.st0{fill:#282828;}
	.st1{fill:#FFFFFF;}
</style>
<g id="XMLID_723_">
	<g id="XMLID_699_">
		<path id="XMLID_916_" class="st0" d="M306.5,348.1c-20.1,0-40.1-7.6-55.4-22.9c-30.5-30.5-30.5-80.2,0-110.8
			c30.5-30.5,80.2-30.5,110.8,0c14.8,14.8,22.9,34.5,22.9,55.4s-8.1,40.6-22.9,55.4l0,0l0,0C346.6,340.5,326.6,348.1,306.5,348.1z
			 M306.5,199.7c-18,0-35.9,6.8-49.6,20.5c-27.4,27.4-27.4,71.9,0,99.2c27.4,27.4,71.9,27.4,99.2,0l0,0
			c13.3-13.3,20.6-30.9,20.6-49.6s-7.3-36.4-20.6-49.6C342.5,206.5,324.5,199.7,306.5,199.7z"/>
	</g>
	<g id="XMLID_716_">
		<path id="XMLID_804_" class="st1" d="M345.9,329.9l-99.5-99.5c-5.7-5.7-5.7-15,0-20.7l0,0c5.7-5.7,15-5.7,20.7,0l99.5,99.5
			c5.7,5.7,5.7,15,0,20.7l0,0C360.9,335.6,351.6,335.6,345.9,329.9z"/>
	</g>
	<g id="XMLID_715_">
		<path id="XMLID_913_" class="st0" d="M356.3,338.3c-4.8,0-9.6-1.8-13.2-5.5l-99.5-99.5c-7.3-7.3-7.3-19.2,0-26.5s19.2-7.3,26.5,0
			l99.5,99.5c7.3,7.3,7.3,19.2,0,26.5C365.8,336.4,361,338.3,356.3,338.3z M256.8,209.6c-2.7,0-5.4,1-7.5,3.1
			c-4.1,4.1-4.1,10.8,0,14.9l99.5,99.5c4.1,4.1,10.8,4.1,14.9,0s4.1-10.8,0-14.9l-99.5-99.5C262.2,210.6,259.5,209.6,256.8,209.6z"
			/>
	</g>
	<g id="XMLID_717_">
		<path id="XMLID_912_" class="st0" d="M367.4,228.1l-5.8-5.8l4.1-4.1c2.1-2.1,2.1-5.5,0-7.6s-5.5-2.1-7.6,0l-4.1,4.1l-5.8-5.8
			l4.1-4.1c5.3-5.3,13.9-5.3,19.1,0c5.3,5.3,5.3,13.9,0,19.1L367.4,228.1z"/>
	</g>
	<g id="XMLID_720_">
		<path id="XMLID_911_" class="st0" d="M173.1,436.5c-8,0-16.1-3.5-22.9-10.4c-11.4-11.4-13.6-26.2-5.6-38.5
			c5.1-8,16.8-14,30.3-20.9c8.7-4.5,17.7-9.1,25.8-14.7c19.8-13.6,40.9-40.9,41.1-41.2l6.5,5c-0.9,1.2-22.1,28.5-42.9,42.9
			c-8.5,5.9-18.2,10.9-26.7,15.2c-11.9,6.1-23.2,11.9-27.2,18.1c-5.9,9.1-4.2,19.7,4.5,28.4c8.7,8.7,19.3,10.4,28.4,4.5
			c6.1-4,11.9-15.2,18.1-27.2c4.4-8.5,9.4-18.2,15.2-26.7c14.4-20.8,41.7-42.1,42.9-42.9l5,6.5c-0.3,0.2-27.5,21.4-41.2,41.1
			c-5.6,8.1-10.2,17.1-14.7,25.8c-6.9,13.5-12.9,25.2-20.9,30.3C183.8,435,178.4,436.5,173.1,436.5z"/>
	</g>
</g>
<g id="XMLID_725_">
	<g id="XMLID_724_">
		<path id="XMLID_908_" class="st0" d="M661.3,428.4H440.7c-2.3,0-4.1-1.8-4.1-4.1V203.7c0-2.3,1.8-4.1,4.1-4.1h220.5
			c2.3,0,4.1,1.8,4.1,4.1v220.5C665.3,426.5,663.5,428.4,661.3,428.4z M444.8,420.2h212.4V207.8H444.8V420.2z"/>
	</g>
	<g id="XMLID_718_">
		<path id="XMLID_905_" class="st0" d="M644.3,411.4H457.7c-2.3,0-4.1-1.8-4.1-4.1V220.7c0-2.3,1.8-4.1,4.1-4.1h186.6
			c2.3,0,4.1,1.8,4.1,4.1v186.6C648.4,409.6,646.5,411.4,644.3,411.4z M461.8,403.2h178.4V224.8H461.8V403.2z"/>
	</g>
	<g id="XMLID_722_">
		<path id="XMLID_902_" class="st0" d="M619,387.6h-49.7c-2.3,0-4.1-1.8-4.1-4.1v-49.7c0-2.3,1.8-4.1,4.1-4.1H619
			c2.3,0,4.1,1.8,4.1,4.1v49.7C623.1,385.8,621.3,387.6,619,387.6z M573.4,379.5H615v-41.6h-41.6V379.5z"/>
	</g>
	<g id="XMLID_719_">
		<path id="XMLID_899_" class="st0" d="M532,306.4c-0.8,0-1.7-0.3-2.4-0.8l-16.4-11.9l-16.4,11.9c-1.4,1-3.4,1-4.8,0s-2-2.9-1.5-4.6
			l6.3-19.3l-16.4-11.9c-1.4-1-2-2.9-1.5-4.6s2.1-2.8,3.9-2.8H503l6.3-19.3c0.5-1.7,2.1-2.8,3.9-2.8c1.8,0,3.3,1.1,3.9,2.8l6.3,19.3
			h20.3c1.8,0,3.3,1.1,3.9,2.8c0.5,1.7-0.1,3.5-1.5,4.6l-16.4,11.9L536,301c0.5,1.7-0.1,3.5-1.5,4.6
			C533.6,306.2,532.8,306.4,532,306.4z M513.2,284.6c0.8,0,1.7,0.3,2.4,0.8l8.6,6.3l-3.3-10.2c-0.5-1.7,0.1-3.5,1.5-4.6l8.6-6.3
			h-10.7c-1.8,0-3.3-1.1-3.9-2.8l-3.3-10.2l-3.3,10.2c-0.5,1.7-2.1,2.8-3.9,2.8h-10.7l8.6,6.3c1.4,1,2,2.9,1.5,4.6l-3.3,10.2
			l8.6-6.3C511.5,284.9,512.3,284.6,513.2,284.6z"/>
	</g>
	<g id="XMLID_721_">
		<path id="XMLID_896_" class="st0" d="M594.2,302.6c-16.1,0-29.2-13.1-29.2-29.2s13.1-29.2,29.2-29.2s29.2,13.1,29.2,29.2
			C623.3,289.5,610.2,302.6,594.2,302.6z M594.2,252.4c-11.6,0-21,9.4-21,21s9.4,21,21,21s21-9.4,21-21S605.7,252.4,594.2,252.4z"/>
	</g>
	<g id="XMLID_726_">
		<path id="XMLID_893_" class="st0" d="M515.3,387.6c-16.6,0-30.2-13.5-30.2-30.2c0-14.4,10.2-26.8,24.4-29.6
			c1.6-0.3,3.2,0.4,4.2,1.7c0.9,1.4,0.9,3.1,0,4.5c-2.3,3.6-3.6,7.7-3.6,12c0,12.1,9.9,22,22,22c1.4,0,2.8-0.1,4.2-0.4
			c1.6-0.3,3.2,0.4,4.2,1.7c0.9,1.4,0.9,3.1,0,4.5C535,382.5,525.5,387.6,515.3,387.6z M502.7,339.4c-5.8,4-9.4,10.7-9.4,18.1
			c0,12.1,9.9,22,22,22c4.4,0,8.6-1.3,12.1-3.6C513,373.5,502,361.1,502,346C502,343.8,502.2,341.6,502.7,339.4z"/>
	</g>
</g>
<g id="XMLID_730_">
	<g id="XMLID_729_">
		<path id="XMLID_890_" class="st0" d="M848.2,270.5c-15.3,0-27.7-12.4-27.7-27.7s12.4-27.7,27.7-27.7s27.7,12.4,27.7,27.7
			C875.8,258.1,863.4,270.5,848.2,270.5z M848.2,223.3c-10.8,0-19.5,8.8-19.5,19.5c0,10.8,8.8,19.5,19.5,19.5
			c10.8,0,19.5-8.8,19.5-19.5C867.7,232,858.9,223.3,848.2,223.3z"/>
	</g>
	<g id="XMLID_728_">
		<path id="XMLID_887_" class="st0" d="M848.2,259.3c-9.1,0-16.5-7.4-16.5-16.5s7.4-16.5,16.5-16.5s16.5,7.4,16.5,16.5
			C864.6,251.9,857.2,259.3,848.2,259.3z M848.2,234.5c-4.6,0-8.3,3.7-8.3,8.3s3.7,8.3,8.3,8.3s8.3-3.7,8.3-8.3
			S852.7,234.5,848.2,234.5z"/>
	</g>
	<g id="XMLID_735_">
		<path id="XMLID_884_" class="st0" d="M768.1,409.2c-9.6,0-18.9-5-24-13.8c-7.6-13.2-3.1-30.2,10.1-37.8
			c13.2-7.6,30.2-3.1,37.8,10.1s3.1,30.2-10.1,37.8C777.6,408,772.8,409.2,768.1,409.2z M768.1,361.9c-3.3,0-6.7,0.8-9.7,2.6
			c-9.3,5.4-12.5,17.4-7.1,26.7c5.4,9.3,17.4,12.5,26.7,7.1s12.5-17.4,7.1-26.7C781.4,365.4,774.8,361.9,768.1,361.9z"/>
	</g>
	<g id="XMLID_734_">
		<path id="XMLID_881_" class="st0" d="M768.1,397.9c-5.7,0-11.3-3-14.3-8.2c-4.5-7.9-1.8-18,6-22.5l0,0c3.8-2.2,8.3-2.8,12.5-1.6
			c4.3,1.1,7.8,3.9,10,7.7c2.2,3.8,2.8,8.3,1.6,12.5c-1.1,4.3-3.9,7.8-7.7,10C773.7,397.2,770.9,397.9,768.1,397.9z M763.9,374.3
			c-4,2.3-5.3,7.4-3,11.4s7.4,5.3,11.4,3s5.3-7.4,3-11.4c-1.1-1.9-2.9-3.3-5.1-3.9C768.1,372.9,765.9,373.2,763.9,374.3L763.9,374.3
			z"/>
	</g>
	<g id="XMLID_739_">
		<path id="XMLID_878_" class="st0" d="M928.2,409.2c-4.7,0-9.4-1.2-13.8-3.7l0,0c-13.2-7.6-17.8-24.6-10.1-37.8
			c7.6-13.2,24.6-17.8,37.8-10.1c13.2,7.6,17.8,24.6,10.1,37.8C947.1,404.2,937.7,409.2,928.2,409.2z M918.5,398.4
			c9.3,5.4,21.3,2.2,26.7-7.1c5.4-9.3,2.2-21.3-7.1-26.7c-9.3-5.4-21.3-2.2-26.7,7.1C905.9,381,909.1,393,918.5,398.4L918.5,398.4z"
			/>
	</g>
	<g id="XMLID_738_">
		<path id="XMLID_875_" class="st0" d="M928.2,397.9c-2.8,0-5.6-0.7-8.2-2.2l0,0c-7.9-4.5-10.6-14.6-6-22.5c2.2-3.8,5.8-6.5,10-7.7
			c4.3-1.1,8.7-0.6,12.5,1.6c7.9,4.5,10.6,14.6,6,22.5C939.4,395,933.9,397.9,928.2,397.9z M924.1,388.7c1.9,1.1,4.2,1.4,6.3,0.8
			s3.9-2,5.1-3.9c2.3-4,0.9-9.1-3-11.4c-1.9-1.1-4.2-1.4-6.3-0.8s-3.9,2-5.1,3.9C918.7,381.3,920.1,386.4,924.1,388.7L924.1,388.7z"
			/>
	</g>
	<g id="XMLID_731_">
		<path id="XMLID_872_" class="st0" d="M768.2,427.9c-4.3,0-8.7-0.6-13-1.8c-12.2-3.5-22.3-11.7-28.2-23
			c-11.4-21.6-3.5-49.3,17.6-61.7c9.6-5.6,21-7.6,32-5.6c8,1.5,16.5,0,23.9-4.3l2.6-1.5c11.1-6.4,17.9-18.3,17.9-31.1v-3
			c0-8.5-3-16.7-8.5-23.2c-7.1-8.4-10.9-19-10.9-29.9c0-12.7,5.1-24.6,14.2-33.5c9.2-8.8,21.3-13.4,34-12.9
			c24.5,0.9,44.5,21.6,44.6,46.1c0.1,10.9-3.7,21.5-10.7,29.9c-5.6,6.8-8.7,15.1-8.7,23.5v3c0,12.8,6.9,24.7,17.9,31.1l2.6,1.5
			c7.4,4.3,15.9,5.8,23.9,4.3c11-2.1,22.3-0.1,32,5.6l0,0c21.1,12.4,29,40.1,17.6,61.7c-6,11.3-16,19.4-28.2,23
			c-12.2,3.5-25.1,2-36.1-4.4c-9.2-5.3-16.4-13.7-20.2-23.7c-3.3-8.6-9.2-15.7-16.7-20.1l-1-0.6c-11.7-6.8-26.2-6.8-37.9,0l-1,0.6
			c-7.5,4.3-13.5,11.5-16.7,20.1c-3.8,9.9-10.9,18.3-20.2,23.7C784.1,425.8,776.2,427.9,768.2,427.9z M768.1,343.2
			c-6.7,0-13.4,1.8-19.3,5.2c-17.4,10.2-23.9,33-14.5,50.9c4.9,9.3,13.2,16,23.3,18.9s20.7,1.6,29.7-3.6
			c7.6-4.4,13.5-11.3,16.6-19.5c3.9-10.3,11.1-18.9,20.3-24.2l1-0.6c14.2-8.2,31.9-8.2,46.1,0l1,0.6c9.2,5.3,16.4,13.9,20.3,24.2
			c3.1,8.2,9,15.1,16.6,19.5c9.1,5.2,19.7,6.5,29.7,3.6c10.1-2.9,18.3-9.6,23.3-18.9c9.4-17.8,2.9-40.7-14.5-50.9l0,0
			c-8-4.7-17.3-6.3-26.4-4.6c-9.9,1.9-20.4,0-29.5-5.3l-2.6-1.5c-13.6-7.8-22-22.5-22-38.2v-3c0-10.3,3.8-20.4,10.6-28.7
			c5.7-6.9,8.9-15.7,8.8-24.7c-0.1-20.2-16.6-37.2-36.8-38c-10.5-0.4-20.5,3.4-28,10.7c-7.6,7.3-11.7,17.1-11.7,27.6
			c0,9,3.2,17.8,9,24.7c6.7,7.9,10.4,18,10.4,28.4v3c0,15.7-8.4,30.3-22,38.2l-2.6,1.5c-9.1,5.3-19.6,7.1-29.5,5.3
			C772.8,343.4,770.4,343.2,768.1,343.2z"/>
	</g>
	<g id="XMLID_727_">
		<path id="XMLID_869_" class="st0" d="M848.2,354.2c-11.2,0-20.4-9.1-20.4-20.4s9.1-20.4,20.4-20.4c11.2,0,20.4,9.1,20.4,20.4
			S859.4,354.2,848.2,354.2z M848.2,321.6c-6.7,0-12.2,5.5-12.2,12.2s5.5,12.2,12.2,12.2s12.2-5.5,12.2-12.2
			S854.9,321.6,848.2,321.6z"/>
	</g>
</g>
<g id="XMLID_748_">
	<g id="XMLID_732_">
		<path id="XMLID_866_" class="st0" d="M1215.1,394.4c-1,0-2.1-0.4-2.9-1.2l-167.1-167.1c-0.8-0.8-1.2-1.8-1.2-2.9
			c0-1.1,0.4-2.1,1.2-2.9l24.6-24.6c1.6-1.6,4.2-1.6,5.8,0l167.1,167.1c0.8,0.8,1.2,1.8,1.2,2.9s-0.4,2.1-1.2,2.9l-24.6,24.6
			C1217.2,394,1216.1,394.4,1215.1,394.4z M1053.8,223.2l161.3,161.3l18.8-18.8l-161.3-161.3L1053.8,223.2z"/>
	</g>
	<g id="XMLID_746_">
		<path id="XMLID_863_" class="st0" d="M1189.3,395.2c-41.2,0-82.9-6.5-124.3-19.3c-1.2-0.4-2.2-1.3-2.6-2.5
			c-17-47.3-23.2-98-18.5-150.6c0.1-1.6,1.2-2.9,2.7-3.5c1.5-0.5,3.2-0.2,4.3,1L1218,387.4c1.1,1.1,1.5,2.8,0.9,4.3
			s-1.9,2.5-3.5,2.6C1206.7,395,1198,395.2,1189.3,395.2z M1069.4,368.8c45.4,13.9,91.3,19.9,136.4,18l-154.4-154.4
			C1048.2,279.9,1054.2,325.7,1069.4,368.8z"/>
	</g>
	<g id="XMLID_747_">
		<path id="XMLID_860_" class="st0" d="M1161.9,292c-1,0-2.1-0.4-2.9-1.2l-11.5-11.5c-1.6-1.6-1.6-4.2,0-5.8l45.7-45.7
			c1.6-1.6,4.2-1.6,5.8,0l11.5,11.5c0.8,0.8,1.2,1.8,1.2,2.9c0,1.1-0.4,2.1-1.2,2.9l-45.7,45.7C1163.9,291.6,1162.9,292,1161.9,292z
			 M1156.1,276.4l5.7,5.7l40-40l-5.7-5.7L1156.1,276.4z"/>
	</g>
	<g id="XMLID_750_">
		<path id="XMLID_859_" class="st0" d="M1040.9,409.6c-3.1,0-6.2-1.2-8.6-3.6c-4.8-4.8-4.8-12.5,0-17.3l29.8-29.8l5.8,5.8
			l-29.8,29.8c-0.8,0.8-1.2,1.8-1.2,2.9s0.4,2.1,1.2,2.9c1.5,1.5,4.2,1.5,5.7,0l29.8-29.8l5.8,5.8l-29.8,29.8
			C1047.1,408.4,1044,409.6,1040.9,409.6z"/>
	</g>
</g>
<g id="XMLID_760_">
	<g id="XMLID_749_">
		<path id="XMLID_856_" class="st0" d="M350.6,788.5H195c-13.7,0-24.8-11.1-24.8-24.8V536.9c0-13.7,11.1-24.8,24.8-24.8h155.7
			c13.7,0,24.8,11.1,24.8,24.8v226.7C375.5,777.3,364.3,788.5,350.6,788.5z M195,520.2c-9.2,0-16.7,7.5-16.7,16.7v226.7
			c0,9.2,7.5,16.7,16.7,16.7h155.7c9.2,0,16.7-7.5,16.7-16.7V536.9c0-9.2-7.5-16.7-16.7-16.7H195z"/>
	</g>
	<g id="XMLID_751_">
		<path id="XMLID_853_" class="st0" d="M348.4,637H197.2c-2.3,0-4.1-1.8-4.1-4.1V542c0-2.3,1.8-4.1,4.1-4.1h151.1
			c2.3,0,4.1,1.8,4.1,4.1v90.9C352.4,635.1,350.6,637,348.4,637z M201.3,628.8h143V546h-143L201.3,628.8L201.3,628.8z"/>
	</g>
	<g id="XMLID_755_">
		<path id="XMLID_850_" class="st0" d="M238.3,747.9h-18.2c-2.3,0-4.1-1.8-4.1-4.1V725h-18.8c-2.3,0-4.1-1.8-4.1-4.1v-18.2
			c0-2.3,1.8-4.1,4.1-4.1H216v-18.8c0-2.3,1.8-4.1,4.1-4.1h18.2c2.3,0,4.1,1.8,4.1,4.1v18.8h18.8c2.3,0,4.1,1.8,4.1,4.1v18.2
			c0,2.3-1.8,4.1-4.1,4.1h-18.8v18.8C242.4,746,240.5,747.9,238.3,747.9z M224.2,739.7h10v-18.8c0-2.3,1.8-4.1,4.1-4.1h18.8v-10
			h-18.8c-2.3,0-4.1-1.8-4.1-4.1V684h-10v18.8c0,2.3-1.8,4.1-4.1,4.1h-18.8v10h18.8c2.3,0,4.1,1.8,4.1,4.1V739.7z"/>
	</g>
	<g id="XMLID_756_">
		<g id="XMLID_753_">
			<g id="XMLID_752_">
				<path id="XMLID_847_" class="st0" d="M316.1,701.4c-7.1,0-13-5.8-13-13c0-7.1,5.8-13,13-13c7.1,0,13,5.8,13,13
					C329.1,695.6,323.3,701.4,316.1,701.4z M316.1,683.7c-2.6,0-4.8,2.2-4.8,4.8s2.2,4.8,4.8,4.8c2.6,0,4.8-2.1,4.8-4.8
					S318.8,683.7,316.1,683.7z"/>
			</g>
			<g id="XMLID_754_">
				<path id="XMLID_844_" class="st0" d="M292.7,724.8c-7.1,0-13-5.8-13-13c0-7.1,5.8-13,13-13c7.1,0,13,5.8,13,13
					S299.9,724.8,292.7,724.8z M292.7,707c-2.6,0-4.8,2.2-4.8,4.8s2.2,4.8,4.8,4.8c2.6,0,4.8-2.1,4.8-4.8
					C297.5,709.2,295.4,707,292.7,707z"/>
			</g>
		</g>
		<g id="XMLID_757_">
			<g id="XMLID_759_">
				<path id="XMLID_841_" class="st0" d="M339.5,724.8c-7.1,0-13-5.8-13-13c0-7.1,5.8-13,13-13c7.1,0,13,5.8,13,13
					C352.4,719,346.6,724.8,339.5,724.8z M339.5,707c-2.6,0-4.8,2.2-4.8,4.8s2.1,4.8,4.8,4.8c2.6,0,4.8-2.1,4.8-4.8
					C344.3,709.2,342.1,707,339.5,707z"/>
			</g>
			<g id="XMLID_758_">
				<path id="XMLID_838_" class="st0" d="M316.1,748.2c-7.1,0-13-5.8-13-13c0-7.1,5.8-13,13-13c7.1,0,13,5.8,13,13
					C329.1,742.3,323.3,748.2,316.1,748.2z M316.1,730.4c-2.6,0-4.8,2.1-4.8,4.8c0,2.6,2.2,4.8,4.8,4.8c2.6,0,4.8-2.1,4.8-4.8
					C320.9,732.6,318.8,730.4,316.1,730.4z"/>
			</g>
		</g>
	</g>
</g>
<g id="XMLID_764_">
	<g id="XMLID_761_">
		<path id="XMLID_835_" class="st0" d="M562.9,711.7c-0.3,0-0.5,0-0.8-0.1c-1.4-0.3-2.5-1.2-3-2.5l-58-142.6
			c-0.7-1.8-0.1-3.8,1.5-4.9l97.5-66.5c1.9-1.3,4.4-0.8,5.7,1.1l66.5,97.5c1.1,1.6,0.9,3.7-0.4,5.1l-106,111.6
			C565.1,711.2,564,711.7,562.9,711.7z M509.9,566.5l54.4,133.7l99.4-104.7l-62.4-91.4L509.9,566.5z"/>
	</g>
	<g id="XMLID_763_">
		<path id="XMLID_834_" class="st0" d="M667.1,599.6c-50.9-25.1-105.3-35.4-161.8-30.5l-0.7-8.1c58-5,113.9,5.6,166.1,31.3
			L667.1,599.6z"/>
	</g>
	<g id="XMLID_762_">
		<path id="XMLID_833_" class="st0" d="M569.9,785.3c-1.5-6.9-4.9-14.8-10.5-24c-15.7-25.9-3-50.6-0.4-55.1l39.3-208.4l8,1.5
			l-39.5,209.1c-0.1,0.5-0.3,1-0.6,1.4c-0.6,0.9-14.4,23.5,0,47.3c6.1,10,9.8,18.7,11.5,26.5L569.9,785.3z"/>
	</g>
	<g id="XMLID_765_">
		<path id="XMLID_832_" class="st0" d="M434.3,769.8L432,762c90.9-26.9,150.5-181.4,151.1-183l7.6,2.9c-0.2,0.4-15.4,40.3-42,83
			C512.7,722.7,474.2,758,434.3,769.8z"/>
	</g>
</g>
<g id="XMLID_467_">
	<g id="XMLID_198_">
		<path id="XMLID_829_" class="st0" d="M848.2,788.4c-31,0-62.1-11.8-85.7-35.4c-47.2-47.2-47.2-124.1,0-171.4
			c47.2-47.2,124.1-47.2,171.4,0c22.9,22.9,35.5,53.3,35.5,85.7s-12.6,62.8-35.5,85.7C910.2,776.6,879.2,788.4,848.2,788.4z
			 M848.2,554.4c-28.9,0-57.9,11-79.9,33c-44.1,44.1-44.1,115.8,0,159.8c44.1,44.1,115.8,44.1,159.8,0
			c21.3-21.3,33.1-49.7,33.1-79.9s-11.8-58.6-33.1-79.9C906,565.4,877.1,554.4,848.2,554.4z"/>
	</g>
	<g id="XMLID_468_">
		<path id="XMLID_826_" class="st0" d="M820.3,752.2c-6.7,0-13.8-2.3-19.8-7.1c-12.9-10.1-16.2-27.5-7.4-38.6
			c8.8-11.2,26.4-12,39.3-1.8c6.1,4.8,10.3,11.4,11.8,18.6c1.5,7.4,0,14.5-4.4,20C835.1,749.2,827.9,752.2,820.3,752.2z
			 M812.5,705.7c-5.2,0-9.9,2-13,5.8c-6,7.6-3.3,19.8,6.1,27.2c9.3,7.4,21.8,7.2,27.8-0.5c2.8-3.6,3.8-8.3,2.8-13.3
			c-1.1-5.3-4.2-10.2-8.9-13.8C822.7,707.5,817.4,705.7,812.5,705.7z"/>
	</g>
	<g id="XMLID_474_">
		<path id="XMLID_825_" class="st0" d="M894,741.5c-15.1,0-33.2-2.4-54.6-8.7l2.3-7.8c40.8,12.1,68.3,8.8,84.2,3.9
			c17.1-5.3,24.7-13.5,24.8-13.5l6,5.5C955.8,721.8,937.4,741.5,894,741.5z"/>
	</g>
	<g id="XMLID_475_">
		<path id="XMLID_824_" class="st0" d="M806.1,703c-0.4-1.1-8.9-27.2-10.7-59.3c-2.4-43.1,9.1-76.1,33-95.5l5.1,6.4
			c-53.2,42.8-20,144.8-19.7,145.8L806.1,703z"/>
	</g>
	<g id="XMLID_476_">
		<path id="XMLID_823_" class="st0" d="M791.5,719.4c-0.6-0.2-15.8-5.8-31-17.9c-20.5-16.3-31.2-36.6-31-58.7l8.2,0.1
			c-0.6,47.4,56.1,68.6,56.6,68.8L791.5,719.4z"/>
	</g>
	<g id="XMLID_477_">
		
			<rect id="XMLID_822_" x="771.5" y="745" transform="matrix(0.8368 -0.5475 0.5475 0.8368 -281.5783 553.4569)" class="st0" width="32.3" height="8.2"/>
	</g>
	<g id="XMLID_478_">
		<path id="XMLID_821_" class="st0" d="M863.5,787.5c-3.1,0-21-1.7-39.8-38.5l7.3-3.7c17.1,33.5,32.2,34.1,32.5,34.1l0,0l0.3,8.2
			C863.7,787.5,863.6,787.5,863.5,787.5z"/>
	</g>
	<g id="XMLID_479_">
		<path id="XMLID_820_" class="st0" d="M834.4,712.6l-5.3-6.2c85.1-73.1,106.2-115.1,106.4-115.5l7.3,3.6
			C942,596.3,920.8,638.4,834.4,712.6z"/>
	</g>
</g>
<g id="XMLID_674_">
	<g id="XMLID_480_">
		<path id="XMLID_817_" class="st0" d="M1105.9,788.5h-63.4c-16.7,0-30.3-13.6-30.3-30.3V588.9c0-16.7,13.6-30.3,30.3-30.3h63.4
			c16.7,0,30.3,13.6,30.3,30.3v169.2C1136.3,774.9,1122.7,788.5,1105.9,788.5z M1042.6,566.8c-12.2,0-22.2,9.9-22.2,22.2v169.2
			c0,12.2,9.9,22.2,22.2,22.2h63.4c12.2,0,22.2-9.9,22.2-22.2V588.9c0-12.2-9.9-22.2-22.2-22.2L1042.6,566.8L1042.6,566.8z"/>
	</g>
	<g id="XMLID_481_">
		<path id="XMLID_814_" class="st0" d="M1106,566.8h-63.5c-2.3,0-4.1-1.8-4.1-4.1V532c0-2.3,1.8-4.1,4.1-4.1h63.5
			c2.3,0,4.1,1.8,4.1,4.1v30.7C1110.1,564.9,1108.2,566.8,1106,566.8z M1046.6,558.6h55.3V536h-55.3V558.6z"/>
	</g>
	<g id="XMLID_482_">
		<path id="XMLID_811_" class="st0" d="M1100,710.7h-83.7c-2.3,0-4.1-1.8-4.1-4.1v-68c0-2.3,1.8-4.1,4.1-4.1h83.7
			c2.3,0,4.1,1.8,4.1,4.1v68C1104.1,708.9,1102.2,710.7,1100,710.7z M1020.4,702.6h75.5v-59.8h-75.5V702.6z"/>
	</g>
	<g id="XMLID_483_">
		<g id="XMLID_673_">
			<path id="XMLID_808_" class="st0" d="M1207,589.7c-19,0-34.4-15.4-34.4-34.4s15.4-34.4,34.4-34.4s34.4,15.4,34.4,34.4
				S1226,589.7,1207,589.7z M1207,529.1c-14.5,0-26.3,11.8-26.3,26.3s11.8,26.3,26.3,26.3s26.3-11.8,26.3-26.3
				C1233.3,540.9,1221.5,529.1,1207,529.1z"/>
		</g>
		<g id="XMLID_484_">
			<path id="XMLID_805_" class="st0" d="M1207,781.2c-5.7,0-11.1-2.3-15-6.4c-4-4.1-6-9.6-5.8-15.3l6.5-150.4
				c0.1-1.5-0.9-2.8-2.3-3.2c-22.3-7.3-37.3-28.7-36.6-52.2c0.8-27.6,23.1-50.2,50.6-51.4c14.7-0.7,28.6,4.5,39.2,14.7
				c10.6,10.1,16.4,23.8,16.4,38.4c0,23.6-15.8,44.6-38.5,51.1c-0.3,0.1-0.5,0.4-0.5,0.7l6.6,152.4c0.2,5.7-1.8,11.1-5.8,15.3
				C1218.1,778.9,1212.7,781.2,1207,781.2z M1207,510.3c-0.7,0-1.4,0-2.1,0c-23.3,1.1-42.1,20.2-42.8,43.5
				c-0.6,19.9,12.1,38,31,44.2c4.9,1.6,8.1,6.3,7.9,11.3l-6.5,150.4c-0.2,3.5,1.1,6.8,3.5,9.3s5.6,3.9,9.1,3.9s6.7-1.4,9.1-3.9
				s3.6-5.8,3.5-9.3l-6.6-152.4c-0.2-4.1,2.4-7.8,6.4-8.9c19.2-5.5,32.6-23.3,32.6-43.3c0-12.4-4.9-24-13.9-32.5
				C1229.6,514.7,1218.7,510.3,1207,510.3z"/>
		</g>
	</g>
</g>
</svg>
