<?xml version="1.0" encoding="utf-8"?>
<!-- Generator: Adobe Illustrator 22.1.0, SVG Export Plug-In . SVG Version: 6.00 Build 0)  -->
<svg version="1.1" id="Capa_1" xmlns="http://www.w3.org/2000/svg" xmlns:xlink="http://www.w3.org/1999/xlink" x="0px" y="0px"
	 viewBox="0 0 1272.6 900.9" style="enable-background:new 0 0 1272.6 900.9;" xml:space="preserve">
<style type="text/css">
	.st0{fill:#ACDCF6;}
	.st1{fill:#151D38;}
	.st2{fill:#EBBE62;}
	.st3{fill:#F8E8A0;}
	.st4{fill:#FFFFFF;}
</style>
<g>
	<path class="st0" d="M1106.9,505.4c-0.4,1.8-1.5,2.2-3.3,2.2c-28.8-0.1-57.6,0-86.4,0c-1.5,0-2.8-0.4-3.9-1.4
		c-9.1-8.7-12.3-19.2-9-31.2c3.3-11.9,11.5-19.2,23.6-21.7c16.1-3.3,31.7,7,35.6,22.9c0.1,0.3,0.1,0.6,0.2,0.9
		c0.2,0.9,0.6,1.2,1.5,0.7c2.2-1.1,4.5-1.7,6.9-1.9c10-0.9,18.8,6,20.4,15.9c0.1,0.4,0.1,0.8,0.2,1.2c0.1,0.6,0.4,0.9,1,0.7
		c0.2-0.1,0.5-0.2,0.7-0.2c6-1,10.5,1.8,12.2,7.7c0,0.1,0.2,0.2,0.3,0.3C1106.9,502.8,1106.9,504.1,1106.9,505.4z"/>
	<path class="st1" d="M512.7,802.5c-3.6-2.7-7.4-4.9-11.2-7.4c-19-12.2-38.1-24.4-57.1-36.7c-4.4-2.8-9.1-4.3-14.3-3.9
		c-4.2,0.3-7.9,1.6-11.4,3.9c-18,11.6-36,23.2-54.1,34.7c-4,2.6-8.1,5.2-12.1,7.8c-1.5,1-1.5,0.9-2.4-0.4c-0.8-1-0.3-1.5,0.6-2.1
		c3.1-2,6.2-4,9.3-6c19.1-12.3,38.2-24.5,57.3-36.8c6.9-4.4,14.3-5.3,22.1-3.1c2.6,0.8,5,2.1,7.3,3.6c21.4,13.7,42.8,27.5,64.1,41.2
		c1.6,1,2.6,1.1,4.2,0c6.9-4.6,14-9,20.9-13.5c4.4-2.8,8.6-2.9,13,0c7.4,4.8,14.9,9.6,22.4,14.4c1.6,1,1.6,1.2,0.5,2.7
		c-0.5,0.7-1,0.6-1.6,0.2c-2.2-1.4-4.4-2.8-6.7-4.3c-5.4-3.5-10.9-6.9-16.3-10.5c-3.3-2.2-6.3-2.1-9.6,0c-7.6,5-15.2,9.8-22.8,14.7
		c-0.6,0.4-1.3,0.6-1.6,1.3C513,802.5,512.8,802.5,512.7,802.5z"/>
	<path class="st1" d="M852,150.7c1.2,0.7,2.6,0.6,3.9,0.9c17.7,3.4,31.7,17.3,35,34.9c0.5,2.4,0.5,2.4,2.6,1.3
		c16.4-8.4,35.9,1.1,39.3,19.1c0.2,1.3,0.3,2.5,0.5,3.8c0.1,0.6,0.4,0.8,1,0.6c0.5-0.2,1.1-0.4,1.6-0.5c8.8-2.4,17.5,3.8,18.2,12.8
		c0,0.4,0,0.8,0,1.2c-0.2,0.8-0.6,1.3-1.5,1.3c-0.8,0-1.4-0.4-1.6-1.2c-0.1-0.5-0.1-1-0.1-1.4c-0.9-8.3-10-12.7-17.2-8.3
		c-0.9,0.6-1.7,1.7-3,0.9c-1.1-0.7-0.6-1.9-0.6-2.9c0.7-12.6-8.8-25-23.8-25.4c-5.1-0.1-9.8,1.5-14,4.4c-0.3,0.2-0.5,0.4-0.8,0.6
		c-1.9,1.3-3,0.8-3.2-1.5c-0.5-4.9-1.6-9.6-3.9-14c-7.7-14.8-19.8-22.8-36.6-23.3c-17.9-0.6-36.1,12.2-40.4,32.4
		c-0.5,2.1-0.8,4.2-0.8,6.4c0,0.8-0.1,1.6-0.2,2.4c-0.1,0.8-0.7,1.2-1.5,1.2s-1.4-0.5-1.4-1.3c-0.1-1-0.1-2.1,0-3.1
		c1.5-20.8,17.3-37.8,37.9-40.7c0.6-0.1,1.3,0,1.8-0.5C846.3,150.7,849.2,150.7,852,150.7z"/>
	<path class="st1" d="M181.5,407c0.7-0.6,0.8-1.5,1-2.4c4.2-16.2,23.4-22.3,36.3-11.6c0.6,0.5,1.2,1.6,1.8,1.3
		c0.9-0.3,0.6-1.5,0.7-2.3c3-18.2,18.4-33,36.8-35.5c22.6-3.1,42.9,11.4,48.3,32.3c0.8,3,1.3,6.1,1.3,9.2c0,0.4,0,0.8,0,1.2
		c-0.1,1.3-0.6,2-1.6,2c-1.1-0.1-1.5-0.8-1.5-1.8c0-0.3,0-0.6,0-1c-0.9-18.7-13.4-33.8-31.3-38.1c-22.1-5.3-44.6,9.3-48.8,31.7
		c-0.4,2.3-0.6,4.6-0.8,6.9c-0.1,1,0,2-1.2,2.3c-1.1,0.2-1.6-0.5-2-1.3c-2.3-3.6-5.5-6.2-9.5-7.8c-12-4.6-24.9,3.6-26.1,16.7
		c0,0.3,0,0.6,0,1c-0.2,1.7-0.9,2.2-2.6,1.5c-0.3-0.1-0.6-0.3-0.9-0.4C181.5,409.6,181.5,408.3,181.5,407z"/>
	<path class="st1" d="M950,802.5c-0.3-0.7-1-1-1.6-1.3c-13.3-8.6-26.7-17.1-39.9-25.7c-5.5-3.6-10.9-3.5-16.4,0
		c-12.7,8.3-25.5,16.4-38.3,24.6c-0.5,0.3-0.9,0.6-1.4,0.9c-1.2,0.7-2.5,0-2.7-1.4c-0.1-0.5,0.3-0.7,0.6-0.9
		c0.9-0.6,1.9-1.2,2.8-1.8c12.4-7.9,24.8-15.8,37.1-23.8c6.7-4.3,13.3-4.4,20-0.1c12.5,8.1,25,16.1,37.5,24.1c3.1,2,2,2.1,5.2,0.1
		c3.8-2.4,7.5-4.8,11.3-7.3c2.8-1.9,5.7-1.9,8.5-0.1c4.5,2.9,9,5.8,13.5,8.7c0.4,0.3,1.2,0.4,1.1,1.1c-0.2,0.8-0.6,1.5-1.3,1.9
		c-0.6,0.4-1-0.2-1.5-0.5c-4.3-2.7-8.6-5.5-12.9-8.3c-0.7-0.4-1.4-0.8-2.1-1.1c-1-0.4-2.1-0.1-3,0.4c-5.3,3.5-10.8,6.8-16.1,10.4
		C950.3,802.5,950.1,802.5,950,802.5z"/>
	<path class="st1" d="M642.2,605.7c0,1.3,0,2.6,0,3.8c0,1.8,0.1,1.7,1.8,2c7.7,1,12.9,5.1,15.7,12.3c0.5,1.3,0.8,2.8,0.9,4.2
		c0.2,1.7,0.2,1.8,2.1,1.8c2.7,0,5.4,0,8.2,0c1.1,0,1.8,0.2,1.8,1.6c0,1.1,1.3,1.7,2.2,1.1c0.6-0.3,0.3-0.8,0.2-1.3
		c-0.4-2.8-0.9-5.5-1.3-8.3c-0.3-2-0.6-3.9-0.8-5.9c-0.2-3,1.7-5.1,4.4-5s4.6,2.3,4.2,5.3c-0.6,4.4-1.3,8.7-2.1,13
		c-0.5,2.6-0.5,5.2,0,7.8c0.8,4.2,1.4,8.5,2.1,12.8c0.4,2.7-1,4.8-3.3,5.3c-3.1,0.7-5.6-1.5-5.3-4.7c0.3-3,0.8-6,1.3-9
		c0.3-1.7,0.6-3.5,0.9-5.2c0.1-0.6,0.4-1.4-0.6-1.4c-0.7-0.1-1.9-0.3-1.8,0.9c0.1,1.7-0.8,1.8-2,1.7c-2.5-0.1-5,0-7.4,0
		s-2.4,0-2.4,2.3c-0.1,5.2-2.1,9.6-5.9,13.2c-3.7,3.5-8.3,5-13.4,5c-24.3,0-48.6,0-73,0c-6.3,0-12.6,0-19,0
		c-7.4-0.1-13.5-4.5-15.5-11.4c-1-3.3-0.7-6.7-0.1-10c2.2-13,12.6-23.3,25.6-25.6c2.1-0.4,2.1-0.4,2.1-2.4c0-1.6,0-3.2,0-4.8
		c0-1.9,0-1.9-1.9-2.3c-4.8-1.1-9.6-2.4-14.3-4c-45.4-15.1-81.4-51-96.5-96.3c-4.4-13.2-7-26.8-7.5-40.7
		c-1.5-35.8,8.1-68.4,29.4-97.2c22.6-30.5,52.6-50,89.6-58.5c14.4-3.3,29.1-4,43.9-3.2c29.6,1.6,57.3,10.2,83.9,22.7
		c16.8,7.9,32.9,17,49.1,26.1c14.3,8.1,28.7,16.2,43.4,23.5c6.6,3.3,13.3,6.4,19.9,9.4c2,0.9,3.9,1.2,6,0.9c8.9-1.3,17.4-4,25.4-8.2
		c6.9-3.6,13.3-7.9,19.8-12.2c5.8-3.8,11.6-7.4,18.2-9.7c9.9-3.4,19.8-3.7,29.5,0.3c11.3,4.7,17.8,13.5,20.1,25.4
		c1.5,7.6,0.5,15-3.4,21.8c-1.8,3.2-4.3,5.9-7.3,8.2c-0.5,0.3-1.4,0.6-1.1,1.2c0.2,0.6,1.1,0.4,1.8,0.4c3.9,0.3,7.8,0.6,11.7,0.8
		c5.8,0.3,11.7,0.5,17.5,0.5c0.7,0,1.4,0,2.2,0c1.2-0.1,1.9,0.3,1.7,1.6c0,0.4,0,0.8,0,1.2c0,25,0,49.9,0,74.9c0,0.3,0,0.6,0,1
		c-0.1,1.8-0.1,1.8-1.9,1.8c-8.4,0-16.8,0.4-25.2,0.9c-2.4,0.2-4.8,0.4-7.2,0.5c-0.3,0-0.7,0-0.7,0.4c0,0.2,0.3,0.4,0.4,0.5
		c0.1,0.1,0.1,0.1,0.2,0.1c11.5,8.7,14,20.4,10.6,33.6c-3.6,14-15,23.2-29.4,24.8c-10.1,1.1-19.3-1.4-28.1-6.2
		c-6.1-3.3-11.7-7.2-17.5-11c-7.1-4.6-14.4-8.7-22.3-11.5c-5.2-1.8-10.6-3.1-16.1-3.8c-1.4-0.2-2.6,0-3.9,0.6
		c-10.2,4.5-20.3,9.4-30.2,14.6c-17.4,9.1-34.4,19.1-51.6,28.6c-15.2,8.4-30.6,16.4-46.7,23c-9.3,3.8-18.9,7.1-28.6,9.7
		c-2.8,0.8-2.3,0.5-2.4,3.2C642.2,603.6,642.2,604.6,642.2,605.7z"/>
	<path class="st2" d="M684.3,452.7c78.6,0,157.3,0,235.9,0c0.7,0,1.4-0.1,2.2,0c1.3,0.1,1.6-0.5,1.6-1.7c-0.1-4.2,0-8.3,0-12.5
		c0-2.4,0-2.4-2.4-2.5c-6.6-0.2-13.3-0.3-19.9-0.6c-14.3-0.6-28.6-1.6-42.8-2.9c-16.5-1.5-32.9-3.6-49.2-6.2
		c-20.1-3.2-40.1-7.3-59.9-11.9c-23.9-5.6-47.6-12-71.4-17.7c-29.5-7.1-59.2-12.8-89.5-15.2c-16.4-1.3-32.9-2-49.3-1.6
		c-12.8,0.3-25.5,1.2-38.2,3.1c-14.4,2.1-28.5,5.5-42.4,10.1c-1.2,0.4-1.9,1-2.3,2.1c-7.4,17.3-11.6,35.4-12.1,54.2
		c-0.1,3.9-0.4,3.3,3.2,3.3C526.6,452.7,605.4,452.7,684.3,452.7z"/>
	<path class="st2" d="M594,603c19.8,0,39.2-3.2,58.1-9.1c18.5-5.7,35.9-13.8,53-22.8c15.6-8.2,30.8-17.1,46.1-25.6
		c18-10,36.3-19.5,55.4-27.5c22.5-9.4,45.7-16.5,69.7-20.9c12.4-2.3,24.9-3.9,37.6-4.8c2.8-0.2,5.6-0.3,8.4-0.5
		c1.6-0.1,1.7-0.3,1.8-1.9c0-1.1,0-2.2,0-3.4c0-3.4,0-6.9,0-10.3c0-1.3-0.4-1.8-1.7-1.6c-0.2,0-0.5,0-0.7,0
		c-7,0.2-14.1,0.5-21.1,0.7c-1.5,0-2.7,0.5-3.9,1.5c-4.4,4-9.7,6.2-15.5,6.9c-9.5,1.2-18.6-0.3-27.4-4.1c-1.3-0.6-2.6-0.7-3.9-0.6
		c-11.7,1.4-23.3,2.8-34.9,4.6c-16.9,2.6-33.7,5.8-50.4,9.5c-20.5,4.5-40.7,9.7-61,14.8c-25.5,6.5-51,12.7-77,16.8
		c-14.1,2.2-28.2,3.9-42.4,4.9c-13.9,1-27.8,1.4-41.7,1.2c-10.9-0.2-21.7-0.8-32.5-2c-15.7-1.7-31.1-4.9-46.2-9.5
		c-1.5-0.4-2.8-1.4-4.5-1c0.3,1.5,1.2,2.8,1.9,4.1c10.7,20.5,25.3,37.7,43.9,51.3C531.4,593.4,561.1,603,594,603z"/>
	<path class="st3" d="M904.3,432.5c4.8,0.1,11.3,0.3,17.7,0.4c1.9,0,1.9,0,2-2c0-4,0-8,0-12c0-2.2,0-2.2-2.2-2.3
		c-14.2-0.7-28.4-2.3-42.4-4.7c-21.1-3.7-41.6-9.4-61.6-17c-20.4-7.8-40-17.4-59.2-27.9c-19.4-10.6-38.3-21.9-57.9-32
		c-15.7-8.1-31.8-15.3-48.8-20.5c-23.8-7.3-48-10.5-72.9-8.3c-12.6,1.1-24.9,3.9-36.8,8.3c-21.7,8-40.6,20.4-56.6,37.2
		c-10.1,10.5-18.4,22.3-25,35.3c-0.3,0.7-1.2,1.5-0.7,2.1s1.5-0.1,2.2-0.4c20.5-6.5,41.4-10.1,62.8-11.4c14.2-0.9,28.4-0.8,42.7-0.3
		s28.6,1.7,42.8,3.5c15.6,2,31.1,4.7,46.5,8c20,4.3,39.8,9.4,59.6,14.4c23,5.9,46.1,11.5,69.4,16c25.2,4.9,50.6,8.5,76.2,10.8
		C875.5,430.9,889,431.7,904.3,432.5z"/>
	<path class="st3" d="M626.9,455.9c-59.6,0-119.2,0-178.8,0c-4.2,0-3.8-0.9-3.6,3.9c0.6,18.1,4.5,35.5,11.5,52.2
		c0.6,1.5,1.5,2.2,3,2.7c20,6.8,40.6,10.7,61.7,12.3c13.6,1,27.3,1.3,41,0.8c13-0.4,25.9-1.2,38.8-2.6c11.9-1.3,23.6-3,35.4-5.1
		c19.8-3.5,39.3-8.1,58.7-13c28.8-7.3,57.6-14.9,86.7-20.6c13.7-2.7,27.5-5.1,41.4-7.1c7.4-1.1,14.9-2,22.4-2.9
		c0.4,0,0.9,0.1,1.1-0.3c0.2-0.6-0.4-0.7-0.8-1c-3-2.1-6.1-4.1-9.2-6.1c-3.8-2.6-7.5-5.2-11.5-7.5c-6.8-3.8-14.1-5.8-22-5.8
		C744,455.9,685.5,455.9,626.9,455.9z"/>
	<path class="st0" d="M884.6,552.5c2.1,0,4.1-0.1,6.2-0.4c19.8-2.8,29.3-21.9,25.5-37.8c-1.9-7.9-6.3-13.7-13.9-16.9
		c-1.3-0.6-2.6-0.7-4-0.5c-3,0.4-6,0.8-9,1.3c-19,2.7-37.7,7.2-55.9,13.2c-7.5,2.5-14.9,5.2-22.3,8.2c-0.3,0.1-0.9,0.2-0.8,0.7
		c0,0.5,0.6,0.4,0.9,0.5c4.4,0.8,8.7,2.1,12.9,3.6c8.5,3.1,16.1,7.7,23.6,12.7c5.4,3.6,10.7,7.2,16.5,10.2
		C870.7,550.5,877.4,552.7,884.6,552.5z"/>
	<path class="st0" d="M917.2,385.9c-0.7-11.6-6-21.6-18-27.1c-7.4-3.4-15.3-3.7-23.3-1.9c-6.6,1.4-12.4,4.6-18.1,8.1
		c-5.1,3.2-10.1,6.5-15.1,9.7c-9.5,6-19.6,10.7-30.8,12.9c-0.6,0.1-1.5-0.1-1.6,0.6s0.9,0.7,1.5,0.9c8.6,3.5,17.3,6.6,26.2,9.4
		c19.4,6.1,39.2,10.4,59.4,12.9c2.7,0.3,5-0.2,7.3-1.5c1.7-0.9,3.3-2,4.6-3.4C914.9,401.3,917,394.6,917.2,385.9z"/>
	<path class="st0" d="M596.7,647.1c18.8,0,37.6,0,56.4,0c0.6,0,1.3,0,1.9,0c0.9,0.1,1.3-0.4,1.6-1.1c0.6-1.7,1.1-3.5,1.1-5.4
		c0-3.6,0-7.2,0-10.8c-0.1-7.1-5.1-13.4-12-14.9c-1.8-0.4-3.6-0.5-5.5-0.5c-24.1,0-48.1,0-72.2,0c-2.1,0-4.2,0.1-6.2,0.4
		c-7.1,0.9-13,4.1-17.9,9.4c-0.3,0.3-0.5,0.6-0.8,0.9c-0.5,0.7-0.2,1,0.5,1c0.6,0,1.3,0,1.9,0c6.5,0,13,0,19.4,0c4,0,8,0,12,0
		c1,0,1.7,0,1.7,1.3c0,4.5,0,9,0,13.4c0,0.9-0.3,1.4-1.3,1.3c-0.6,0-1.1,0-1.7,0c-9.3,0-18.6,0-27.8,0c-3.2,0-6.4,0-9.6,0
		c-1.7,0-1.7,0.1-1.7,1.8c0.1,2.8,0.4,3.1,3.2,3.1C558.8,647.1,577.7,647.1,596.7,647.1z"/>
	<path class="st0" d="M862.5,455.9c-12.8,0-25.6,0-38.4,0c-0.6,0-1.1,0-1.7,0c-0.4,0-0.9-0.2-1,0.3s0.5,0.6,0.8,0.7
		c5,2.3,9.4,5.3,13.9,8.5c4.1,2.8,8.1,5.7,12.4,8.2c9.4,5.5,19.5,8.2,30.5,7.4c8.7-0.7,15.7-4.4,20.5-12c2.2-3.5,3.5-7.3,4.2-11.4
		c0.3-1.6,0.3-1.6-1.4-1.6c-0.6,0-1.1,0-1.7,0C887.9,455.9,875.2,455.9,862.5,455.9z"/>
	<path class="st4" d="M596.3,650.3c-18.1,0-36.1,0-54.2,0c-0.6,0-1.1,0-1.7,0c-0.4,0-0.9-0.1-1.1,0.3c-0.2,0.5,0.2,0.7,0.5,1
		c2.8,3,6.2,4.2,10.3,4.2c30.4,0,60.7,0,91.1,0c0.5,0,1,0,1.4,0c3.4-0.1,6.4-1.3,9.1-3.3c0.6-0.5,1.7-1,1.5-1.7
		c-0.3-1-1.5-0.4-2.3-0.4C632.8,650.3,614.5,650.3,596.3,650.3z"/>
	<path class="st0" d="M601.7,611.4c6.1,0,12.2,0,18.2,0c5.8,0,11.5,0,17.3,0c1.7,0,1.7,0,1.8-1.7c0-2.4,0-4.8,0-7.2
		c0-1.6-0.1-1.7-1.6-1.3c-11.5,2.6-23.1,4.2-34.9,4.8c-10.7,0.5-21.2,0.1-31.8-1.4c-1.6-0.2-3.2-0.5-4.7-0.7c-0.7-0.1-1.1,0-1.2,0.8
		c0,2,0,4,0,6c0,0.5,0.3,0.9,0.9,0.9c0.6,0,1.3,0,1.9,0C579,611.4,590.4,611.4,601.7,611.4z"/>
	<path class="st4" d="M556.2,639.1c1.8,0,3.5,0,5.3,0c3.9,0,7.8,0,11.7,0c2.3,0,2.3,0,2.3-2.2c0-2,0-4,0-6c0-1.2-0.4-1.7-1.6-1.7
		c-10.8,0-21.6,0-32.4,0c-1,0-1.6,0.3-2.1,1.2c-1,2.1-1.8,4.3-2.3,6.5c-0.4,1.9-0.2,2.1,1.7,2.1
		C544.7,639.1,550.5,639.1,556.2,639.1z"/>
	<path class="st3" d="M912.1,471.8c0-0.1,0-0.2,0-0.2c3.4,0,6.9,0,10.3,0c1.1,0,1.6-0.4,1.5-1.5c0-4.2,0-8.5,0-12.7
		c0-1-0.3-1.5-1.3-1.5c-4.8,0-9.6,0-14.4,0c-0.9,0-1.3,0.4-1.4,1.2c-0.6,5-2.4,9.6-5,13.8c-0.7,1.2-0.6,1.3,0.8,1.3
		C905.8,472.1,909,471.9,912.1,471.8z"/>
	<path class="st3" d="M927,483.1L927,483.1c0,2.4,0,4.8,0,7.2c0,0.9,0.3,1.3,1.3,1.3c3.4-0.1,6.7-0.1,10.1-0.2
		c0.8,0,1.1-0.4,1.1-1.2c0-4.8,0-9.6,0-14.4c0-0.9-0.4-1.2-1.3-1.2c-3.2,0-6.4,0-9.6,0c-1.3,0-1.6,0.6-1.6,1.8
		C927,478.6,927,480.8,927,483.1z"/>
	<path class="st3" d="M927,444.3c0,2.3,0,4.6,0,6.9c0,1,0.3,1.4,1.4,1.4c3.3,0,6.5,0,9.8,0c0.9,0,1.3-0.3,1.3-1.2
		c0-4.6,0-9.3,0-13.9c0-0.9-0.3-1.3-1.3-1.3c-3.3,0-6.5,0-9.8-0.1c-1,0-1.4,0.4-1.4,1.4C927,439.8,927,442.1,927,444.3z"/>
	<path class="st2" d="M939.5,425.2c0-2.2,0-4.5,0-6.7c0-0.8-0.1-1.4-1.1-1.4c-3.4,0-6.9-0.1-10.3-0.1c-0.7,0-1,0.3-1,1
		c0,4.6,0,9.3,0,13.9c0,0.8,0.4,1.1,1.2,1.2c3.3,0,6.5,0.1,9.8,0.2c1.1,0,1.6-0.4,1.5-1.5C939.4,429.5,939.5,427.3,939.5,425.2z"/>
	<path class="st2" d="M939.5,463.8c0-2.2,0-4.3,0-6.5c0-0.9-0.2-1.5-1.3-1.5c-3.3,0-6.5,0-9.8,0c-1,0-1.4,0.4-1.4,1.4
		c0,4.2,0,8.4,0,12.7c0,0.9,0.2,1.5,1.3,1.5c3.3-0.1,6.5-0.1,9.8,0c1,0,1.4-0.4,1.4-1.4C939.4,467.9,939.5,465.9,939.5,463.8z"/>
	<path class="st0" d="M665.4,633c-1.2,0-2.4,0-3.6,0c-0.7,0-1,0.3-1,1s0,1.3,0.9,1.3c2.2,0,4.5,0,6.7,0c0.8,0,1.1-0.4,1.1-1.2
		s-0.2-1.2-1.1-1.2C667.5,633,666.4,633,665.4,633z"/>
	<path class="st4" d="M678.3,650.6c-0.1-0.7-0.3-1.8-0.5-3c-0.2-0.9,0.1-1.9-0.8-2.6c-0.2,0.8-0.4,1.7-0.5,2.5
		c-0.2,1.4-0.4,2.8-0.5,4.2c-0.1,0.8,0.5,1.4,1.3,1.4c0.7,0,1.1-0.6,1.1-1.3C678.4,651.6,678.4,651.3,678.3,650.6z"/>
	<path class="st4" d="M678.4,617.5c0-1.7-0.3-2.3-1.2-2.3c-0.8,0-1.3,0.7-1.2,1.9c0,0.2,0,0.3,0.1,0.5c0.3,1.6,0.5,3.3,0.8,4.9
		c0,0.3-0.1,0.7,0.3,0.7c0.2,0,0.4-0.5,0.5-0.7C677.9,620.7,678.2,618.9,678.4,617.5z"/>
	<path class="st0" d="M713.5,268.8c-18.8,0-37.6,0-56.4,0c-0.6,0-1.1,0-1.7,0c-2.2-0.1-2.7-0.6-2.5-2.8c1-12.5,15.1-19.4,25.6-12.5
		c0.6,0.4,1.3,1.4,2,1.1s0.2-1.4,0.3-2.2c0.9-8.7,5.2-15.1,13.3-18.4c8.2-3.3,15.9-1.8,22.5,4c3.2,2.8,5.1,6.3,6.3,10.3
		c0.4,1.3,0.5,1.3,1.4,0.4c5.4-5.6,14-5.7,19.4-1.4c2.9,2.3,4.6,5.3,5.2,8.9c0.1,0.5,0,1.1,0.4,1.3c0.7,0.3,0.9-0.4,1.3-0.8
		c7.3-6.3,18.2-4,22.2,4.6c0.8,1.6,1.1,3.3,1.2,5.1c0.1,1.6-0.4,2.2-2,2.3c-0.6,0-1.3,0-1.9,0C751.3,268.8,732.4,268.8,713.5,268.8z
		"/>
	<path class="st0" d="M339,561.1c-15.1,0-30.2,0-45.3,0c-3,0-3.1,0-2.4-2.9c1.3-6,4.9-10.1,10.8-11.7c5.9-1.6,11.1-0.1,15.3,4.4
		c0.2,0.2,0.4,0.5,0.6,0.7c0.3,0.3,0.5,1,1,0.7c0.2-0.1,0.2-0.7,0.3-1.1c1.4-10.1,9.6-17.4,19.7-17.6c10.1-0.1,18.7,7.2,20.2,17.2
		c0,0.3,0,0.6,0.1,1c0.1,0.6,0.5,0.6,0.8,0.2c0.4-0.4,0.7-0.9,1.1-1.3c4.4-4.5,9.6-5.9,15.6-4.2c5.9,1.7,9.3,5.9,10.5,11.9
		c0.1,0.4,0.1,0.8,0.1,1.2c0.1,0.9-0.2,1.4-1.2,1.4c-0.6,0-1.3,0-1.9,0C369.2,561.1,354.1,561.1,339,561.1z"/>
	<path class="st1" d="M698,703.9c1.9,0.1,4.5,0.8,6.8,2.4c9.6,6.2,19.3,12.3,28.8,18.6c1.7,1.1,2.8,1.1,4.4,0
		c28.2-18.2,56.5-36.3,84.7-54.5c6.7-4.3,13.8-6.5,21.8-6c5.8,0.4,11.1,2.2,16,5.4c8.6,5.5,17.2,11.1,25.8,16.6
		c20,12.9,40.1,25.7,60.1,38.6c0.5,0.3,0.9,0.6,1.4,0.9c1.3,0.9,1.3,2,0,3c-0.4,0.3-0.7,0.2-1.1,0c-0.5-0.3-0.9-0.6-1.4-0.9
		c-28.4-18.2-56.8-36.4-85.1-54.7c-4.4-2.9-9.1-5-14.4-5.6c-7.3-0.9-14,0.7-20.1,4.6c-7.2,4.5-14.3,9.1-21.4,13.7
		c-22.1,14.2-44.1,28.3-66.2,42.5c-0.1,0.1-0.3,0.2-0.4,0.3c-1.3,1.2-2.4,1-3.8,0.1c-5.5-3.7-11.1-7.2-16.7-10.8
		c-4.5-2.9-9.1-5.7-13.5-8.7c-4.5-3-8.7-2.9-13.1,0.1c-9.6,6.3-19.2,12.4-28.8,18.6c-0.3,0.2-0.7,0.4-1,0.7
		c-0.8,0.6-1.5,0.8-2.1-0.3c-0.8-1.3-0.8-1.5,0.4-2.3c3-2,6-3.9,9.1-5.8c7.1-4.6,14.3-9.1,21.4-13.7
		C691.9,704.8,694.4,703.9,698,703.9z"/>
	<path class="st0" d="M600.6,213.9c0,1,0,1.9,0,2.9c0,0.9-0.5,1.5-1.5,1.5c-0.9,0-1.5-0.6-1.5-1.5c-0.1-1.7-0.2-3.4-0.3-5
		c-1.9-25.7-20.9-48.4-47.1-54c-20.1-4.3-38.1,0.4-53.6,14c-11.3,9.9-17.8,22.6-19.8,37.6c-0.3,2.2-0.4,4.5-0.5,6.7
		c-0.1,1,0.1,2-1.2,2.3c-1.2,0.3-1.7-0.6-2.2-1.5c-4.7-7.3-11.3-11.8-19.9-13.4c-15.1-2.7-29.9,7-33.5,22c-0.5,2.3-0.8,4.6-0.9,6.9
		c0,0.7-0.3,1.2-1.1,1.4c-0.7,0.2-1.3,0-1.7-0.6c-0.4-0.6-0.3-1.2-0.3-1.9c0.1-3.4,0.6-6.7,1.9-9.8c4.9-12.5,14-19.8,27.4-21.3
		c10.4-1.2,19.3,2.5,26.7,9.9c0.5,0.5,0.9,1.5,1.6,1.3c0.6-0.2,0.5-1.3,0.5-2c1.6-13.3,6.8-24.9,15.7-34.8
		c10.9-12.1,24.4-19.1,40.6-20.9c32.5-3.7,62.7,18.3,69.3,50.7C600.1,207.3,600.5,210.6,600.6,213.9z"/>
	<path class="st1" d="M991.8,625.2c-9.4,0-18.9,0-28.3,0c-2.7,0-2.8-0.1-2.1-2.7c1.9-6.8,10.2-9.3,15.6-4.8c0.2,0.2,0.5,0.4,0.7,0.6
		c0.3,0.3,0.6,1,1.1,0.8c0.7-0.2,0.4-0.9,0.5-1.4c1.3-4.9,4.2-8.2,9.1-9.6c7-2.1,14.1,2,16,9.2c0.6,2.1,0.5,2,2.2,0.6
		c2.8-2.4,6.1-3.1,9.6-1.9c3.4,1.2,5.6,3.6,6.3,7.2c0.4,1.8,0.3,2-1.5,2c-6.1,0-12.2,0-18.2,0C999.1,625.2,995.5,625.2,991.8,625.2z
		"/>
	<path class="st0" d="M995.1,336c5.5,0.1,10.3,1.8,14.6,5.3c0.4,0.4,0.9,0.7,1.3,1.1c0.8,0.8,1,0.3,1.2-0.5c0.1-0.3,0.1-0.6,0.2-0.9
		c3.2-18.8,17.6-33.3,36.5-36.1c25.1-3.7,46.5,14.1,49.6,37c0.2,1.6,0.4,3.2,0.4,4.8c0,2.1-0.3,2.7-1.4,2.8c-1.2,0-1.6-0.6-1.7-2.9
		c-0.1-2.8-0.5-5.6-1.1-8.3c-3.8-15.8-17.2-27.9-33.3-30.2c-21.9-3.2-42.1,11.5-45.8,33.4c-0.3,1.8-0.6,3.6-0.5,5.5
		c0,0.9,0.2,2-1,2.5c-1.3,0.5-1.8-0.5-2.5-1.4c-3.2-4.8-7.6-7.8-13.3-8.6c-11.2-1.6-21.1,6.2-22.2,17.5c-0.1,0.6,0,1.1-0.1,1.7
		c-0.1,0.8-0.5,1.3-1.4,1.4c-1,0.1-1.6-0.5-1.6-1.4c0-1.4,0-2.7,0.3-4.1C975,343.9,984.4,336,995.1,336z"/>
	<path class="st2" d="M364.4,282.6c0,11.1-8.9,19.9-20.1,19.8c-11.1-0.1-19.8-9-19.8-20.1c0-10.9,9-19.7,20-19.7
		C355.6,262.5,364.4,271.4,364.4,282.6z"/>
	<path class="st3" d="M327.6,282.4c0,9.3,7.7,17.2,16.9,17c9.9-0.2,16.8-7.9,16.9-16.8c0.2-9.3-7.5-17-16.8-17.1
		C335.4,265.4,327.6,273.1,327.6,282.4z"/>
	<path class="st1" d="M750.3,632.7c9.9,0,19.8,0,29.8,0c0.7,0,1.5,0,2.2,0.1c0.8,0.1,1.2,0.7,1.2,1.5s-0.5,1.2-1.1,1.4
		c-0.5,0.1-1.1,0.1-1.7,0.1c-20.3,0-40.6,0-60.9,0c-0.5,0-1,0-1.4,0c-0.9-0.1-1.5-0.6-1.5-1.6c0.1-1,0.7-1.4,1.6-1.5
		c0.6,0,1.3,0,1.9,0C730.3,632.7,740.3,632.7,750.3,632.7z"/>
	<path class="st1" d="M372.7,447.8c-4.8,0-9.6,0-14.4,0c-1.6,0-1.8-0.3-1.2-1.8c1-2.8,4.2-4,6.9-2.8c0.5,0.2,0.9,0.6,1.4,0.9
		c0.4,0.2,0.7,0.3,0.9-0.3c0.1-0.4,0.2-0.8,0.4-1.1c1.2-2.6,3.3-4,6.2-4c2.9,0,5,1.5,6.2,4.1c0.1,0.2,0.2,0.4,0.2,0.7
		c0.2,1,0.7,0.8,1.3,0.3c1.5-1.2,3.1-1.5,4.9-0.9c1.6,0.6,2.7,1.7,3.1,3.4c0.3,1.1,0.2,1.4-1.1,1.4c-3.2,0-6.4,0-9.6,0
		C376.2,447.8,374.5,447.8,372.7,447.8z"/>
	<path class="st1" d="M737.2,626.3c-7.4,0-14.7,0-22.1,0c-0.6,0-1.3,0-1.9-0.1c-0.8-0.1-1.2-0.7-1.2-1.6c0-0.7,0.5-1.2,1.2-1.3
		c0.6-0.1,1.3-0.1,1.9-0.1c14.8,0,29.6,0,44.4,0c0.7,0,1.4,0,2.1,0.1c0.7,0.1,1.1,0.7,1.1,1.4s-0.4,1.3-1.1,1.4
		c-0.6,0.1-1.3,0.1-1.9,0.1C752.3,626.3,744.7,626.3,737.2,626.3z"/>
	<path class="st1" d="M737.4,644.2c-7.4,0-14.7,0-22.1,0c-0.6,0-1.3,0-1.9,0c-0.8-0.1-1.3-0.6-1.4-1.4c0-0.8,0.5-1.3,1.3-1.5
		c0.5-0.1,1-0.1,1.4-0.1c15.1,0,30.2,0,45.3,0c2,0,2.7,0.4,2.7,1.6c-0.1,1-0.6,1.4-2.6,1.4C752.6,644.2,745,644.2,737.4,644.2z"/>
	<path class="st1" d="M723.6,653.2c-4.7,0-9.4,0-14.1,0c-0.6,0-1.3,0-1.9-0.1c-0.8-0.2-1.2-0.8-1.1-1.6c0.1-0.8,0.5-1.1,1.3-1.2
		c0.6,0,1.1,0,1.7,0c9.6,0,19.2,0,28.7,0c0.6,0,1.1,0,1.7,0c0.8,0.1,1.3,0.5,1.3,1.4c0,0.8-0.5,1.4-1.3,1.5
		c-0.6,0.1-1.3,0.1-1.9,0.1C733.2,653.2,728.4,653.2,723.6,653.2z"/>
	<path class="st1" d="M723.8,617.9c-4.7,0-9.4,0-14.1,0c-0.6,0-1.3,0-1.9-0.1c-0.8-0.1-1.3-0.6-1.2-1.5c0-0.8,0.5-1.3,1.3-1.4
		c0.6-0.1,1.1,0,1.7,0c9.6,0,19.2,0,28.8,0c0.4,0,0.8,0,1.2,0c1,0,1.7,0.4,1.7,1.5c0,1-0.7,1.4-1.6,1.4c-0.6,0-1.1,0-1.7,0
		C733.2,617.9,728.5,617.9,723.8,617.9z"/>
	<path class="st2" d="M346,240.7c0,4,0,8,0,12c0,0.6,0,1.1,0,1.7c-0.1,0.8-0.7,1.3-1.5,1.3c-0.7,0-1.2-0.4-1.4-1.1
		c-0.1-0.6-0.2-1.3-0.2-1.9c0-8,0-15.9,0-23.9c0-0.6,0-1.3,0.2-1.9c0.2-0.7,0.7-1.1,1.4-1.1c0.8,0,1.3,0.5,1.5,1.3
		c0.1,0.5,0.1,1.1,0.1,1.7C346,232.7,346,236.7,346,240.7z"/>
	<path class="st2" d="M302.8,284c-4,0-8,0-12,0c-0.6,0-1.1,0-1.7-0.1c-0.8-0.1-1.3-0.6-1.4-1.4c0-0.8,0.5-1.4,1.3-1.5
		c0.5-0.1,1.1-0.1,1.7-0.1c8,0,16,0,23.9,0c2.1,0,3,0.4,3,1.5c0.1,1.1-0.8,1.6-2.9,1.6C310.8,284,306.8,284,302.8,284z"/>
	<path class="st2" d="M346,324.2c0,4,0,8,0,12c0,0.6,0,1.1,0,1.7c-0.1,0.8-0.6,1.3-1.4,1.3c-0.7,0-1.2-0.4-1.4-1.1
		c-0.1-0.5-0.2-1.1-0.2-1.6c0-8.1,0-16.3,0-24.4c0-1.9,0.5-2.8,1.6-2.8s1.5,0.8,1.5,2.7C346,316.1,346,320.1,346,324.2z"/>
	<path class="st2" d="M386.3,284c-4,0-8,0-12,0c-0.6,0-1.1,0-1.7-0.1c-0.8-0.1-1.3-0.7-1.4-1.4c0-0.8,0.5-1.3,1.3-1.5
		c0.5-0.1,1.1-0.1,1.7-0.1c8,0,16,0,23.9,0c0.4,0,0.8,0,1.2,0c1,0.1,1.8,0.5,1.8,1.5s-0.7,1.5-1.7,1.6c-0.5,0-1,0-1.4,0
		C394.1,284,390.2,284,386.3,284z"/>
	<path class="st2" d="M381.5,317.8c0,1.2-1.2,2-2.2,1.4c-0.5-0.3-0.9-0.7-1.3-1.1c-4-3.9-7.9-7.9-11.8-11.8c-0.4-0.4-1-0.8-1.2-1.5
		c-0.2-0.6-0.2-1.1,0.3-1.5c0.5-0.5,1.1-0.6,1.7-0.3c0.4,0.2,0.7,0.6,1.1,0.9c4.1,4.1,8.1,8.1,12.2,12.2
		C380.8,316.7,381.4,317.1,381.5,317.8z"/>
	<path class="st2" d="M366.6,262.1c-1.3-0.1-2-1.1-1.5-2.1c0.3-0.6,0.8-1,1.2-1.5c3.9-3.9,7.8-7.8,11.7-11.7
		c0.4-0.4,0.8-0.8,1.3-1.1c0.6-0.4,1.2-0.3,1.8,0.1c0.6,0.5,0.7,1.2,0.3,1.9c-0.3,0.4-0.6,0.7-0.9,1.1c-4,4-8,8-12,12
		C367.7,261.4,367.2,262.1,366.6,262.1z"/>
	<path class="st2" d="M324,304.5c0,0.5-0.3,1-0.7,1.4c-4.3,4.3-8.6,8.6-12.9,12.9c-0.7,0.7-1.4,1.1-2.3,0.3
		c-0.7-0.6-0.7-1.6,0.2-2.5c2-2.1,4.2-4.2,6.3-6.3c2-2,4.1-4.1,6.1-6.1c0.5-0.4,0.9-1,1.5-1.2C323.1,302.6,324.1,303.3,324,304.5z"
		/>
	<path class="st2" d="M308.9,245.5c0.6,0,1,0.3,1.5,0.7c4.3,4.4,8.7,8.7,13.1,13.1c0.7,0.7,1,1.5,0.2,2.3s-1.6,0.5-2.3-0.1
		c-0.8-0.8-1.6-1.6-2.4-2.4c-3.3-3.3-6.7-6.7-10-10c-0.4-0.4-0.9-0.9-1.2-1.5C307.3,246.6,307.9,245.5,308.9,245.5z"/>
	<path class="st1" d="M612.3,642.2c-7.9,0-15.8,0-23.8,0c-0.6,0-1.1,0-1.7,0c-0.8,0-1.1-0.4-1.1-1.2c0-1,0-1.9,0-2.9
		c0-3.4,0-6.9,0-10.3c0-1.2,0.4-1.8,1.6-1.7c0.2,0,0.3,0,0.5,0c16.3,0,32.6,0,48.9,0c2.1,0,2.1,0,2.1,2.2c0,3.8,0,7.7,0,11.5
		c0,2.4,0,2.4-2.3,2.4C628.4,642.2,620.4,642.2,612.3,642.2z"/>
	<path class="st4" d="M612,639.1c4.7,0,9.4,0,14.2,0c2.6,0,5.3,0,7.9,0c1.1,0,1.6-0.3,1.6-1.5c-0.1-1.9,0-3.8,0-5.8
		c0-2.9,0.1-2.6-2.6-2.6c-13.8,0-27.7,0-41.5,0c-0.4,0-0.8,0-1.2,0c-1-0.1-1.4,0.3-1.4,1.4c0,2.1,0,4.2,0,6.2c0,2.2,0,2.2,2.2,2.2
		C598.1,639.1,605.1,639.1,612,639.1z"/>
</g>
</svg>
