<?xml version="1.0" encoding="utf-8"?>
<!-- Generator: Adobe Illustrator 22.1.0, SVG Export Plug-In . SVG Version: 6.00 Build 0)  -->
<svg version="1.1" id="Layer_3" xmlns="http://www.w3.org/2000/svg" xmlns:xlink="http://www.w3.org/1999/xlink" x="0px" y="0px"
	 viewBox="0 0 1168.7 1000" style="enable-background:new 0 0 1168.7 1000;" xml:space="preserve">
<g>
	<path d="M591.3,545.4c-1.3-1.3-2.7-1.7-4.3-2.5c-2.9-1.4-5.4-3.3-8.1-5.1c-2.2-1.4-4.7-2.3-7-3.4c0.1,0.1-1.7-0.8-2.5-1.1
		c0,0,0.1-0.1,0.1-0.1c3.3-3.2,7.5-5.8,11-8.9c2.2-1.9,4.1-4.1,6.3-6c1.1-0.9,2-1.3,2.4-2.7c0.2-0.7-0.3-1.7-1-1.8
		c-7-1-14.2-0.2-21.4-0.3c0,0,0,0,0,0v-0.3c0,0,0,0,0,0c0-11.1-0.5-22.1-0.5-33.3c0-9.4-1.6-19-6.8-27c-4.8-7.4-11.7-12.4-19.9-15.5
		c-4.9-1.9-9.9-3.2-14.9-4.7c-1.6-0.5-3.3-1-5-1.2c-0.5-0.1-3.3-0.1-2.7,0.3c-0.2-0.2-0.4-0.3-0.7-0.3c-0.1-1.4-0.3-2.8-0.6-4.2
		c-0.6-2.7-2.2-9-6-7.7c-4.2,1.4-4.4,8.1-4.4,11.6c0,0.2,0,0.5,0,0.7c-0.2-0.2-0.6-0.4-1-0.4c-5.5,0-11,0.9-16.5,1
		c-0.1-0.9-0.1-1.7-0.2-2.6c-0.3-2.7-0.8-7.6-4.2-8.4c-4.3-1-5.2,5.7-5.4,8.4c-0.1,0.9-0.1,1.7-0.2,2.6c-5.3,0.1-12,2.2-17.1,0.6
		c-0.6-0.2-1.1,0-1.4,0.4c-0.5-4.1-1.6-10.8-6-11.4c-3.7-0.5-4.9,3.4-5.3,6.2c-0.3,1.9-0.5,3.8-0.6,5.7c0,0,0,0,0,0
		c-2.8-0.1-5.5-0.8-8.3-0.5c-3.1,0.3-6,0.5-9.2,0.5c-0.5,0-0.8,0.2-1.1,0.5c-0.1-0.8-0.1-1.7-0.2-2.5c-0.2-2.8,0.4-10.9-4.1-11
		c-4.1-0.1-4.6,7.7-4.8,10.4c0,0.7-0.1,1.4-0.1,2.1c-3.6,0-7.2-0.1-10.7,0c-2.3,0.1-6.8,1.7-8.8,0.2c0,0-0.1-0.1-0.1-0.1
		c0-4.1-0.1-10.2-3.3-11.9c-4.8-2.5-6.5,4.4-6.8,12.4c-0.6-0.3-1.4-0.2-1.8,0.4c-2.5,0.4-5.2-0.2-7.7,0c-1.4,0.1-5.8,1.3-7,0.3
		c-0.1-0.1-0.2-0.1-0.3-0.2c-0.1-2.3-0.1-4.7,0.2-6.9c0.1-0.6-0.2-1.1-0.6-1.3c0-0.1,0-0.2,0-0.3c-0.5-2.9-2.8-7.4-6.5-6.1
		c-4,1.5-3.4,7.1-3.4,10.4c0,1.2,0,2.3,0.1,3.5c-2.9-0.5-5.6-0.6-8.6-0.7c-1.5,0-3.1-0.2-4.6,0c-1,0.1-3.6,1.1-4.4,0.4
		c-0.5-0.5-1.2-0.5-1.7-0.2c0-0.2,0-0.5,0-0.7c0.1-2.9,0.8-10.4-3.9-10.6c-4.7-0.2-5.2,8.9-5.7,12.4c-0.2-0.3-0.6-0.6-1.2-0.5
		c-1,0.1-1.7,0.3-2.6,0.5c-1.4,0.3-2.6,0.2-4,0.2c-3.1-0.1-6.2,0-9.3,0c0,0-0.1,0-0.1,0c-0.3-3-0.8-5.9-1.4-8.8
		c-0.1-0.4-0.3-0.7-0.6-0.9c0,0,0,0,0,0c-1-2.8-4.4-5.6-7.2-3.1c-2.9,2.6-2.5,8.2-2,12.3c-0.2-0.1-0.4-0.2-0.7-0.2
		c-1.4,0-2.6,0.5-4,0.7c-1.5,0.2-3.1-0.1-4.6,0.1c-3,0.3-5.7,0.6-8.7,0.6c-0.3,0-0.6,0.1-0.8,0.2c0-0.2,0-0.3,0-0.5
		c-0.2-4.1,0.2-9.3-2.6-12.6c-0.1-0.2-0.3-0.3-0.4-0.3c-0.1-0.1-0.3-0.3-0.6-0.3c-6.8-2.5-8,5-7.9,12.2c-0.4,0.1-0.8,0.4-1,0.8
		c-5.8,1-12.2,1.1-18.1,1.2c-0.1,0-0.2,0-0.3,0c0-1.3,0.1-2.5,0.1-3.8c0-3-0.4-7.6-4-8.3c-0.2,0-0.4,0-0.6,0c-0.1,0-0.3-0.1-0.4,0
		c-5,0.2-6.5,5.7-6.8,11.5c0,0,0,0-0.1,0c-10.8,0.4-26,4.1-32.5,13.6c-8,11.7-6.3,28.3-6.3,41.7c0,8.4,0.2,16.9-0.1,25.3
		c-0.3,8.4-1.1,16.8-1.4,25.2c-0.5,16.8-1.8,34.2-0.3,51c0.7,8.5,0.5,17.1,1.1,25.7c0.3,4.1,0.6,8.1,1,12.2c0.2,2.5-0.5,5.9,0.9,8.2
		c-17.7,12.8-35.6,25.2-51.9,39.9c-0.5,0.4-0.5,1.3-0.2,1.8c2.6,4.6,6.6,8.4,9.6,12.8c3,4.4,6.2,8.6,9.2,13
		c6.4,9.2,12.9,18.4,19.8,27.3c3.5,4.4,7.1,8.7,10.9,12.9c-0.3,11.4-2,22.6-0.5,34c0.8,6,1.1,12.1,1.9,18.1
		c0.5,3.9,1.5,7.7,1.4,11.7c0,3.6-0.7,7.1-0.8,10.7c-0.2,5.8,0.7,11.5,0.1,17.3c-0.6,6.2-0.2,12.6-0.8,18.8c-0.6,6.3-2,11.7-1,18.1
		c1,6.2,1.5,12.1,4.6,17.7c4.3,7.9,11.3,17.7,20.7,18.9c5.9,0.8,12.1,1,18.1,1c6.4-0.1,12.5,1.4,18.9,1.6c13.2,0.3,26.6-1.1,39.9-1
		c13.5,0.1,27.2,0.8,40.6,0c15-0.9,29.9-3.9,45-3.9c7.1,0,14-0.4,21-0.9c3.7-0.3,9.6,1.6,13.3,0.3c0.2,3.2,0.4,6.4,0.5,9.7
		c0.2,5.1-0.1,12.1,1.8,16.9c0.3,0.8,1,1.2,1.8,1c2.9-0.6,5.2-3.8,7.1-5.8c1.8-2,3.6-3.9,5.6-5.7c0.5-0.4,2.7-2.8,3.3-2.7
		c1.1,0.1,3.8,3.5,4.7,4.3c1.4,1.1,3,1.9,4.5,2.7c2.4,1.4,5.3,5.7,8.4,5.5c0.7-0.1,1.3-0.4,1.4-1.1c1.4-5.4-0.2-11.9-0.7-17.3
		c-0.2-2.2-0.3-4.4-0.3-6.7c7.1,0,14.2,0.9,21.4,1c7.8,0.1,15.7,0.7,23.6,0.4c11.8-0.4,23.2-1.6,34.1-6.8c11-5.3,15.4-15,17.2-26.5
		c2-12.9,1.1-26.6,1.4-39.6c0.9,0,1.7,0,2.6,0.1c7.2,0.6,14.7,2.1,21.8,0.2c0.7-0.2,1-0.8,1.1-1.4c0.9-7.6-0.1-15.5-0.5-23
		c-0.2-3.1,1.8-11-1.1-13.3c-1.7-1.4-4.7-0.6-6.6-0.4c-4.7,0.6-9.4,0.3-14.2,0.4c-0.4,0-0.7,0-1.1,0c0-11-0.6-22.2,0.3-33.1
		c1-11,1.2-22.4,1.2-33.5c0-10.7-1.5-21.1-1.5-31.8c0-11.7-0.4-23.4-0.5-35.1c5.8,0.1,11.7,0.5,17.4-0.2c2.8-0.4,6.7,0.8,7.7-2.5
		c0.6-2-0.1-4.9-0.1-7c0-3.5,0.5-6.9,0.5-10.3c0-3.7,0.1-7.4-0.3-11.1c-0.2-2.1,0.3-5.9-0.9-7.7c-1.9-3.1-8.6-1.2-11.5-0.9
		c-3.6,0.3-7.2,0.5-10.8,0.7c0-25.2-0.7-50.4-0.5-75.6c0-0.2,0-0.4-0.1-0.5c8.4,0,18.2-0.4,25.7-3.8
		C591.9,547.3,591.9,546,591.3,545.4z M516.7,434.9c0.3,0,0.6-0.1,0.9-0.2c2.7-1.3,8.2,1.4,10.9,2.1c3.8,1,7.6,2.3,11.3,3.8
		c9,3.5,16.1,10.1,20,18.9c3.7,8.4,3.6,17.5,3.6,26.5c0,9.2,0.5,18.2,0.5,27.4c-0.8,0-1.5-0.1-2.3-0.2c-5-0.5-9.8-0.2-14.7-0.3
		c-2.6-0.1-5.4-1.2-7.9-0.6c0.1-2.1,0.3-4.3,0.6-6.4c1.4-8.9,1.5-18.1,0.5-27.2c-0.3-2.8-1-5.6-1.1-8.4c0-1.9,0.2-3.9,0.1-5.8
		c-0.2-3.2-1.2-6.2-3.7-8.4c-4.6-4.1-11.5-3.7-17.2-3.7c-0.3-0.2-0.6-0.4-1-0.4c-0.3,0-0.6,0.1-0.9,0.1c-0.1-1.4-0.1-2.8-0.1-4.1
		C516.2,443.5,516.7,439.2,516.7,434.9z M508.4,440.2c0-4.5-0.9-10.6,0.6-14.9c2.2-6.2,4,2.8,4.5,5.3c0.9,5.2-0.1,10.5-0.3,15.7
		c-0.4,8.2,2.3,17.9-0.7,25.8c-0.3,0.9-0.1,1.8-0.9,1.5c-0.7-0.2-1.1-2.5-1.3-3.1c-0.7-2.8-0.9-5.8-1.2-8.7c-0.2-2-1-5.1-1-7.5
		c0.3-0.3,0.6-0.6,0.6-1.1C508.7,448.9,508.4,444.6,508.4,440.2z M512.4,477.4c2-0.3,3-3.1,3.5-5.8c1.4,1.9,0.2,5.8-0.8,7.5
		c-1.3,2.1-4.7,4.2-7.3,3.6c-2.3-0.5-3.7-3.4-4.3-5.4c-0.6-2.2,0-8.2,3.4-8.4C507.4,471.7,508.6,478,512.4,477.4z M487.6,450.9
		c0.3-5.2,0.6-10.3,0.4-15.4c5.5-0.1,10.9-1,16.4-1c0.4,0,0.8-0.2,1-0.4c0,5.7,0.2,11.4,0.3,17.1c-0.1,0.1-0.1,0.2-0.2,0.4
		c0,0,0,0.1,0,0.1c-2.2,0-4.3-0.5-6.5-0.3c-3.7,0.3-7.4,0.7-11.1,0.8c-0.1,0-0.2,0-0.3,0C487.6,451.9,487.6,451.4,487.6,450.9z
		 M480.6,450.5c0.1-4.5,0.3-8.9,0.3-13.4c0-1.8-0.1-3.6,0-5.3c0.2-2.6,1.7-10.6,3.4-3.4c1.9,8.1,0.4,16.7,0.2,24.8
		c-0.1,3.8,0.1,7.6,0.3,11.4c0.1,2.1,0.4,4.2,0.3,6.3c0.1,1.7-0.1,3.4-0.8,5c-0.2,0-0.3-0.1-0.5,0
		C477.6,473.8,480.5,455.9,480.6,450.5z M483.2,478.9C483.2,478.9,483.2,478.9,483.2,478.9c0,0,0.1,0.1,0.1,0.1
		c0.3,0.4,1,0.6,1.5,0.4c3.5-1.2,3.5-5.6,3.4-8.8c1.7,1.4,3.2,2.9,2.6,5.8c-0.6,2.9-3.4,6.3-6.3,6.9c-2.5,0.5-5.7-0.3-7.4-2.3
		c-1.3-1.4-2.1-4.1-2-6.1c0.2-2.4,1.1-3,2.5-4C478.1,474.5,479.4,477.8,483.2,478.9z M459.6,435.8c0.1,0.1,0.2,0.1,0.4,0.2
		c5.5,1.8,12-0.3,17.7-0.4c-0.2,5-0.1,10-0.1,14.9c0,0.3,0,0.7,0,1c-6.1,0-12.1,0.8-18.1,0.9C459.9,446.8,460.2,441.3,459.6,435.8z
		 M450.7,431.1c0.2-2.1,0.9-7.9,4.1-3.5c1.6,2.1,1.7,7.7,1.8,10c0.1,3.1,0,6.2,0,9.3c-0.1,6-0.7,12.1-0.9,18.1
		c-0.1,2.6-0.1,5.2-0.3,7.8c0.4,2.9-0.2,3.4-1.8,1.5c-1.1-0.3-1.6-1-1.6-2c-0.3-0.7-0.2-1.5-0.4-2.3c-1.4-5.9-0.9-11-1.1-16.9
		c0.2-0.5,0.3-1,0.3-1.7c0.2-4.6-0.7-9.3-0.6-13.9C450.4,435.4,450.5,433.3,450.7,431.1z M448.6,470.1c0.2,0.9,0.4,1.9,0.6,2.8
		c0.7,3.2,3.9,8.1,7.7,5.2c1.6-1.2,1.5-3.4,1.6-5.3c0.1-1,0.1-2.1,0.1-3.1c5.4,2.4,1.2,13.1-5,11.9c-2.5-0.5-5-1.8-6.3-4
		C445.6,474.8,446.2,471.8,448.6,470.1z M429.9,437.1c2.6,0,5.2,0.2,7.8,0c1.8-0.2,3.4-0.5,5.2-0.4c1.5,0.1,2.9,0.3,4.4,0.4
		c-0.1,3.4,0.1,6.8,0.4,10.1c0.4,4.5,0.9,4.6-3.5,4.5c-4.8-0.1-9.4,0.4-14.1,0.6c-0.2,0-0.5,0.1-0.6,0.2c0-5.3-0.2-10.5-0.5-15.8
		C429.2,436.9,429.5,437.1,429.9,437.1z M423.1,440.5c-0.2-2.7-0.6-5.4-0.5-8.1c0.1-1.6,0.1-3.9,0.8-5.4c1-2.3,0.9-1.6,1.6,0
		c0.8,2.1,0.5,5,0.7,7.2c0.3,2.8,0.8,5.5,0.8,8.3c0.1,6.5-0.1,13.1-0.1,19.7c0,3.1,0.3,6.3,0,9.3c-0.7,6.6-2.5,0.9-2.7-1.5
		c-0.1-1.6-0.2-3.2-0.3-4.8c-0.2-2.4-0.4-4.8-0.7-7.2c-0.1-1,0-2.4-0.3-3.6C424,450.6,423.4,444.5,423.1,440.5z M421.7,475.7
		c1.3,2.9,4.5,4.3,6.5,1.2c1.4-2.2,1.3-5.7,1.3-8.3c2.9,1.8,2.3,7.1,0.3,9.5c-1.8,2.1-4.2,2.7-6.9,1.8c-2.4-0.7-4.3-2.5-4.9-5
		c-0.6-2.8,0.4-4.7,2.5-6.2C420.7,471.1,420.8,473.6,421.7,475.7z M405.3,436.9c4.8-0.6,9.7-0.4,14.5-0.3c0.1,1.7,0.3,3.5,0.4,5.2
		c0.1,2.9,0.6,7.1,0,10.3c-0.5-0.1-1.1-0.1-1.6,0c-2.9,0.1-5.5,0.4-8.5,0.2c-2.7-0.2-6.8-0.9-9.7-0.1c0-5,0.1-10-0.2-15
		C401.8,437.5,403.6,437.1,405.3,436.9z M396.1,426.1c1.5,1.2,0.9,9.2,1.1,11.2c0.4,4.6,0.4,9.2,0.3,13.8c-0.1,3.8,0,7.5,0.5,11.2
		c0.3,2.6,0.8,5.2,0.7,7.8c-0.1,2.2-1.1,7-3.1,2.9c-0.3-0.7-0.6-5.1-0.7-6.1c-0.2-1.9-0.4-3.9-0.5-5.8c-0.2-2.8-0.3-5.6-0.7-8.3
		c0-0.2-0.1-0.3-0.2-0.5c-0.1-4.2-0.1-8.5-0.4-12.6C393,438.3,391.9,423,396.1,426.1z M392.7,473.9c0.8,3.5,3.8,8,7.1,3.8
		c1.7-2.2,2.1-5,2-8c1.6,1.7,1.6,5.2,1,7.1c-1,3-3.6,5.3-7,4.6c-2.9-0.7-6.1-3.5-6.2-6.6c0-2.4,0.9-3.8,2.4-5.2
		C392.2,471,392.4,472.5,392.7,473.9z M378.7,437.9c3.6-0.4,7.5,0.4,11-0.5c0,0,0.1,0,0.1-0.1c-0.1,5.6,0.3,11.1,0.6,14.2
		c-2.2,0-4.5,0.4-6.5,0.4c-2.7,0-7.1-1-9.9-0.1c0-1.5-0.1-3-0.1-4.5c-0.1-3.1-0.4-6.3-0.6-9.4C375,438.4,377,438.1,378.7,437.9z
		 M365.7,427c0.3-4.2,3.4-3.9,4,0c0.1,0.4,0.3,0.7,0.5,0.9c-0.8,8.2,0.3,17.1,0.6,25.3c0.2,4.3,0.4,8.4-0.1,12.7
		c-0.3,2.9-0.6,5.8-1.3,8.6c-1.5,5.9-2.2-0.5-2.5-3c-0.9-8.5-0.1-17-0.8-25.4c-0.3-4.6-0.5-9.2-0.6-13.8
		C365.7,430.6,365.6,428.8,365.7,427z M363.8,468.8c0.1,0.9,0.1,1.9,0.2,2.8c0.2,2.5,0.6,9.5,4.6,9.1c3.8-0.3,4.4-7.4,4.7-10.5
		c1.7,2,2,4.1,1.2,6.9c-0.8,2.9-3,4.6-6,5c-3.2,0.4-5.9-1.3-7.4-4c-1.6-2.9-1.7-8.3,2.5-9.2C363.8,468.8,363.8,468.8,363.8,468.8z
		 M343.4,436.3c1.8,1.3,3.4,0.6,5.6,0.2c4.2-0.8,9.3-0.2,13.4,0.5c0.2,0,0.4,0,0.6,0c0.2,4.3,0.4,8.6,0.5,12.9c0,0.6,0,1.2,0,1.8
		c-6.5,0-13,0.6-19.5,1.2C343.5,447.4,343.3,441.8,343.4,436.3z M335.8,454.8c0.4-4.5,0.7-8.8,0.6-13.4c0-3.1,0.3-6,0.8-9
		c0.2-0.9,0.4-3.7,1-4.5c0.7-0.4,1.3-0.8,2-1.2c0.1,0.4,0.1,0.7,0.2,1.1c1.2,2.1,0,6.2-0.1,8.6c0,2.7,0.2,5.3,0.3,7.9
		c0.4,5.8,0.5,11.7,0.6,17.5c0.1,3.2-0.1,6.5-0.8,9.6c-0.2,0.9-0.7,3.9-1.6,4.3c-1.2,0.5-1.7-4.4-1.7-5c-0.4-4.6-0.2-9.9-1.4-14.4
		c-0.1-0.3-0.2-0.5-0.2-0.7C335.7,455.2,335.8,455,335.8,454.8z M335.4,476.6c2,3.8,5.2,2.6,6.8-0.7c1.1-2.2,1.6-4.6,1.9-7
		c2.8,1.7,2.9,7.1,0.9,9.4c-1.9,2.1-4.9,2.5-7.5,1.7c-2.3-0.7-4.4-2.4-5.1-4.8c-0.5-1.7-0.3-5.6,1.7-6.4
		C334.3,471.3,334.2,474.3,335.4,476.6z M326.1,437.7c1.2,0,2.4,0.2,3.7,0c1-0.2,1.9-0.6,3-0.7c0.4,0,0.7-0.2,0.9-0.4
		c-0.7,5.6-0.3,11.3-0.7,17c-0.4,0-0.8,0-1.3,0.1c-4.5,0.7-10.1,0.3-14.5-1.2c0.3-5,0.3-9.9-0.1-14.8
		C320,437.7,323,437.6,326.1,437.7z M308.5,427.1c0.3-1.3,1.9-5,3.2-1.3c0.1,0.4,0.3,0.6,0.6,0.8c0,0,0,0.1,0,0.1
		c1.8,8,2.2,16.9,1.8,25.1c-0.3,5.3-0.7,11.1-1.6,16.3c-0.2,0.9-0.4,5-1.1,5.5c-1.6,1.4-1.8-2.1-2-2.9c-1.3-7-0.2-13.6-0.2-20.6
		c0-4.4,0-8.7-0.4-13.1c-0.2-2.1-0.5-4.1-0.5-6.2C308.3,429.7,308.2,428.4,308.5,427.1z M311.3,478.3c3-0.6,3.8-5.6,4.2-9
		c0.5,0.6,0.5,2.9,0.5,3.2c0,1.5-0.3,2.8-1.2,4.1c-1.3,1.8-3.7,3.1-6,3.2c-2.9,0.1-5.2-2.3-5.9-5.1c-0.6-2.2,0.6-6.2,3.2-6.8
		c0.2,1.5,0.4,3,0.7,4.5C307.2,474.7,308.1,478.9,311.3,478.3z M287.4,438.4c2.9,0,5.5-0.2,8.4-0.5c1.7-0.2,3.3,0,5-0.1
		c1.4-0.1,2.6-0.7,4-0.7c0.4,0,0.7-0.1,1-0.4c0.6,5.4,0.4,10.7,0.2,16.1c-0.2-0.1-0.4-0.1-0.6-0.1c-6,0.1-12.1-0.3-18.1-0.3
		c0,0,0,0,0,0c-0.1-4.7-0.3-9.4-0.5-14.2C286.9,438.3,287.1,438.4,287.4,438.4z M278.9,447.6c-0.2-3.5-2.6-24.1,3-22.9c0,0,0,0,0,0
		c1.9,2.3,1.6,7.6,1.7,10.5c0.2,4.2,0.2,8.5,0.3,12.8c0.1,4.4,0.2,8.7,0.1,13.2c-0.1,2.1-0.1,4.2-0.4,6.3c-0.1,1.1-0.3,2.3-0.6,3.4
		c-3.1,0.7-4.6-0.1-4.4-2.4c-0.8-3.3,0-7.5,0.3-10.9C279,454.2,279.1,450.9,278.9,447.6z M285.3,473c0.4-0.8,0.7-1.7,1-2.6
		c0.5,1.5,0.6,3.1,0.2,4.8c-1,3.6-3.2,5-6.8,4.1c-2.4-0.6-4.9-2.3-5.9-4.6c-0.6-1.4-0.7-5.9,1.4-6.9c0.1,2.7,0.6,5.3,2,7
		C279.8,478,283.6,476.1,285.3,473z M255.4,452.7c0-4.5,0.2-9.1,0.3-13.6c0.1,0,0.2,0,0.3,0c6.3-0.1,13-0.2,19.2-1.3
		c0.2,2.7,0.4,5,0.4,6.3c0,2.6,0.1,5.2,0.1,7.8C268.9,451.8,262.2,452.6,255.4,452.7L255.4,452.7z M254.5,470.4
		c0.2,0.2,0.3,0.4,0.4,0.6c0.6,1.2,0.4,2.8,0.3,4.1c-0.1,2.6-0.9,4.6-3.9,5c-2.7,0.3-6,0.2-7.4-2.5c-1.3-2.4-1.1-6.4,1.3-8.2
		c0.2,3.3,0.8,7.8,3.9,8.5C252.1,478.6,253.7,475,254.5,470.4z M250.9,427c0.1,0,0.2,0,0.3,0c2.9,0.7,1.2,9.1,1.2,11.3
		c-0.1,4.2,0.3,8.4,0.1,12.7c-0.1,4.3,0,8.5-0.5,12.9c-0.2,1.8-0.3,3.5-0.6,5.3c-0.1,1.3-0.3,2.5-0.6,3.8c-1.8,0.2-2.5-0.4-2.3-2
		c-1.2-2.9-0.3-7.6-0.3-10.8c0-3.7,0.2-7.5-0.1-11.1C247.8,445.2,244.8,427.2,250.9,427z M206.1,583.7c-0.1-18.6,0.1-37.5,1.4-56.1
		c1.3-18.5-0.1-37.1,1-55.6c0.6-9.6,1.7-19.9,10.2-25.9c7-4.9,16.9-7.5,25.4-7.8c0,0,0,0,0,0c0.1,3.8,0.6,7.4,0.8,9.3
		c0.2,1.6,0.3,3.1,0.3,4.7c-0.1,0-0.3,0-0.4,0c-7.6,0.4-13.2,4.5-18.2,10c-5.5,6-6.2,13.8-6.3,21.6c-0.1,22.3,0.1,44.7,0,67.1
		c0,5.2-0.7,10.5-0.1,15.7c0.6,5,1.4,9.7,1.3,14.7c-0.1,4.7-0.4,9.5,0,14.3c0.4,5.2,1.3,10.1,1.3,15.3c0,5.1-0.1,10.3-0.2,15.5
		c-4.5,3.4-9,6.7-13.6,10c-0.6-1.7-0.3-4.9-0.4-6.3c-0.2-2.3-0.3-4.7-0.5-7c-0.3-3.9-0.6-7.9-1-11.8c-0.4-4.2-0.2-8.3-0.3-12.5
		C206.8,593.8,206.1,588.8,206.1,583.7z M191.1,725.4c-5.5-7.8-11.2-15.5-16.9-23.2c-3-4.1-5.9-8.1-8.7-12.3
		c-2.4-3.6-5.7-6.7-8-10.3c20.4-18.2,43.1-33,64.9-49.3c-0.1,4.4-0.1,8.8,0.1,13.3c0.2,5.2,1.1,10.2,1.7,15.4
		c0.6,5.2,0.4,10.5,0.1,15.7c-0.4,10.5-0.1,20.9,0.5,31.5c0.3,5.5,0.4,10.9,0.5,16.4c0.1,5.2,1.3,10.2,1.4,15.3
		c0.2,7.5,0.4,15.2,0.4,22.8c-0.6,0.3-1.2,0.8-1.7,0.9c-3.5,1.1-4.3-0.8-6.2-3.3c-2.7-3.5-6.1-6.4-9.1-9.5
		C203.2,741.4,196.9,733.6,191.1,725.4z M425.3,905.6c-1,0.5-3-0.1-4.1-0.2c-2.9-0.3-5.2-0.5-8.2-0.3c-6.1,0.5-12.2,1-18.3,1
		c-12.3-0.1-24.8,1.4-37,2.8c-25.6,2.8-51.5,0-77.2,1.5c-5.6,0.3-11.1,0.8-16.6,0.5c-6.1-0.4-12-1.5-18.1-1.4c-3,0-5.9-0.4-8.9-0.6
		c-3.3-0.2-6.7,0-9.9-1c-5.3-1.7-9.8-8.3-12.9-12.7c-3.7-5.2-5.3-10.6-6.2-16.8c-0.5-3.5-1.2-6.9-1-10.5c0.1-3.2,1-6.3,1.4-9.5
		c0.7-5.6,0.6-11.4,0.7-17.1c0.1-2.8,0.8-5.5,0.7-8.3c-0.1-2.7-0.6-5.5-0.6-8.2c-0.1-6.6,1.4-13.3,0.4-19.8
		c-1-6.9-1.1-13.8-2.1-20.7c-1-6.5-1.6-13.4-1.7-20c-0.1-3.1,0.7-6.2,0.8-9.3c0-2,0.2-4,0.4-6c2,2.1,4,4.3,6.1,6.3
		c2.2,2.2,3.9,4.4,5.8,6.8c1,1.3,2,2.8,3.6,3.4c2.8,1.1,3.5-0.7,5-1.8c0,1.8,0,3.7-0.1,5.5c-0.1,4.8-1.1,9.4-1.6,14.2
		c-0.5,5.2-0.2,10.6-0.2,15.8c0,5.1-0.2,10.1,0.5,15.1c0.7,5.9,0.7,11.4,0.8,17.3c0.1,4.9,1.2,9.6,1.3,14.5
		c0.1,4.5,0.2,8.9,0.8,13.3c1,7.9,2.9,16,7.8,22.5c4.6,6.1,11.2,10.1,18.2,12.8c7.7,3,15.3,4.7,23.6,4.3c9.6-0.4,19.2-1.9,28.7-3.2
		c10.9-1.4,21.7,1.4,32.7,1.5c10.6,0.1,21.1,1.4,31.8,1.3c10.7-0.1,21.3-1.3,32-1.3c7.5,0,14.9,0,22.2-0.5c0,2.8,0.2,5.6,0.3,8.4
		C425.9,905.4,425.6,905.5,425.3,905.6z M463,930.8c-1.1-0.7-2.3-2.2-3-2.8c-1.7-1.2-3.4-2.1-5.2-3.2c-2.3-1.4-5.8-6.5-8.7-6.4
		c-2.4,0.1-4.4,3.2-6.1,4.7c-2.5,2.3-5.6,7.6-9,9.4c-1.4-4.9-1.1-11.4-1.2-16.3c-0.2-6.5-0.9-12.9-1-19.4c2.1-0.2,4.2-0.4,6.4-0.8
		c8.8-1.4,17.7-1.3,26.6-1.1c0,6.4-0.3,12.9,0,19.3C462.1,919.4,463.8,925.5,463,930.8z M463.1,892.1c-10-0.1-19.6-0.2-29.6,1.3
		c-10.6,1.6-21.2,1.2-31.9,1.3c-10,0-20,1.2-30,1.3c-4.7,0-9.4,0.1-14.1-0.1c-5.3-0.2-10.5-1.2-15.8-1.2c-4.6,0-9-0.6-13.6-0.9
		c-4.6-0.4-9.4-1.4-14-1.4c-9.7-0.1-19.6,2.8-29.3,3.6c-16,1.4-35.8-1.9-46-15.7c-5.7-7.7-7.2-18.2-7.7-27.5
		c-0.5-9.2-1.4-18.3-1.3-27.5c0-4.9-1.1-9.5-1.3-14.3c-0.3-5-0.1-10.1-0.1-15c0-5.1-0.1-10.2,0.5-15.3c0.6-4.3,1.2-8.5,1.2-12.9
		c0.2-19.6-1.2-39.1-2.1-58.6c-0.5-10.3-1.2-20.5-0.7-30.8c0.2-4.4,0.4-8.8,0.4-13.2c-0.1-5-1.1-9.9-1.6-14.8c-1-10-0.2-20-0.2-30
		c0-4.8,0.2-9.6,0-14.4c-0.1-4.5-1.4-8.9-1.5-13.4c-0.1-4.8,0.3-9.5,0.2-14.3c-0.1-4.7-1.3-9.2-1.6-13.9
		c-0.5-10.1,0.3-20.5,0.3-30.7c0-10.8,0-21.6,0-32.4c0-9.1-1.4-19.7,1.1-28.5c2.4-8.6,11.4-16.5,20.4-17c0.2,0,0.3,0,0.4-0.1
		c0,3.6-0.2,7.2-0.1,10.7c-3.5,1.4-5.8,5.8-5.1,9.4c0.9,4.8,4.1,7.4,8.9,7.5c3.9,0.1,7.9-0.8,8.9-5c0.5-1.9,0.6-4.3,0.3-6.2
		c-0.3-2.2-1.3-2.9-2.5-4.5c-0.2-0.2-0.4-0.4-0.6-0.5c0.4-4,0.5-8.3,0.4-11.1c6.8,0,13.5-0.9,20.3-0.9c0,1.7-0.1,3.4-0.2,5.1
		c-0.1,1.4-0.3,3-0.3,4.8c-3,0.7-4.7,4.2-4.9,7.1c-0.4,4.6,3.4,8.5,7.4,10.1c3.9,1.5,8.2,1.1,10.4-2.8c2.4-4.2,2-8.7-0.5-12.7
		c-0.2-0.3-0.4-0.4-0.6-0.5c0.3-3.3,0.2-6.8,0.2-9.6c0-0.3,0-0.5,0-0.8c6,0,12.1,0.4,18.1,0.3c0.2,0,0.3,0,0.5-0.1
		c-0.1,3.1-0.2,6.3,0,9.4c-3.6,0.7-6.1,4.9-6.1,8.4c0,4.6,4,9.4,8.7,9.4c4.3,0,8.5-2.6,10.1-6.7c1-2.8,1.2-9-2.6-9.8
		c0.4-3.5,0.8-7.1,1-10.6c3,0.9,6,1,9.1,1.3c1.1,0.1,2.3,0.3,3.4,0.3c0.7,0,2.6-0.7,3.1-0.6c1,0.3,1.4,5.6,1.6,9
		c-3.6,0.8-5.2,5.6-4.7,9c0.7,4.4,4.6,7.6,8.8,8.4c4.3,0.9,9.2-1.3,10.7-5.6c1.5-4.4,0.3-10.2-4.4-11.9c0.1-3.3-0.1-6.7-0.3-9.7
		c6.4-0.6,12.9-1.1,19.3-1.1c0,3.7,0.1,7.4,0.3,11.2c-0.2-0.1-0.5-0.1-0.7,0c-4.2,1-6.6,6.2-5.7,10.3c1,4.6,4.8,8.3,9.5,8.8
		c4.1,0.4,8.6-1.4,10.2-5.3c1.9-4.7,1.4-8.8-2.1-12.3c-0.3-0.3-0.7-0.5-1.1-0.4c0.4-4,0.4-7.9,0.3-11.8c0.2,0,0.4-0.1,0.6-0.2
		c0.1-0.1,3.6,0.2,4,0.2c2.2,0,4.5,0,6.7,0c1.2,0,2.4,0,3.5,0c2.4,0,1.4-0.8,2.2,1.4c0.9,2.6,0.5,6.5,0.8,9.2c0,0.2,0,0.5,0.1,0.7
		c-0.3,0-0.7,0.1-1,0.3c-1.7,1.4-3.1,2.3-3.7,4.6c-0.6,2.2-0.8,4.5,0.1,6.7c1.8,4,6.5,7.1,10.9,6.6c8.1-1,11.5-15.3,3.3-18.5
		c-0.2-2-0.6-3.9-0.8-5.6c-0.2-1.8-0.3-3.5-0.4-5.3c2.2-1.1,7.4-0.1,9.8,0.1c1.2,0.1,2.4,0.2,3.6,0.1c1.2,0,4.2-0.8,5.2-0.3
		c1.4,0.7,1.4,8.6,1.5,10.2c0,0.1,0,0.2,0,0.2c-0.2,0-0.5,0.1-0.8,0.2c-3.7,2.2-5.6,5.5-4.5,10c1,4.3,4.8,7.1,9.1,7.5
		c9.6,1.1,14.8-15,5.2-17.9c0-3.3,0-6.7,0-10c0.2,0.1,0.4,0.1,0.6,0.1c5.7-0.3,11.3-0.4,17-0.5c0.2,0,0.3,0,0.5,0
		c0,3.3-0.4,6.6,0,9.9c0.1,0.7,0.2,1.5,0.3,2.2c-2.2,1-3.1,1.7-4.1,4.4c-0.8,2.2-0.7,4.5,0.3,6.6c2,4.3,7.1,7.3,11.9,6.8
		c8.3-0.8,11.7-15.8,2.7-18.1c0-1.7,0.1-3.3,0.1-5c0.1-2.1,0.2-4.2,0.4-6.3c6.1-0.1,12.1-0.8,18.2-0.9c-0.1,4.4-0.3,8.7-0.1,13.1
		c-0.1,0-0.3,0.1-0.4,0.2c-1.6,1.2-3.4,2.1-4.3,4.1c-1.1,2.6-0.5,6,0.5,8.5c1.6,3.9,5.8,6.2,10,6.1c4.8-0.1,8.3-3.6,10-7.8
		c1-2.3,0.9-4.1,0-6.4c-1.1-2.7-2.7-3.3-4.7-5.2c-0.2-0.1-0.3-0.2-0.5-0.3c-0.2-3.8-0.5-7.5-0.5-11.3c0.1,0,0.2,0,0.4,0
		c3.7-0.2,7.4-0.5,11.1-0.8c2.1-0.2,4.2,0.2,6.3,0.3c0.1,1.1,0.4,2.2,0.4,3.3c0.2,2.5,0.4,5.2,0.8,7.8c-4.2,0.6-6.6,6-6.3,9.9
		c0.3,3.8,2.6,8.5,6.5,9.7c4,1.3,8.9-1.4,11-4.8c2.1-3.4,3.1-9.7-0.9-12.2c-0.1-0.1-0.3-0.1-0.4-0.2c0-0.2,0-0.4,0.1-0.6
		c0.5-4.1,0.2-8.3-0.1-12.5c0,0,0.1,0,0.1,0c0.2,0.2,0.5,0.3,0.9,0.3h0.8c0,0,0.1,0,0.1,0c3.3,0,6.8-0.2,10,0.6
		c5.9,1.4,7.7,5.7,7.6,11.4c-0.2,9.1,1.8,18.2,1.7,27.4c0,4.2-0.8,8.2-1.3,12.4c-0.6,5-0.5,10.1-1.1,15.2c-1.2,10.3-0.8,21-0.9,31.4
		c-0.1,10,1.1,19.7,1.5,29.7c0.4,10.4,0,20.9,0,31.3c0,20.7-0.5,41.3-1.2,61.9c-0.2,4.5-1.2,9-1.4,13.5c-0.2,5.5,0,11.1,0,16.6
		c0,4.7,0,9.4-0.1,14c-0.1,5.5,1,10.3,1.4,15.6c0.7,7.9,1,15.8,2,23.7c0.7,4.9,0.2,9.6,0.3,14.5c0.1,4.6,1.5,9,1.5,13.7
		c0,4.6-0.5,9.4,0,14c0.5,5,1.6,9.9,2.3,14.9c0.6,4.8,1.1,9.7,1.4,14.5c0.2,4.9-0.4,9.9,0.1,14.8c0.2,2.1,0.9,4.2,0.9,6.3
		c0,1.8-0.5,3.6-0.8,5.4c-0.7,5.4-1.1,9.9-3.5,14.9c-4,8.1-9.9,11.5-18.4,13.8C501.9,891.9,482.2,892.2,463.1,892.1z M562.9,627.8
		c-1.3,0.1-2.6,0.1-3.8,0.2c-3.7,0.2-7.5,0.2-11.2-0.1c-1.7-0.1-7,0.7-8.2-0.1c-0.2-0.1-0.4-0.2-0.6-0.2c0.1-18.6,0.4-37.2-1.2-55.6
		c-0.5-6.2-0.6-12.5-0.4-18.8c3.8,0.1,7.6-0.4,11.4-0.4c2.4,0,4.2-0.6,6.6-0.9c2.4-0.4,4.8-0.2,7.2-0.2c-0.1,0.2-0.1,0.3-0.1,0.5
		C562.2,577.3,562.9,602.6,562.9,627.8z M561.4,800.1c-3-0.1-6-0.2-9-0.4v-19.2c0-4.9,0.7-10.4-0.1-15.2c-0.1-0.5-0.6-0.9-1-1
		c-3.5-0.9-7.4-1.1-11.1-1.1c0-0.4,0-0.7-0.1-1.1c-0.5-4.4-0.7-8.9-1.3-13.3c-0.3-2-0.8-3.9-1-5.9c-0.2-2.7,0.1-5.4-0.3-8.2
		c-1.5-10.5-1.1-20.9-1.1-31.6c0-12.2,0.8-24.3,1.5-36.4h22.7c0.1,0,0.2,0,0.2,0c0.1,11.4,0.5,22.8,0.5,34.2c0,11,1.5,21.8,1.5,32.8
		c0,10.8-0.3,21.9-1.1,32.7C561,777.4,561.4,788.8,561.4,800.1z M549.4,776.8c0,7.5,0,15.1,0,22.6c-2.5-0.2-5.1-0.3-7.6-0.3
		c-0.2-2.6-0.3-5.2-0.2-7.9c0.1-4.7-0.5-8.8-1.1-13.4c-0.5-3.9-0.1-7.8-0.1-11.7c2.9,0,8.3,0.1,9.1,1.2
		C550.4,768.7,549.4,775,549.4,776.8z M558.3,873.7c-0.4,6.2-1.8,12.9-5.2,18.2c-3.2,5-8.5,8.2-13.8,10.3
		c-11.3,4.6-23.3,5.4-35.4,5.3c-6.9,0-13.8-0.4-20.7-0.5c-6.2-0.1-12.4-1-18.6-1c0-3.7,0.2-7.4,0.2-11c1.4,0,2.7,0.1,4.1,0.1
		c10.5,0.1,20.4-0.4,30.8-1.7c15-1.8,33.3-2.8,41.2-17.7c1.7-3.2,3.3-6.7,3.9-10.3c0.6-4.1,1.4-8.6,1.4-12.7c0-4.6-0.9-9.1-0.8-13.8
		c0-0.7,0-1.3,0-2c0.3,0.3,0.7,0.5,1.1,0.5c2,0.1,3.7-0.1,5.7,0.1c2.3,0.3,4.8,0.2,7.2,0.1C559,849.7,559.1,861.7,558.3,873.7z
		 M571.1,803.1c3.4,0.1,7.3-1,10.6-0.7c3.4,0.3,2.8,2.4,2.7,5.2c-0.1,2.6-0.1,5.4,0.1,8c0.6,6.3,1,13.3,0.4,19.6
		c-6.7,1.5-14.1,0-20.9-0.6c-3.8-0.3-7.5,0.3-11.3-0.1c-1.1-0.1-2.1-0.5-3.2-0.5c-0.8,0-1.4,0.2-2.2,0.4c-0.6-0.5-1.5-0.4-2.1,0.2
		c-0.1-4.1-0.4-8.2-0.8-12.2c-0.7-6.9-1.8-13.5-2.5-20.3c6.3,0.2,12.5,1.2,18.9,1.1C564.3,803.1,567.7,803.1,571.1,803.1z
		 M567,630.6c5.1,0,10.1-0.9,15.3-1.1c0.9-0.1,1.8-0.1,2.8,0c1.1-0.2,1.2,0.1,0.5,0.9c0.2,0.6,0,1.4,0.1,2c0.3,3.8,0.8,7.5,0.8,11.4
		c0,5.6-0.6,11.2-0.5,16.8c0.1,2.3,0.4,2.3-1.9,2.4c-2.5,0.2-5,0.6-7.5,0.6c-12.8-0.2-25.6-0.1-38.4-0.1c0.5-8.4,0.9-16.8,0.8-25.2
		c0-2.5,0-5,0-7.5c0.7,0.3,1.2,0.3,2.3,0.3c2.8-0.1,5.3-0.3,8.1-0.1C555.2,631.5,561.1,630.6,567,630.6z M560.6,548.5
		c-7.7-0.1-15.4,1.8-23.1,1.6c0.1-3.9,0.2-7.8,0.2-11.7c0.1-5,0-10,0.5-15c0.3-2.6,0.4-5.2,0.5-7.8c0.1,0,0.3-0.1,0.4-0.2
		c2.1-1.2,7.7,0.5,10.2,0.4c4.5-0.1,8.7,0.1,13.1,0.4c7.4,0.6,15.2-0.5,22.6,0.1c-1.4,1.3-3.5,2.9-4.2,3.5c-2.4,2.3-5,4.4-7.6,6.6
		c-1.6,1.3-7.9,4.6-8,7.2c-0.1,3,5.7,3.7,7.6,4.6c3.1,1.4,5.7,3.3,8.6,5.1c1.5,0.9,3.7,1.7,5.6,2.7
		C579.1,548.9,568.8,548.6,560.6,548.5z"/>
	<path d="M620,869.5c-0.7-6.3-0.3-12.8-1.1-19.1c-0.6-4.8,0.5-9.7-4.1-12.8c-3.1-2-6.8-2.5-9.5,0.4c-3.4,3.7-3.9,9.8-4.4,14.6
		c-0.6,6.6,0.7,13.2,0.7,19.8c0,3.1-0.3,25.9,7.5,22.3c4.9-2.2,4.2-11.8,4.2-16c0-4.2,0.1-8.5-0.1-12.7c-0.1-3.7,0.6-7.2,0.7-10.9
		c0-0.1,0-0.1,0-0.2v-0.4c0-1.9-3-1.9-3,0c0,2.5-0.6,4.8-0.8,7.3c-0.2,2.8,0.1,5.7,0.1,8.6c0,2.8,0,5.6,0,8.4c0,2.5,0.7,7.5-0.7,9.7
		c0,0.9-0.6,1.4-1.6,1.4c-1.2,1.1-1.8,0.9-1.9-0.8c-0.6-1-0.5-3.1-0.6-4.3c-0.2-2.7-0.7-5.3-0.9-8c-0.4-5,0.2-9.9-0.4-14.8
		c-0.7-5.4-0.4-11.3,0.9-16.6c0.9-3.7,4.4-8.2,8.4-4.7c2.7,2.4,1.9,5.5,2.2,8.7c0.6,5.3,1.1,10.8,1.2,16.1c0,2.5,2,10.5,0.4,12.4
		c-1.2,1.5,0.9,3.6,2.1,2.1C621.9,876.8,620.3,872.9,620,869.5z"/>
	<path d="M694.3,189.9c-5.1-10.5-23.2,12-26.3,15.8c-4.2,5-9.7,10.2-10.5,17c-0.4,2.9-0.4,7.5,3.6,7.1c4.9-0.4,8.6-7.1,11.2-10.6
		c4.1-5.5,10.9-10.1,12.7-17.1c0.5-1.9-2.4-2.7-2.9-0.8c-1.3,4.9-5.7,8.9-9.1,12.4c-3,3.2-5,7.4-8.4,10.2c-0.6,0.5-3.2,3-4.2,1.9
		c-0.5-0.5,0.1-3.3,0.2-3.8c0.6-3,2.3-5.3,4.3-7.5c3.4-3.9,6.5-8.2,9.8-12.2c3.1-3.8,7.5-7.2,11.5-10c1.6-1.1,2.2-1.8,4.1-0.9
		c2.1,0.9,1.9,1.9,1.7,4.2c-0.2,2.8-1.2,5.6-2.4,8.1c-2.2,4.6-5.7,8.1-9.1,11.8c-2,2.2-5.1,4.9-5.7,7.9c-0.4,1.9,2.5,2.7,2.9,0.8
		c0.7-3.4,5.2-6.9,7.5-9.2c2.4-2.6,4.6-5.3,6.3-8.4C693.8,202,696.7,195,694.3,189.9z"/>
	<path d="M689.5,763.9c0.1-5.5-0.9-11.2-0.5-16.7c0.4-4.9-0.1-9.7-0.9-14.6c-1.7-10.1-1.3-20.4-1.5-30.6c-0.1-5.5-0.5-10.9-0.6-16.4
		c-0.1-5.7-0.6-11.6,0.1-17.2c1.3-10.2,2-20.7,2.1-31c0-5.2,0.9-10.4,0.8-15.6c-0.1-5.2-0.5-10.4-0.5-15.5c0-5,0.2-10,0.1-15
		c-0.2-5.7,0.8-11.2,0.6-16.8c-0.1-5.5,0.4-10.9,0-16.5c-0.4-6.2-2.2-12.3-2.3-18.6c-0.1-6.4-0.4-12.4-1.3-18.8
		c-0.8-5.9-0.5-11.7-0.5-17.7c0-0.2,0-0.4-0.1-0.6c0.3-0.2,0.5-0.3,0.7-0.5c1.5-1.4,1.3-3.9,1.2-5.7c-0.2-4.8-0.9-9.4-0.7-14.2
		c0.3-6.6,0.7-16.4-2.9-22.3c-2.7-4.4-11.6-4.7-16.2-4.9c-6.8-0.4-14.7,0.7-18.6,7.1c-1.6,2.6-1.1,5.1-1,8c0.1,4.7,0,9.4,0.3,14.1
		c0,0.3,0.1,0.6,0.3,0.8c-0.1,0.2-0.2,0.4-0.3,0.6c-1,2.5-0.1,6.1-0.1,8.7c0,3,0.2,6.6,1.7,9.3c-0.7,4,0.7,9.4,1.1,13.5
		c0.5,6.3,0.9,12.7,1.3,19c0.7,12.1,1.4,24.4,2.9,36.5c0.7,5.9,1,11,0.3,16.9c-0.7,6.2-1.1,12.3-1.9,18.5
		c-1.3,10.8-0.8,21.4-0.6,32.2c0.3,11.6-1.3,23.1-1.4,34.7c-0.1,12-0.1,24,0.3,36c0.2,5.4,2.2,10.7,1.7,16.2c-0.5,5.6,0,11.2,0,16.8
		c0.1,5.5,0.6,10.9,1.3,16.4c0.7,5.8,0.9,11.5,1.4,17.3c0.4,4.6-0.6,9.2,1.9,13.3c3.2,5.2,6,11.5,7.8,17.4
		c1.7,5.4,3.1,10.9,5.1,16.2c1.5,4.2,3.7,10.9,7,14c0.8,0.7,1.9,0.3,2.3-0.5c1.8-3.1,1.4-8,1.8-11.5c0.6-5.4,0.8-10.8,2.4-16
		c1.3-4.3,1.3-8.7,2-13.1c0.5-2.6,1.3-5.2,1.8-7.8c0.5-2.5,0.3-5.9,1.3-8.2c0.2-0.4,0.2-1-0.1-1.4
		C692.3,775.8,689.5,768.7,689.5,763.9z M652.9,461.5c5.3-5.5,14.5-4.1,21.2-2.7c1.4,0.3,3,0.4,4.3,0.9c2.9,1.1,3.3,3.8,3.9,6.6
		c0.7,3.5,0.9,7.2,1,10.8c0,1.1,0,2.1,0,3.2c-7.3-0.3-14.1,1.1-21.4,2c-3.3,0.4-6.8-0.1-10.1,0.3c-0.3,0-0.7,0.1-1,0.2
		c-0.1-2.9,0-5.8-0.1-8.7C650.6,469.8,649.6,464.9,652.9,461.5z M651.4,499.4c-0.6-1.8-0.5-3.9-0.5-5.7c0-1.5-0.3-3.3-0.1-4.8
		c-0.4-1.3,0-2.4,1.3-3.3c0.6,0,1.2,0.1,1.8,0.1c2.6-0.4,5.6-0.1,8.3-0.4c7.1-0.9,13.9-2.3,21-2c0,1.1-0.1,2.3-0.1,3.4
		c0.1,3.2,1,6.5,0.8,9.8c-0.1,2-0.1,2.6-1.7,3.6c-1.4,0.8-3.6,1.3-5.2,1.4c-3.4,0.3-7,0.4-10.4,0.6c-3.6,0.2-7.4,0.7-11,0.4
		C653.3,502.1,652.2,501.8,651.4,499.4z M659.2,778.5c-0.5-5.2-0.4-10.3-1.1-15.5c-0.8-5.4-1.4-10.8-1.6-16.3
		c-0.5-10.6,0.3-20.9-1.3-31.4c-1.7-11.2-1.1-23.1-0.9-34.3c0.1-11.5,1-22.8,1.4-34.3c0.4-11.7-1-23.2,0.2-34.9
		c1.1-10.1,3-20.4,3.1-30.6c0-6.2-1.4-12.5-1.9-18.7c-0.6-6.8-1.2-13.6-1.7-20.3c-0.5-6.7-0.8-13.4-1.2-20c-0.2-3.2-0.5-6.3-0.8-9.5
		c-0.2-2-0.9-4.9-0.9-7.3c0.1,0,0.3,0,0.4,0.1c4.4,0.5,9.6-0.3,14-0.5c0.5,0,0.9,0,1.4-0.1c-0.1,9-1,17.9-1,26.9
		c0,8.8-1,17.5-1.1,26.3c-0.2,18.6,0.4,37.2,1.5,55.8c1.1,18.5,2.4,37.1,3.5,55.6c0.3,4.3-0.1,8.6,0,12.9c0.1,4.8,0.9,9.5,1,14.2
		c0.2,8.8,0.8,17.4,1.5,26.2c0.9,10.2-0.2,20.3,0,30.4c0.2,9.2,1.9,18.3,2.4,27.5c0,0.1,0,0.3,0.1,0.4c-5.9,1.7-10.9,2.1-17,0.6
		C659.3,780.6,659.3,779.5,659.2,778.5z M685.8,785.6c-0.3,2.4-0.8,4.7-1.4,7c-1.2,5-1.2,10.1-2.4,15.1c-1.1,4.4-1.8,8.3-2.3,12.8
		c-0.5,0-1,0.2-1.3,0.5c0.2-0.2,0,0-0.1,0.1c-0.1,0-0.3,0.1-0.3,0.1c-0.3,0.1-0.6,0.1-0.9,0.1c-0.3,0-0.6,0-0.9-0.1
		c-0.2,0-0.1,0-0.3-0.1c0,0-0.1,0-0.1,0c0,0,0,0-0.1-0.1c-1-0.9-2.2-0.1-2.4,1c-1.7-5-3.2-10.2-4.7-15.3c-1.4-4.8-3.6-9.7-5.8-14.2
		c-0.9-1.8-2.3-3.4-3-5.3c-0.3-0.8-0.4-1.6-0.5-2.5c9.4,2.1,17.6-0.4,26.7-3c0,0,0.1,0,0.1,0C685.9,783.2,685.7,785.7,685.8,785.6z
		 M683.7,779.2c-1.5,0.5-3,0.8-4.5,1.1c-0.4-7.8-1.6-15.6-2.2-23.5c-0.6-8.9,0.4-17.8,0.2-26.7c-0.2-8.7-1.8-17.3-2-25.9
		c-0.2-9.2-1-18.3-0.9-27.5c0.1-8.9-1.1-17.8-1.5-26.7c-0.5-9.5-1.1-18.9-1.6-28.3c-1.1-18.6-1.7-37.1-1.9-55.8
		c-0.1-10.2,1.2-20.1,1.1-30.3c-0.1-10.3,0.8-20.6,0.9-30.8c2.6-0.1,5.2-0.2,7.7-0.6c0.9-0.2,2.1-0.4,3.2-0.7
		c0,4.7-0.4,9.2,0.1,13.9c0.5,5.2,1.6,10.3,1.8,15.5c0.2,5.1,0,9.9,0.9,15c0.9,5.2,1.7,10.7,1.6,16c-0.2,9.5-1.2,18.9-1,28.5
		c0.2,9.7,0.1,19.3,0.4,28.9c0.1,4.6-0.7,9.2-0.8,13.8c0,5.9-0.6,11.8-0.8,17.7c-0.2,4.5-0.4,8.9-1,13.4c-0.7,4.8-0.3,9.1-0.3,13.9
		c0.2,9.9-0.4,20.1,0.4,30c0.4,4.7,0.3,9.3,0.6,13.9c0.3,5.5,1.6,10.9,2,16.4c0.4,5.1-0.2,10.1,0.2,15.3c0.4,5.5,0.5,11,0.9,16.5
		C687.6,775.9,688.1,777.8,683.7,779.2z"/>
	<path d="M493.5,650c-0.4-4.2-0.9-8.7-1.5-12.9c-1.6-11.1-3.1-22.3-4.6-33.4c-0.7-5-1.8-10-2.7-15c-0.5-3,0-9.7-2-12.2
		c-2.9-3.5-13.3-0.9-17-0.3c-10.5,1.9-21.2,3-31.7,5c-10.3,1.9-20.4,2.7-30.4,5.6c-1.8,0.5-4.7,0.6-5.9,2.3
		c-1.5,2.3,0.7,6.4,1.1,8.8c1.9,12.1,3.1,24.3,5.6,36.3c2.3,11.4,4.7,23,7.7,34.3c-0.2,0.2-0.3,0.5-0.2,0.9c0.4,3,1.1,7.2,4.4,8.2
		c2.3,0.6,5.6,0,8,0c3.7,0,7.4-0.1,11.1-0.4c6.4-0.4,12.8,0.2,19.2-0.1c3-0.1,5.8-0.7,8.7-1.3c3.2-0.7,6.5-2.4,9.8-2.8
		c0.4,0.2,0.8,0.3,1.2,0.2c2.5-0.9,3.8-3.1,5.4-5.1c3.4-4.2,7.9-7.5,11.2-11.8C492.6,654.5,493.8,652.6,493.5,650z M400.5,591.6
		c0.3-1.5,5.6-2.4,7.2-2.9c4.5-1.4,9.1-1.9,13.8-2.4c9.1-1,18-3.1,27.1-4.1c8.5-1,16.8-3.3,25.4-3.8c1.1-0.1,2.5-0.4,3.6-0.2
		c2.2,0.4,2.5,1.1,3.1,3.4c0.8,2.8,1.1,6.1,1.5,9.2c-2.3,0.1-4.2,1-6.4,1.8c-3.1,1.1-6.2,1.8-9.3,2.4c-8,1.6-15.4,4-23.6,4.4
		c-7.3,0.3-14.7,1.4-22,2.1c-6.3,0.6-12.1,1.5-18.2,3.1c-0.1-0.5-0.1-1-0.2-1.6c-0.2-1.6-0.3-3.2-0.6-4.9
		C401.6,596.4,400.1,593.1,400.5,591.6z M486.5,657c-1.7,1.7-3.4,3.4-5.1,5.1c-1.8,1.8-4.2,6-6.6,7.7c-1.2-2.9-1.8-6.1-2.5-9
		c-0.4-1.5-0.8-3.1-1.1-4.6c-0.7-3.5-1-2.3,1.3-3c2.9-0.9,6.7-0.3,9.6-0.2c1.9,0.1,5,0.1,6.7,1.1c0,0,0.1,0,0.1,0
		C488.2,655.1,487.4,656,486.5,657z M489.9,651.5c-2.8-1.6-6.5-1.4-9.6-1.4c-3-0.1-8.6-0.8-11.3,1c-2.1,1.4-1.2,3.9-0.8,6
		c0.9,4.4,1.9,9.1,3.5,13.3c-3.7,0.7-7.2,2.3-10.9,3.1c-5.5,1.1-10.9,0.7-16.5,0.6c-5.2-0.1-10.3,0.6-15.5,0.7c-2.7,0.1-5.5,0-8.2,0
		c-3.3,0-4.8-0.9-5.5-3.6c0.3-0.3,0.5-0.8,0.3-1.3c-4.6-17.3-8.5-35.2-11.2-52.9c-0.5-3.1-0.9-6.3-1.3-9.4
		c13.3-3.6,27.9-4.5,41.7-5.3c6.7-0.4,12.9-2.2,19.3-3.7c3-0.7,6.1-1.2,9.1-2c3-0.9,6.3-2.8,9.5-2.8c0,0.1,0,0.3,0.1,0.4
		c1.8,9.1,2.8,18.2,4.1,27.3c1.2,8.7,2.8,17.7,3.3,26.5C490.2,649.3,490.1,650.4,489.9,651.5z"/>
	<path d="M473.6,616.9c-2.8-2.3-6.1-3.1-8.8-5.6c-1.6-1.6-3.4-3.2-5.8-2.3c-2.3,0.8-3.9,4.2-5,6.1c-0.7,1.2-1.3,4-2.4,4.8
		c-1.3,1-2.3-0.5-3.5-1.7c-1.9-1.9-3.5-4.6-6.2-5.6c-2.7-1-3.9,0.8-5.7,2.8c-1.3,1.6-4.9,8.7-7.5,8c-1.1-0.3-3.4-5.5-3.9-6.4
		c-0.6-1.1-1.1-2.2-2-3.2c-0.5-0.5-1.2-0.6-1.8-0.2c-1.9,1.2-2.6,2.6-3.7,4.6c-1.6,2.8-3.4,5.7-5.1,8.5c-1,1.6,1.6,3.1,2.6,1.5
		c1.3-2.1,2.5-4.2,3.8-6.3c0.9-1.5,1.7-3.5,2.9-4.9c2.2,3.5,4.4,11.3,8.6,10.2c2.1-0.6,4-4.2,5.2-5.7c1.1-1.4,3-5.4,4.7-5.8
		c2.2-0.6,4.4,2.8,5.6,4.1c2.7,2.9,6.1,5.8,8.7,1.5c1.9-3.2,3.4-10.3,8.4-8c1.1,0.5,2.2,2.2,3.3,2.9c1.6,1.1,4,1.5,5.4,2.7
		C472.9,620.3,475.1,618.1,473.6,616.9z"/>
	<path d="M1013,840.8c0-0.1,0.1-0.3,0.1-0.4c0-3.8,0.2-7.7-0.2-11.5c0-0.4-0.2-0.7-0.4-0.9c0-0.7-0.5-1.5-1.4-1.5
		c-1.6,0-3.1,0.1-4.7-0.1c-0.6-0.1-3-0.4-3.1-1.2c-0.4-1.7,6.1-1.9,7.1-1.7c1.3,0.2,2.1-1.1,1.8-2c0,0,0,0,0,0
		c-0.2-1.2-0.4-2.4-0.5-3.6c-0.1-1.5,0-3,0-4.5c0-0.6-0.3-1-0.7-1.3c-0.2-0.5-0.6-0.8-1.3-0.8c-1.1,0.1-8.8,1-8.1-1.2
		c0.2-0.8,2.3-1.1,3-1.2c1.7-0.1,3.3-0.2,5-0.2c0.2,0,0.4,0,0.6-0.1c0.6-0.1,1.1-0.6,1.1-1.4c0-2.1,0.2-4.2,0.2-6.3
		c0-1.1-0.9-1.5-1.7-1.4c-0.4-0.1-0.8-0.1-1.2,0.1c-0.2,0.1-2.4,0-2.5,0c-1,0.1-2,0.1-3-0.1c-1.9-0.2-2.3-0.8-1-1.8
		c1.4-2.3,5.2-1.8,7.4-1.4c1,0.2,2.3-0.7,1.8-1.8c-1-2.9-0.3-7.1-0.3-10.2c0-0.9-0.7-1.4-1.4-1.4c-0.1,0-0.3-0.1-0.5-0.1
		c-1.7,0-3.4,0.3-5.1,0.1c-0.7-0.1-2.9-0.4-3.2-1.2c-0.5-1.7,3.4-2,4.3-2.1c1.7-0.3,3.7-1.1,5.4-1.2c0.6,0,1-0.3,1.2-0.8
		c0.3-0.2,0.4-0.6,0.4-1.1c0-1.6-0.2-3.1-0.3-4.7c-0.1-1.4-0.5-3.1-0.1-4.5c0.2-0.8-0.2-1.4-0.7-1.7c-0.1-0.3-0.3-0.5-0.6-0.7
		c-1-0.5-1.8-0.4-2.9-0.3c-1.7,0.2-3.4,0.2-5.1-0.2c-1.2-0.3-1.9-1.2-0.6-2c0.8-0.4,1.7-0.5,2.6-0.6c1.6-0.2,3.8-0.8,5.4-0.3
		c0.5,0.2,0.9,0.1,1.2-0.1c0.5-0.2,0.9-0.6,0.9-1.3c0-4.1,0-8.1,0.2-12.2c0-0.4-0.1-0.7-0.3-0.9c-0.1-0.6-0.6-1.1-1.4-1.1
		c-1.4,0-9.9-0.1-6.5-2.4c1.2-0.8,5-1.9,6.4-1.3c0.9,0.4,1.9-0.6,1.9-1.4c-0.1-1.9,0.9-7.2-0.6-9.4c-0.1-0.8-0.6-1.4-1.5-1.4
		c-1.4,0-7.1,0.4-7-1c0.1-0.8,6.3-1.9,7.4-1.9c0.5,0,1.1-0.3,1.3-0.7c0.7-1.3,0.6-3.1,0.6-4.5c0-3-0.1-6.1-0.1-9.1
		c0-1.3-1.3-1.7-2.2-1.3c-1.2,0-2.3,0.1-3.5,0.2c-0.8,0.1-1.6,0.2-2.4,0.2c-1.2,0-2.4,0.1-1.7-1.2c1-2.2,5.7-1.5,7.6-2.3
		c0.6-0.3,1.1-0.7,1.1-1.4c0.1-2.9-0.1-6-0.2-8.9c0.3-0.9-0.1-2.1-1.3-2c-2,0.1-4.7,1-6.7,0.5c-2.5-0.6-1.2-1.4,0.7-1.8
		c1.6-0.4,3.6-0.7,5.3-0.3c1,0.3,1.8-0.5,1.9-1.4c0.2-2.5,0-5.1,0-7.7c0-1.8,0.2-3.6-0.6-5.2c0,0,0-0.1-0.1-0.1
		c0.1-0.2,0.1-0.5,0-0.8c0,0,0-0.1,0-0.1c-0.1-0.6-0.8-1.1-1.4-1.1c-1.4,0-9.4,1.1-8.4-1.2c0.4-1,4.1-1.2,5-1.3
		c1.2-0.1,2.3,0,3.4,0.3c0.9,0.2,1.9-0.4,1.9-1.4c0-3.4-0.5-6.8,0-10.2c0.1-0.5-0.1-0.9-0.4-1.3c-0.1-0.7-0.5-1.3-1.4-1.3
		c-2.3,0-5.3,0.7-7.4-0.7c-1.8-1.2,1.9-1.9,2.8-2.1c1.8-0.5,3.5-0.6,5.3-0.6c0.3,0,0.5-0.1,0.7-0.2c0.5-0.2,0.9-0.6,0.9-1.4v-0.1
		c0,0,0,0,0,0c0-3.5-0.1-6.9,0-10.4c0-0.5-0.2-0.8-0.4-1.1c0-0.4-0.1-0.7-0.4-1.1c-0.7-0.8-1.9-0.7-2.8-0.7
		c-1.5,0.1-2.9,0.2-4.3-0.3c-0.2-0.1-1.2-0.4-1.3-0.6c-0.1-0.4,0.8-0.9,1-1.1c1-0.5,2.2-0.2,3.2-0.1c1.5,0.1,2.9-0.1,4.3,0
		c1,0.1,1.4-0.6,1.4-1.4c0-0.1,0.1-0.3,0.1-0.5c-0.1-1.9-0.2-3.8-0.2-5.8c0-1.5,0.6-3,0.3-4.5c0,0,0-0.1,0-0.1
		c0-0.8-0.4-1.6-1.4-1.6h-0.1c0,0,0,0,0,0c-1.7,0-8.7,0.2-8.8-1.7c-0.1-2.1,7.5-2.4,8.8-2.2c0.6,0.1,1.4-0.1,1.7-0.7
		c0.7-1.5,0.4-3.2,0.2-4.7c-0.1-1.4-1-4.3-0.4-5.7c0.2-0.4,0.2-0.7,0.1-1c0.2-0.6,0.1-1.3-0.6-1.7c-0.9-0.5-1.5-0.3-2.5-0.2
		c-1.9,0.2-3.9,0.1-5.7-0.6c-1.4-0.5-2.1-0.4-1.1-1.6c0.8-1,1.4-1.1,2.6-1.2c1.5,0,4.4-0.5,5.7-0.1c1,0.3,1.8-0.5,1.9-1.4
		c0.3-3.1-0.1-6.5-0.1-9.7c0.1-0.3,0.2-0.6,0.1-1c0,0,0-0.1,0-0.1c-0.1-0.7-0.8-1-1.4-1.1c-3.1-0.4-6.6,0.4-9.6-0.9
		c-0.9-0.4-1.1-0.6-0.4-1.4c0.9-0.9,2-1.2,3.2-1.4c2.1-0.4,3.9-1.2,6.1-0.9c0.8,0.1,1.4-0.3,1.7-0.9c0.2-0.3,0.3-0.6,0.4-1
		c0.3-2.9-0.2-5.8-0.5-8.7c-0.1-0.6-0.4-1-0.8-1.2c0.2-0.9-0.3-1.9-1.4-1.9c-1.6,0-3.1,0.2-4.7,0c-1.2-0.1-5.9-0.3-4.3-2.2
		c1.8-2.2,6.7-2.1,9.2-1.5c1,0.2,1.8-0.4,1.9-1.4c0.2-3.1-0.2-6.3-0.2-9.4c0,0,0,0,0-0.1c0.2-0.8,0-1.7-1-1.9
		c-1.1-0.2-10.2-0.1-9.1-2.4c0.7-1.5,7.6-1.9,8.7-1.6c1,0.3,1.8-0.5,1.9-1.4c0.2-3.3-0.7-6.8-0.7-10.2c0-0.3-0.1-0.6-0.2-0.8
		c-0.1-0.7-0.6-1.2-1.4-1.2c-1.9,0.1-10.2,0.7-6.7-3c1.5-1.6,4.6-0.9,6.5-1c1,0,1.6-0.9,1.4-1.9c-0.6-3.1,0.5-6.3,0.3-9.4
		c0-0.1-0.1-0.2-0.1-0.3c0.2-0.7-0.1-1.5-1-1.8c-2-0.7-3.6-0.1-5.6-0.5c-3.2-0.6-2.6-1.9,0.4-3.4c1.4-0.7,3.6-1.5,5.2-1.1
		c1.2,0.3,2.1-0.7,1.8-1.8c-0.6-3.1-0.4-6.8-0.5-10c0-0.6-0.3-1-0.8-1.3c-0.1-0.1-0.3-0.3-0.5-0.4c-1-0.5-1.8-0.3-2.9-0.1
		c-1.8,0.4-4.7,0.4-6.2-1c-2.2-2.1,0.8-3.4,2.6-3.9c2-0.5,4.1-0.1,6.1,0c1.1,0,1.6-1,1.4-1.8c0.5-0.2,0.9-0.6,0.9-1.3
		c-0.1-2.3-0.4-4.8-0.9-7c-0.1-0.5-0.4-0.8-0.8-1c0.4-1.4-1.8-2.5-2.8-1.1c0,0.1-4-0.2-5.1-0.2c-3.5-0.1-6.8-0.5-10.3-0.5
		c-8.6,0-17.2-0.1-25.8,0c-8,0-15.9-0.7-24-0.5c-8.5,0.1-16.9,0.9-25.4,0.2c-16.7-1.4-33.7-1.7-50.5-2.1
		c-17.2-0.4-34.2,2.2-51.3,1.5c-4.7-0.2-9.4,0.1-14-0.3c-4.6-0.4-9.2-1.5-13.8-1c-9.6,0.9-19.3,2.7-29,2.8c-0.3,0-0.6,0.1-0.9,0.3
		c-0.9-0.5-2.3-0.1-2.3,1.2c0.2,10.6,0.5,21.5,1.9,32.1c1.7,12.4,3.6,24.8,4,37.3c0.7,22.8-2.1,45.7-0.3,68.5
		c1,12.1,1.4,24.4,1.2,36.5c-0.3,11.5-1.6,23-1.5,34.4c0.2,23.6-3.8,47.1-4.6,70.6c-0.4,13.3-1.6,26.5-1.9,39.7
		c-0.2,6.7-0.4,13.5-0.3,20.3c0.1,4.8,0.9,9.6,1.3,14.4c-1.6,0.2-1.5,2.9,0.3,3c0,0,0.1,0,0.1,0c0.6,0.7,1.8,0.8,2.4,0.1
		c15.3,1,30.6,2.2,45.9,1.2c7.7-0.5,15.5,1,23.3,0.9c8.7-0.2,17.4-0.4,26-0.8c8.3-0.3,16.6,0.4,24.9-0.2c8.5-0.6,17-1.5,25.5-2.1
		c3.7-0.3,7.3-0.3,11-0.5c4.3-0.2,8.6-1,13-0.7c8.5,0.5,16.4,0.7,24.9,0.2c9.4-0.6,18.8,0.4,28.3,0.1c10.1-0.3,21-2.6,31-0.3
		C1012.7,843.4,1013.5,841.8,1013,840.8z M987.6,839.7c-8.7,0.8-17.3,0.4-26,0.4c-8.6,0-17.1,1.1-25.7,0.8
		c-3.9-0.1-7.7-0.9-11.6-0.8c-4.3,0.1-8.6,0.7-12.9,0.8c-8.3,0.1-16.7,0.8-24.9,1.5c-8.5,0.7-16.8,1.1-25.3,1.1
		c-17.1,0-34.1,1.4-51.2,0.1c-4.3-0.3-8.4,0.3-12.6,0.5c-4.9,0.3-9.9-0.4-14.8-0.6c-8.3-0.3-16.6-0.7-24.9-1.2
		c-0.2-3.3-0.6-6.6-1.1-9.9c-1-6.5-0.2-13.5-0.1-20.1c0.1-12,1.2-23.9,1.7-35.9c1.1-23.6,3-47.2,4.8-70.8c0.4-5.2,0-10.5,0.3-15.7
		c0.4-6.5,0.8-13,1-19.5c0.5-11.7-0.1-23.2-0.5-34.9c-0.4-11.6-0.7-23-0.7-34.6c0-11.6,0.8-23.2,0.7-34.8c-0.1-12.9-1.1-25.6-3-38.3
		c-1.8-12.6-2.7-25.3-3-38.1c0,0,0.1,0,0.1,0c8.9-0.1,17.9-1.6,26.7-2.5c8.5-0.8,17,1,25.5,1c4.2,0,8.4,0.5,12.7,0.6
		c4.5,0.1,9-0.5,13.5-0.8c9-0.6,18.1-1.2,27.1-1.2c17.3,0,35,0.6,52.2,2c9.1,0.8,18.1,0,27.2-0.1c8.4-0.1,16.6,0.6,24.9,0.6
		c9.7,0,19.8-0.6,29.5,0.3c2.2,0.2,7.5,1.2,10.6,0.2c0,0,0,0.1,0,0.1c0.4,2,0.7,4.2,0.8,6.2c0,0,0,0.1,0,0.1c-2.8-0.1-5.2-0.3-8,0.9
		c-2.1,0.9-3.7,2.4-3.8,4.8c-0.1,2.2,1.8,3.9,3.7,4.7c1.2,0.5,2.6,0.8,3.9,0.9c0.7,0,1.4,0,2.2-0.1c0.2,0,1-0.3,1.4-0.4
		c0,2.5,0,5.3,0.3,7.8c-4.1,0.1-9.7,2.4-9.6,6.5c0.1,4.7,5.7,3.7,9.1,4.2c0.1,2.6-0.4,5.2-0.3,7.8c-3.6,0.1-8.4,0.7-9.3,4.8
		c-1,5,6,5.3,9.8,5.1c0.1,2.5,0.6,5,0.7,7.5c-1.9-0.1-4.1,0.3-5.8,0.7c-1.9,0.4-4.3,1.4-4.9,3.4c-1.9,5.7,6.2,5.5,10.2,5.8
		c0,2.3,0.2,4.6,0.2,6.8c-4.1-0.4-10.2,0.4-11.7,4.3c-2.2,5.6,8,5.6,11.9,5.5c0,0,0,0,0,0.1c0.3,2.4,0.6,5,0.6,7.4
		c-0.7,0-1.5,0-2.3,0.1c-1.8,0.4-3.9,0.7-5.6,1.3c-2,0.7-4.6,3.1-4,5.4c1,4.1,8,3.6,11.9,3.7c0.1,2.4,0.3,4.9,0.2,7.3
		c-0.6,0-1.2,0.1-2,0.2c-1.5,0.2-3.1-0.1-4.7,0.2c-2.1,0.5-4.1,1.8-4.4,4.1c-0.3,2.2,1.3,3.1,3.1,3.9c1.3,0.6,2.8,0.8,4.2,1
		c0.8,0.1,1.9,0.3,2.8,0.2c0.1,0,0.3-0.1,0.5-0.1c0,0.5,0,1,0,1.6c0.1,1.5,1,4.5,0.7,6.4c-3.9-0.3-9.9,0.6-11.1,4.5
		c-1.4,4.8,6.5,5.4,10.5,5.4c-0.1,0.5-0.3,1-0.3,1.4c-0.1,0.8-0.1,1.7-0.1,2.5c0,1.3,0.1,2.6,0.2,3.9c-0.6,0-1.2,0.1-1.9,0
		c-1.3,0-2.5-0.3-3.8-0.1c-2,0.3-4.2,1.7-4.5,3.8c-0.3,2.4,2.1,3.7,4.1,4.2c1.1,0.3,2.3,0.4,3.4,0.4c0.4,0,0.7-0.1,1.1-0.1
		c0.2,0,0.5,0,0.7,0c-0.1,3,0,6,0,8.9c-4,0.2-11.8,1.3-10.2,6.1c1.2,3.7,6.2,3.5,9.6,3.4c-0.3,2.7-0.1,5.3,0,8
		c-3.9-0.4-9.7,0.2-11,3.8c-1.8,5.3,7,4.8,10.9,4.6c0,0.2,0.1,0.4,0.1,0.6c0.7,1.5,0.1,4.3,0.1,6c0,1.2,0.1,2.5,0,3.7
		c-3.9-0.2-10.8,0.9-10.2,4.7c0.7,4.4,6.6,3.6,10.3,3.2c0,2.2,0.1,4.4,0.1,6.6c-0.9,0.1-1.9,0.2-2.6,0.4c-1.1,0.3-2.2,0.4-3.3,0.8
		c-1.7,0.7-3.5,2.3-3.5,4.3c0.1,4.6,6.7,3.7,10.4,3.4c0,2,0,4,0,6c0,0.9,0.3,2.5,0,3.4c0,0.1,0,0.1,0,0.2c-0.2,0.1-0.4,0.1-0.7,0.2
		c-2.6,0.9-6.5,0.5-8.4,2.7c-4.5,5,5,6,8.9,6.1c0.2,0.2,0.4,0.4,0.7,0.5c-1.3-0.4-0.4-0.1-0.6,0.8c-0.1,0.6,0,1.4,0,2
		c0,1,0,1.9,0,2.9c-1.6,0.1-3.5,0.6-4.8,1c-1.7,0.6-3.9,1.3-4.6,3.2c-1.8,4.9,5.3,5.6,9.1,5.7c-0.1,3.2-0.1,6.3-0.1,9.4
		c-2.1-0.2-4.5,0.3-6.4,0.7c-2,0.4-4.4,1.8-4.6,4.1c-0.2,2.2,1.7,3.7,3.7,4.1c1.3,0.3,2.6,0.4,3.9,0.4c0.5,0,2.5-0.4,3.2-0.3
		c-0.4,2.6,0.2,5.5,0.4,8.1c-0.9,0.2-1.8,0.6-2.8,0.8c-1.6,0.3-3.1,0.5-4.7,0.9c-2,0.5-4.1,2.1-3.9,4.3c0.3,4.6,6.5,4.5,10.2,4.3
		c-0.1,2.4-0.3,5,0,7.4c-4.2-0.2-10.6,0.7-10.1,5.2c0.2,2,2.8,3.5,4.5,3.9c1.5,0.4,4.2,0.7,6.2,0.3c0,1-0.1,1.9-0.1,2.9
		c-3.6,0-9.3,0.2-9.9,4.3c-0.3,2.2,1.7,3.4,3.5,4.1c2.3,0.8,4.5,0.5,6.8,0.3c0,1.4-0.1,2.8,0,4.1c0.1,0.7,0.2,1.3,0.3,1.9
		c-1.6,0-3.3,0.2-4.9,0.6c-1.8,0.5-3.4,1.7-3.8,3.6c-0.9,4.6,6.1,4.8,9.7,4.8c0.3,3.4,0.1,6.8,0.1,10.2
		C1002.9,838.5,994.7,839.1,987.6,839.7z"/>
	<path d="M979.7,517.4c-15.6,0-31.6-0.3-46.9,2.5c-17.7,3.3-35.4,1.9-53.3,1.5c-8.7-0.2-17.7,0.7-26.4,1.5
		c-4.1,0.4-8.1,0.8-12.2,0.7c-3.9-0.1-7.3-1.2-11.1-1.8c-7.9-1.4-16.4-0.8-24.4-1c-4.6-0.1-9.1-0.5-13.7-0.7c-2.6-0.1-7.9,1-10-0.6
		c-1.6-1.1-3.1,1.5-1.5,2.6c1.7,1.3,3.7,1.1,5.8,1c3.9-0.1,7.8,0.1,11.7,0.3c8.8,0.5,17.6,0.4,26.4,0.9c4.1,0.2,7.7,1.4,11.6,2
		c4,0.6,8.2,0.4,12.2,0.1c9.2-0.7,18.4-1.6,27.6-1.9c17.3-0.6,34.6,1.9,51.9-0.6c8.9-1.3,17.5-2.6,26.4-3c8.6-0.3,17.2-0.5,25.8-0.5
		C981.6,520.4,981.6,517.4,979.7,517.4z"/>
	<path d="M977,543.4c-3.8,0.1-7.6-0.7-11.4-0.8c-4.1,0-8.1,0.1-12.2,0.3c-8.7,0.5-17.5,1.2-26.2,2c-16.8,1.6-33.5,4.2-50.4,4.4
		c-16.7,0.2-33.3-0.8-50-1.6c-8.2-0.4-16.4-0.4-24.6-0.4c-4.6,0-9.5,0.5-14.1-0.1c-1.9-0.2-3.5-0.9-5.3,0.3
		c-1.6,1.1-0.1,3.7,1.5,2.6c1.1-0.7,2.9,0.1,4.1,0.2c2,0.2,4,0.1,6,0.1c3.9,0,7.7-0.1,11.6-0.1c8.2,0,16.4,0.1,24.5,0.6
		c16.4,1,32.6,1.8,49.1,1.4c16.6-0.4,33-3,49.5-4.5c8.4-0.8,16.8-1.5,25.2-1.9c3.7-0.2,7.5-0.3,11.2-0.3c3.9,0,7.6,0.8,11.4,0.8
		C978.9,546.4,978.9,543.4,977,543.4z"/>
	<path d="M973,565.4c-7.6-0.1-15.2,0.4-22.8,0.6c-7.8,0.3-15.3,2.1-22.9,3.3c-16.3,2.4-32.8,3.9-49.3,4.8
		c-16.8,0.9-33.7,0.5-50.5,0.6c-7.8,0.1-15.6-0.2-23.3-0.1c-3.5,0-7,0.5-10.5,0.7c-2.6,0.1-5.2-0.5-7.5,0.9c-1.6,1-0.1,3.6,1.5,2.6
		c2.2-1.4,7.7-0.7,10.3-0.9c3.8-0.3,7.6-0.3,11.4-0.3c7.3,0.1,14.6,0.3,21.8,0c16.5-0.7,33.1,0.3,49.6-0.7
		c15.2-0.9,30.1-2.5,45.2-4.5c8.1-1,15.9-3.2,24.1-3.4c7.6-0.3,15.2-0.8,22.8-0.6C974.9,568.5,974.9,565.5,973,565.4z"/>
	<path d="M982.5,600.6c-15.6,0-31.6-0.3-46.9,2.5c-17.7,3.3-35.4,1.9-53.3,1.5c-8.7-0.2-17.7,0.7-26.4,1.5
		c-4.1,0.4-8.1,0.8-12.2,0.7c-3.9-0.1-7.3-1.2-11.1-1.8c-7.9-1.4-16.4-0.8-24.4-1c-4.6-0.1-9.1-0.5-13.7-0.7c-2.6-0.1-7.9,1-10-0.6
		c-1.6-1.1-3.1,1.5-1.5,2.6c1.7,1.3,3.7,1.1,5.8,1c3.9-0.1,7.8,0.1,11.7,0.3c8.8,0.5,17.6,0.4,26.4,0.9c4.1,0.2,7.7,1.4,11.6,2
		c4,0.6,8.2,0.4,12.2,0.1c9.2-0.7,18.4-1.6,27.6-1.9c17.3-0.6,34.6,1.9,51.9-0.6c8.9-1.3,17.5-2.6,26.4-3c8.6-0.3,17.2-0.5,25.8-0.5
		C984.5,603.6,984.5,600.6,982.5,600.6z"/>
	<path d="M979.9,626.6c-3.8,0.1-7.6-0.7-11.4-0.8c-4.1,0-8.1,0.1-12.2,0.3c-8.7,0.5-17.5,1.2-26.2,2c-16.8,1.6-33.5,4.2-50.4,4.4
		c-16.7,0.2-33.3-0.8-50-1.6c-8.2-0.4-16.4-0.4-24.6-0.4c-4.6,0-9.5,0.5-14.1-0.1c-1.9-0.2-3.5-0.9-5.3,0.3
		c-1.6,1.1-0.1,3.7,1.5,2.6c1.1-0.7,2.9,0.1,4.1,0.2c2,0.2,4,0.1,6,0.1c3.9,0,7.7-0.1,11.6-0.1c8.2,0,16.4,0.1,24.5,0.6
		c16.4,1,32.6,1.8,49.1,1.4c16.6-0.4,33-3,49.5-4.5c8.4-0.8,16.8-1.5,25.2-1.9c3.7-0.2,7.5-0.3,11.2-0.3c3.9,0,7.6,0.8,11.4,0.8
		C981.8,629.6,981.8,626.6,979.9,626.6z"/>
	<path d="M975.9,648.6c-7.6-0.1-15.2,0.4-22.8,0.6c-7.8,0.3-15.3,2.1-22.9,3.3c-16.3,2.4-32.8,3.9-49.3,4.8
		c-16.8,0.9-33.7,0.5-50.5,0.6c-7.8,0.1-15.6-0.2-23.3-0.1c-3.5,0-7,0.5-10.5,0.7c-2.6,0.1-5.2-0.5-7.5,0.9c-1.6,1-0.1,3.6,1.5,2.6
		c2.2-1.4,7.7-0.7,10.3-0.9c3.8-0.3,7.6-0.3,11.4-0.3c7.3,0.1,14.6,0.3,21.8,0c16.5-0.7,33.1,0.3,49.6-0.7
		c15.2-0.9,30.1-2.5,45.2-4.5c8.1-1,15.9-3.2,24.1-3.4c7.6-0.3,15.2-0.8,22.8-0.6C977.8,651.7,977.8,648.7,975.9,648.6z"/>
	<path d="M980.3,679.8c-15.6,0-31.6-0.3-46.9,2.5c-17.7,3.3-35.4,1.9-53.3,1.5c-8.7-0.2-17.7,0.7-26.4,1.5
		c-4.1,0.4-8.1,0.8-12.2,0.7c-3.9-0.1-7.3-1.2-11.1-1.8c-7.9-1.4-16.4-0.8-24.4-1c-4.6-0.1-9.1-0.5-13.7-0.7c-2.6-0.1-7.9,1-10-0.6
		c-1.6-1.1-3.1,1.5-1.5,2.6c1.7,1.3,3.7,1.1,5.8,1c3.9-0.1,7.8,0.1,11.7,0.3c8.8,0.5,17.6,0.4,26.4,0.9c4.1,0.2,7.7,1.4,11.6,2
		c4,0.6,8.2,0.4,12.2,0.1c9.2-0.7,18.4-1.6,27.6-1.9c17.3-0.6,34.6,1.9,51.9-0.6c8.9-1.3,17.5-2.6,26.4-3c8.6-0.3,17.2-0.5,25.8-0.5
		C982.2,682.8,982.2,679.8,980.3,679.8z"/>
	<path d="M977.6,705.8c-3.8,0.1-7.6-0.7-11.4-0.8c-4.1,0-8.1,0.1-12.2,0.3c-8.7,0.5-17.5,1.2-26.2,2c-16.8,1.6-33.5,4.2-50.4,4.4
		c-16.7,0.2-33.3-0.8-50-1.6c-8.2-0.4-16.4-0.4-24.6-0.4c-4.6,0-9.5,0.5-14.1-0.1c-1.9-0.2-3.5-0.9-5.3,0.3
		c-1.6,1.1-0.1,3.7,1.5,2.6c1.1-0.7,2.9,0.1,4.1,0.2c2,0.2,4,0.1,6,0.1c3.9,0,7.7-0.1,11.6-0.1c8.2,0,16.4,0.1,24.5,0.6
		c16.4,1,32.6,1.8,49.1,1.4c16.6-0.4,33-3,49.5-4.5c8.4-0.8,16.8-1.5,25.2-1.9c3.7-0.2,7.5-0.3,11.2-0.3c3.9,0,7.6,0.8,11.4,0.8
		C979.6,708.8,979.6,705.8,977.6,705.8z"/>
	<path d="M973.6,727.8c-7.6-0.1-15.2,0.4-22.8,0.6c-7.8,0.3-15.3,2.1-22.9,3.3c-16.3,2.4-32.8,3.9-49.3,4.8
		c-16.8,0.9-33.7,0.5-50.5,0.6c-7.8,0.1-15.6-0.2-23.3-0.1c-3.5,0-7,0.5-10.5,0.7c-2.6,0.1-5.2-0.5-7.5,0.9c-1.6,1-0.1,3.6,1.5,2.6
		c2.2-1.4,7.7-0.7,10.3-0.9c3.8-0.3,7.6-0.3,11.4-0.3c7.3,0.1,14.6,0.3,21.8,0c16.5-0.7,33.1,0.3,49.6-0.7
		c15.2-0.9,30.1-2.5,45.2-4.5c8.1-1,15.9-3.2,24.1-3.4c7.6-0.3,15.2-0.8,22.8-0.6C975.6,730.8,975.6,727.8,973.6,727.8z"/>
	<path d="M982.5,759c-15.6,0-31.6-0.3-46.9,2.5c-17.7,3.3-35.4,1.9-53.3,1.5c-8.7-0.2-17.7,0.7-26.4,1.5c-4.1,0.4-8.1,0.8-12.2,0.7
		c-3.9-0.1-7.3-1.2-11.1-1.8c-7.9-1.4-16.4-0.8-24.4-1c-4.6-0.1-9.1-0.5-13.7-0.7c-2.6-0.1-7.9,1-10-0.6c-1.6-1.1-3.1,1.5-1.5,2.6
		c1.7,1.3,3.7,1.1,5.8,1c3.9-0.1,7.8,0.1,11.7,0.3c8.8,0.5,17.6,0.4,26.4,0.9c4.1,0.2,7.7,1.4,11.6,2c4,0.6,8.2,0.4,12.2,0.1
		c9.2-0.7,18.4-1.6,27.6-1.9c17.3-0.6,34.6,1.9,51.9-0.6c8.9-1.3,17.5-2.6,26.4-3c8.6-0.3,17.2-0.5,25.8-0.5
		C984.5,762,984.5,759,982.5,759z"/>
	<path d="M979.9,785c-3.8,0.1-7.6-0.7-11.4-0.8c-4.1,0-8.1,0.1-12.2,0.3c-8.7,0.5-17.5,1.2-26.2,2c-16.8,1.6-33.5,4.2-50.4,4.4
		c-16.7,0.2-33.3-0.8-50-1.6c-8.2-0.4-16.4-0.4-24.6-0.4c-4.6,0-9.5,0.5-14.1-0.1c-1.9-0.2-3.5-0.9-5.3,0.3
		c-1.6,1.1-0.1,3.7,1.5,2.6c1.1-0.7,2.9,0.1,4.1,0.2c2,0.2,4,0.1,6,0.1c3.9,0,7.7-0.1,11.6-0.1c8.2,0,16.4,0.1,24.5,0.6
		c16.4,1,32.6,1.8,49.1,1.4c16.6-0.4,33-3,49.5-4.5c8.4-0.8,16.8-1.5,25.2-1.9c3.7-0.2,7.5-0.3,11.2-0.3c3.9,0,7.6,0.8,11.4,0.8
		C981.8,787.9,981.8,784.9,979.9,785z"/>
	<path d="M955.8,201.1c-0.7-9.1,0.3-17.9,0.4-27c0.1-10.8-0.8-21.5-0.5-32.2c0.2-10.8,0.1-21.6,0-32.4c0.7,0.2,1.4,0.3,2.3,0.2
		c1-0.2,1.3-1.4,0.9-2.2c-0.7-1.4-1.7-2.7-2.8-3.9c0.1-0.2,0.2-0.4,0.2-0.7c-0.1-3.1,0.3-6.1,0.5-9.3c0.1-1.4,0.4-2.9-0.9-3.8
		c-1.3-0.9-3.6-0.9-5.1-1c-2.9-0.3-5.8,0.1-8.7,0.1c-1.4-1.4-2.8-2.9-4.2-4.3c-6.4-6.9-12-15.6-20.4-20.3c-0.7-0.4-1.7-0.2-2.1,0.5
		c-0.6,1.3,0.2,2-0.1,3.1c-0.1,0.3-0.1,0.4-0.1,0.5c-0.1-0.1-0.4-0.4-1.1-0.6c-1-0.2-1.3-0.4-2.4-0.4c-0.9,0.1-1.8,0.9-1.4,1.9
		c0.2,0.5,0.4,1,0.5,1.5c-0.7-0.3-1.5-0.4-2.6-0.4c-0.9,0.1-1.7,0.9-1.4,1.9c0,0.1,0.1,0.2,0.1,0.3c-0.8-0.2-1.5-0.3-2.5-0.1
		c-0.5,0.1-0.9,0.6-1,1c-0.4,1.1,0,1.8,0.2,2.8c-0.5,0.5-0.7,1.4,0,2c3.9,3.7,7.6,7.6,11.2,11.7c-1.4-0.2-2.8-0.4-4.4-0.2
		c-3,0.3-5.9,1-8.9,1.5c-7.3,1.1-14.9,0.5-22.3,0.5c-6.9,0-13.8,0.3-20.6,0.5c-3.7,0.1-7.4,0.5-11.1,1c-1.2,0.2-4.5,1.1-6.8,1.4
		c2.8-3.3,5.6-6.7,7.5-10.9c0.4-0.9,0.1-1.9-0.9-2.2c-2.3-0.8-4.6,1.4-6.7,3.1c0-1.2,0.1-2.3-0.1-3.5c-0.1-0.9-0.9-1.8-1.9-1.4
		c-1.3,0.5-2.3,1.2-3.2,2.1c0.2-1.5,0.6-2.9-0.5-4.5c-0.6-0.8-1.6-1-2.4-0.3c0,0-0.1,0.1-0.1,0.1c-0.5-0.8-1.9-1-2.6,0
		c-3.7,5.2-6.7,10.9-9.9,16.4c-0.4-0.2-0.9-0.2-1.4,0.1c-0.9,0.6-3.3,0.7-4.4,0.9c-2,0.4-3.9,0.5-5.9,0.4c-1.8,0-3.6-0.3-4.6,1.5
		c-1.3,2.5,0.3,6.7,0.5,9.1c0.3,2.7,0.6,5.3,0.6,8c0,0.4,0.1,0.7,0.3,1c-1.8,2.4-3.7,4.7-5.3,7.2c-0.5,0.8,0,2,0.9,2.2
		c1.7,0.3,2.9-0.1,4.2-0.7c-0.3,0.6-0.1,1.3,0.3,1.7c0.1,4.5-0.5,9.2-0.3,13.7c0.2,5.7,0.2,11.4,0.4,17c0.2,11,1.6,22,2.1,33
		c0.4,10.5,0.4,20.9,0.4,31.4c0,5.3-0.3,10.8-0.2,16.1c0.1,2.2,0.1,5.1,1.6,6.9c0.3,0.4,1,0.5,1.5,0.4c3.7-0.9,7.7-0.7,11.4-1.4
		c5.4-0.9,10.5-1.3,15.9-0.8c8.7,0.8,17.5,0.8,26.3,1.1c20.6,0.6,41.4-0.4,62.1-0.4c4.5,0,9,0.2,13.4,0c3.7-0.2,8,0.2,11.5-0.4
		c1.9-0.3,4.9-1.3,6.3-2.8c1.8-1.9,1.2-5.5,1.1-7.9C958.2,220.8,956.6,211.1,955.8,201.1z M947.2,91.6c1.8-0.2,4.8-0.3,6.5,0.6
		c0,0.3,0,0.6-0.1,0.9c-0.1,1.1-0.1,2.1-0.2,3.2c-0.2,1.5-0.3,2.9-0.3,4.3c-1.5-1.5-3.1-3-4.4-4.5c-1.3-1.5-2.6-2.9-4-4.3
		C945.5,91.7,946.4,91.7,947.2,91.6z M906.6,77.2c0-0.1,0-0.2,0-0.4c0,0-0.1-1-0.2-1.6c0.7,0.7,3,2.2,3.2,2.2
		c1.1,0.6,2.6-0.4,2.2-1.7c-0.2-0.6-0.5-1.2-0.9-1.8c0.6,0.3,1.3,0.6,2.1,0.8c1,0.2,2.3-0.7,1.8-1.8c-0.3-0.6-0.5-1.3-0.8-1.9
		c1.3,0.5,2.6,1.1,3.9-0.1c0.9-0.9,0.7-1.7,0.3-2.5c6.8,4.8,11.7,12.4,17.4,18.3c3.3,3.4,6.8,6.8,10,10.4c2.6,3,6.3,6,8.8,9.3
		c-0.7-0.2-1.4-0.5-2.1-0.4c-0.9,0-1.4,0.7-1.5,1.5c0,0.5,0.6,2.2,0.2,2.5c-0.1,0.1-3.7-0.7-4.6-0.5c-0.7,0.2-1.1,0.8-1.1,1.4
		c-0.1,0.9,1.1,2.9,0.9,3.5c-0.3,0.6-3.6-0.5-5-0.4c-1,0.1-1.6,0.9-1.4,1.9c0.1,0.6,0.3,1.2,0.5,1.7c-2.1-2.1-4.7-5.7-5.3-6.5
		c-3.5-4.3-6.4-8.9-9.9-13.1c-1.8-2.1-3.6-4.3-5.4-6.4c-0.1-0.5-0.4-0.9-0.9-1.1C914.8,85.8,910.9,81.3,906.6,77.2z M807.4,97.8
		c0.8,0,1.6,0,2.4,0c1.2,0,2.4-0.1,3.6-0.3c1.2-0.2,2.7-0.3,4.1-0.5c-0.8,1.3-1.6,2.5-2.5,3.7c-2.4,3.4-5.1,6.6-7.5,10
		c0-0.7-0.1-1.5-0.2-2.2c-0.3-2-0.4-3.9-0.6-5.9c-0.2-1.2-0.8-2.8-0.3-3.9C806.3,97.8,806.6,97.5,807.4,97.8z M809.1,113.7
		c2.7-3.9,5.7-7.6,8.5-11.4c4.8-6.7,8.3-14.2,12.8-21c0.3,0.1,0.6,0.1,0.9,0c0.5-0.2,0.9-0.4,1.3-0.6c0,1.6-0.5,3.4,0,4.7
		c0.4,1.1,1.6,1.4,2.5,0.7c0.7-0.6,1.6-1.5,2.4-2.3c0,1.2-0.1,2.4,0,3.7c0.1,1.2,1.2,1.8,2.3,1.3c0.3-0.1,1.9-1.3,3.4-2.4
		c-2.4,3.7-5.4,6.7-8.3,10.2c-3.3,4-6.4,8.3-9.3,12.5c-3.1,4.4-6.1,8.6-9.5,12.8c-0.8,1-1.1,1.3-1.9,2.4c-0.6,0.9-1.7,4.2-2.1,3.2
		c-0.4-1,0.2-2.6-0.2-3.7c-0.2-0.7-1.1-1.4-1.8-1c-0.5,0.2-1,0.5-1.5,0.9c0.2-1.2,0.6-2.4,0.1-3.8c-0.3-1-1.3-1.3-2.2-0.9
		c-0.6,0.3-1.3,0.7-2,1.2C806,117.9,807.7,115.9,809.1,113.7z M951.9,238c-2.7,0.8-5.6,0.2-8.3,0.4c-3.3,0.2-6.4,0.4-9.7,0.3
		c-14.1-0.1-28.2-0.1-42.3,0.1c-13.4,0.2-26.7-0.1-40.1-0.1c-5.9,0-11.7-0.9-17.6-1c-6.4-0.2-12.4,1.8-18.7,2
		c-0.6,0-4.5-0.2-4.2,0.4c-0.8-0.9-0.5-4.7-0.5-5.6c0.1-6.8,0.1-13.7,0.1-20.5c0.1-14.6,0.2-29.3-1.4-43.8c-0.9-8.1-1-16.2-1.1-24.3
		c-0.1-3.7-0.3-7.4-0.4-11.1c-0.1-2.5,0.2-5.1,0.4-7.6c0.4-0.2,0.7-0.4,1.1-0.7c0,2-0.1,4.1,2.5,3.9c1.9-0.1,3.3-2.2,4.4-3.6
		c2.3-2.9,4.8-5.6,7-8.5c4.1-5.3,7.9-11,11.7-16.5c1-1.5,2.2-2.9,3.3-4.3c1.1,0.2,2-0.1,3.4-0.4c4.1-0.8,8.3-1.3,12.4-1.6
		c7.4-0.6,15-0.7,22.5-0.8c7.3-0.1,14.8,0.5,22-0.1c3-0.3,6-0.9,9-1.3c3.6-0.6,6.7-0.1,10.1-0.1c3.1,3.6,6,7.4,8.8,11.1
		c3.2,4.3,6.4,8.5,9.9,12.6c1.7,2,3.3,5.4,6.4,5.2c0.7-0.1,1.6-0.6,1.5-1.5c-0.1-1.3-0.6-2.4-0.9-3.6c2.1,0.5,4.5,1.6,6-0.1
		c1.5-1.7,0.1-3.2-0.6-4.8c1.3,0.2,2.8,1,4,0.7c0,11.7-0.2,23.3-0.1,35c0.1,12.9,1.6,25.6,0,38.5c-1.6,13,2.3,26.2,2.8,39.1
		C955.5,230,957.4,236.5,951.9,238z"/>
	<path d="M950.5,351.4c-1.9-7.7-3.5-15.8-6.7-23.2c-3.4-7.6-7.4-15.7-12.5-22.3c-2.3-3-4.7-5.9-7.7-8.2c-2.6-2-5.5-3.3-8.4-4.9
		c-0.1-0.4-0.4-0.7-0.8-0.9c-0.2-0.1-0.5-0.2-0.7-0.2c0.2,0,0,0-0.1,0c-0.1,0-0.2,0-0.2-0.1c0-0.1,0-0.2-0.1-0.3
		c0.8-1.4,0.5-3.6-0.5-5.5c-1.3-2.2-3.3-3.8-5.7-4.6c-1.7-0.6-5.1-2.3-7-1.4c-1.9,0.9-2.3,4.5-2.7,6.4c-0.2,0.9-0.4,1.7-0.6,2.6
		c0,0,0,0-0.1,0h-2.6c-0.2-0.2-0.5-0.3-0.9-0.3c-29.8,0.1-60,17.1-71.2,45.6c-5.9,15-9.2,31.1-8.5,47.3c0.6,13.8,7,29.5,16,40
		c9.7,11.4,21,21.3,35.7,25.2c7.1,1.9,14.7,3.2,22,2.4c7.3-0.8,14.3-2.8,21.1-5.8c3.4-1.5,6.6-3.1,9.8-5c3.3-1.9,7.6-3.8,10.5-6.3
		c1.9-1.6,3.8-4,5.3-6c1.7-2.4,3.6-4.7,5.3-7.1c8.3-12.1,12.9-25.5,13.7-40.2C953.3,369.1,952.7,360.5,950.5,351.4z M905.8,283.9
		c1.8,0.6,3.4,1.7,4.3,3.4c0.7,1.1,1.2,2.5-0.5,2.3c-1.7-0.2-7.3-4.6-7.3-6.5c0-0.2,0-0.3-0.1-0.5
		C903.4,282.8,905.2,283.7,905.8,283.9z M900.4,286.1c0.5,0.7,1.2,1.4,1.9,2c1.9,1.6,4.1,3.7,6.5,4.4c0.1,0,0.2,0,0.3,0.1
		c-1.3,1.7-2.6,3.7-4.2,4.9c-1.1,0.8,0.4,0.6-1.3,0.6c-0.7,0-2-0.8-2.5-1.2c-0.8-0.7-1.4-1.7-2.3-2.4
		C899,291.7,899.8,288.6,900.4,286.1z M897.4,297c0.3,0.3,0.6,0.6,1,1c0.9,0.9,1.5,1.6,2.8,2.2c0.6,0.3,1.2,0.6,1.9,0.8
		c-0.4,0.2-1.8,0.4-2.1,0.3c-1.2-0.3-2-1.3-2.9-2.1c-1.1-1.1-3.1-2.5-4-3.6c0,0,0,0,0.1,0c0.7,0,1.3,0.2,1.8,0.5
		C896.1,296.7,896.7,297,897.4,297z M943.2,406.1c-2.5,5.5-6,10.1-9.8,14.7c-1.8,2.2-3.2,4.6-5.1,6.7c-2.6,2.8-5.4,4.3-8.7,6.2
		c-13.1,8-28.4,14.3-44,11.8c-14.4-2.3-25.7-7.8-36.1-18.1c-4.9-4.8-9.7-9.8-13.1-15.8c-3.7-6.6-6.4-13.9-8.5-21.2
		c-3.8-13.4-1-29.4,2.7-42.5c2.2-7.6,4.6-15.4,8.8-22.1c4.2-6.8,9.9-12.9,16.1-18c13.2-10.8,30.3-16.3,47.3-16.5
		c0.2,0.2,0.5,0.3,0.9,0.3h2.5c-0.1,0.4-0.1,0.9-0.2,1.3c-2.7-0.8-5.9-0.7-5,2.6c0.6,2.1,3.4,4.4,5.2,6c-2,2.4-3,5.3-4.5,8
		c-0.8,1.5,1.1,3.1,2.4,1.8c2-2.1,3.3-4.6,4.6-7.2c0.1-0.3,0.2-0.5,0.2-0.7c1.1,0.6,2.3,1.1,3.5,1c1.9-0.1,3.7-2,3.8-3.8
		c0.1,0,0.1-0.1,0.2-0.1c1.1-0.8,1.9-2.5,2.7-3.5c0.8-1,1.6-1.9,2.4-2.9c0.2,0.1,0.4,0.1,0.6,0.1c0.2,0,0.1,0,0.2,0
		c0.1,0.1,0.2,0.2,0.4,0.3c5.9,3.6,10.9,6.2,15.4,11.8c4.4,5.6,7.4,11.9,10.6,18.2c2.7,5.4,4.8,10.4,6,16.3c1.6,8.1,4.7,15.7,5.4,24
		C951.2,378.8,948.9,393.4,943.2,406.1z"/>
	<path d="M922.8,331.1c-2.4,0-4.7-1-7.3-1c-3.4,0-6.7-0.1-10.1,0.3c-6.5,0.7-13.3,1.6-19.9,1.9c-13.9,0.6-27.8-1.1-41.7-1.2
		c-1.9,0-1.9,3,0,3c13.9,0,27.8,1.8,41.7,1.2c3.4-0.1,6.6-0.9,10-1.2c3-0.2,5.9-0.1,8.9-0.6c3.7-0.5,7.4-0.5,11.1-0.4
		c2.6,0.1,4.8,1,7.3,1C924.8,334.1,924.8,331.1,922.8,331.1z"/>
	<path d="M936.3,351.1h-0.4c-0.2,0-0.3,0-0.4,0.1c-8.2,0.6-16.2,1.9-24.4,2.6c-4.9,0.5-9.8,1.5-14.8,1.4c-4.3-0.1-8.5-0.6-12.8-0.6
		c-9.4-0.1-18.8-1.5-28.1-1.7c-4.2-0.1-8.5,0.1-12.7,0.2c-4.5,0.1-9-0.7-13.5-0.7c-1.9,0-1.9,3,0,3c4.5,0,8.9,0.7,13.5,0.7
		c4.2-0.1,8.5-0.3,12.7-0.2c9.4,0.2,18.8,1.6,28.1,1.7c4.3,0,8.5,0.5,12.8,0.6c5,0.1,9.9-0.9,14.8-1.4c8.4-0.8,16.8-2.2,25.3-2.7
		C938.2,354,938.2,351.1,936.3,351.1z"/>
	<path d="M942,374.9l-0.1-0.6c-0.1-0.5-0.6-1-1-1c-8.4-1.5-17.8-1.1-26.3-0.7c-10.4,0.5-20.5,3-31,2.4c-9.8-0.6-19.6-0.7-29.4-0.4
		c-5.4,0.2-10.8,0.4-16.1,0.5c-5.1,0.1-9.9-1.1-14.9-1.3c-1.9-0.1-1.9,2.9,0,3c4.7,0.2,9.2,1.4,14,1.4c5.1,0,10.1-0.3,15.2-0.4
		c9.9-0.3,19.7-0.5,29.6,0.2c10.2,0.7,19.8-1.4,29.9-2.2c4.9-0.3,9.8-0.4,14.7-0.3c0.8,0,12.6,0.8,12.5,0.2
		C939.3,377.6,942.2,376.7,942,374.9z"/>
	<path d="M932.7,393.2c-3.3-0.5-5.2-1.5-8.6-1c-4.3,0.6-8.1-0.2-12.3-0.2c-3.9,0-7.8,0.7-11.8,0.7c-4.6,0-9.2-0.2-13.9-0.2
		c-8.7-0.1-17.3,0.9-25.9,0.8c-4.2,0-8.4-0.3-12.6,0c-4.8,0.3-9.5,1.2-14.3,1.3c-1.9,0-1.9,3,0,3c8.4-0.2,16.6-1.5,25.1-1.4
		c8.6,0.2,17.2-0.8,25.8-0.7c8.5,0,17,0.5,25.4-0.1c3.7-0.2,7.2,0.5,10.9,0.3c1.2-0.1,2.4-0.2,3.6-0.4c2.9-0.4,4.6,0.3,7.2,0.8
		c0.2,0.1,0.4,0.2,0.7,0.2l0.4,0C933.9,396.2,934.4,393.4,932.7,393.2z"/>
	<path d="M922,416.2c0-0.2-0.1-0.4-0.1-0.5c-0.1-0.5-0.6-0.9-1-1c-5.7-1.4-10.6-0.2-16.3,0c-6.5,0.2-13.1-0.2-19.7-0.2
		c-7,0-14-0.1-20.9,0c-2.9,0.1-5.7,0.3-8.6,0.4c-3.4,0.2-6.7-0.4-10.1-0.5c-1.9-0.1-1.9,2.9,0,3c2.8,0.1,5.5,0.7,8.3,0.6
		c3.2-0.1,6.3-0.4,9.5-0.5c6.6-0.2,13.2-0.1,19.8-0.1c6.1,0,12.1,0.1,18.2,0.2c1.9,0,17.8-1.8,18-0.6
		C919.5,418.9,922.4,418.1,922,416.2z"/>
	<g>
		<path d="M543.2,340.9c-0.1-0.6-0.6-1-1.1-1c-1.3-3.2-0.7-8.5-1-11.6c-0.5-5.2-0.8-10.3-0.7-15.5c0.1-10.1,0.3-20.2-0.2-30.3
			c-0.8-20.3-0.8-40.5-0.8-60.8c0-10.2,0.8-20.4,0.6-30.6c-0.2-10.2,1.2-20,2.4-30c1.1-9.6,1-19.3,1.6-28.9c0.6-9-0.1-18-0.1-27.1
			c0-5,1.9-12.8-4.8-13.9c-9.8-1.6-20.1,1.6-29.9,0.3c-8.4-1.1-17.4-0.6-25.8-0.4c-9.8,0.3-19.5,0.5-29.3,0.5
			c-20.3,0-40.6-0.5-61-0.6c-21.3,0-42.7-0.8-64,0.3c-23.2,1.2-45.8,4.2-69.1,1.9c-5.6-0.6-11.3-1.5-16.9-1.7
			c-5.5-0.2-11,0.7-16.5,0.6c-5.7-0.1-11.4,0.5-17,1.2c-4.7,0.6-9.9,2.3-14.8,1.7c-0.5-0.7-1.5-1.1-2.2-0.3
			c-0.1,0.2-0.3,0.3-0.4,0.5c-0.7,0.8-0.5,2.2,0.6,2.5c0.2,7.3-0.4,14.5-0.5,21.8c-0.2,8.1,0.6,16.3,0.4,24.5
			c-0.3,16.9-0.1,33.7,0.1,50.7c0.2,17.3-0.8,34.5-0.7,51.7c0.1,16.6-0.7,33.4,0,49.9c0.2,4.3,0.6,8.6,0.7,12.9
			c0,4.3-0.5,8.6-0.5,12.9c0,8.5-1,17.6,0.1,26c0,0.3,0.3,0.6,0.6,0.8c0.3,0.8,1.2,1.3,2.1,0.7c4.6-3.3,13.8-2.2,19.3-2.9
			c5.9-0.8,11.7-1.6,17.7-1.4c11.7,0.5,23.5,1.4,35.2,1.6c24.3,0.6,48.6,0.9,72.9,1.7c12.8,0.4,25.6-0.7,38.5-0.4
			c12.5,0.3,24.9,1.6,37.4,2.3c12.5,0.7,25,2.1,37.6,2.9c12.4,0.8,24.8,0.3,37.2,0.8c13.9,0.5,27.7,0.9,41.5,0
			c3.1-0.2,9.6,0.8,11.8-2C546.3,349.8,543.8,343.4,543.2,340.9z M541.8,349.7c-0.7,1.3-2.9,1.4-4.2,1.5c-6.6,0.9-13.5,0.8-20.2,0.8
			c-12,0-24-0.8-36-0.6c-24.3,0.3-48.6-2.2-72.8-4.1c-11.9-0.9-23.8-1.9-35.8-2c-12.2-0.1-24.4,0.9-36.5,0.3
			c-23.6-1.1-47.3-1.1-70.9-1.6c-12.3-0.3-24.6-1.8-36.9-1.7c-0.2,0-0.3,0-0.5,0c0-0.1,0-0.2,0-0.2v-6.5c0-1.9-3-1.9-3,0v6.5
			c0,0.1,0,0.3,0,0.4c-5.4,0.4-10.7,1.4-16.1,1.9c-4.3,0.4-10.2-0.1-14.3,2c0,0,0,0,0,0c0.3,0.1,0.6-21.3,0.6-23.3
			c0-7.8,0.7-15.5,0.1-23.3c-1.3-16-0.1-32.5-0.2-48.5c-0.1-16.9,1-33.8,0.7-50.7c-0.3-16.9-1-33.8-0.3-50.7
			c0.4-9,0.5-18.1-0.1-27.1c-0.3-4,0.2-8.1,0.4-12.1c0.2-4.3,0.2-8.3,0.1-12.6c2,0,4.1-0.2,6-0.4c4.9-0.7,9.7-1.5,14.7-2
			c0,1.5,0.4,2.8,0.7,4.3c0.3,1.9,0.1,3.8,0.1,5.7c0,1.9,3,1.9,3,0c0-1.8,0.2-3.6,0-5.4c-0.2-1.6-0.8-3.2-0.8-4.9c0,0,0,0,0-0.1
			c4.3-0.3,8.5-0.1,12.8-0.3c5.2-0.4,10.2-0.7,15.4-0.1c9.8,1,19.6,2.3,29.4,2.5c10,0.2,19.9-0.6,29.8-1.4
			c40.9-3.4,81.9-1.4,123-1.4c10,0,20,0,29.9,0c9.7,0,19.3-0.5,29-0.6c4.3,0,8.5,0,12.8,0c4.9,0,9.7,0.9,14.6,0.7
			c4.8-0.2,9.5-0.7,14.3-0.7c1.8,0,4.1-0.4,5.9,0c3.9,0.8,4.5,3.3,4.5,6.9c0,4.3,0,8.7,0,13c0,4.7,0.8,9.3,0.5,14.1
			c-0.5,8.9-0.6,17.8-1.3,26.7c-0.8,9.9-2.8,19.6-3.1,29.5c-0.3,10.2-0.5,20.4-0.5,30.7c0,21.9-0.2,43.9,0.7,65.8
			c0.5,11.4,0.3,22.7,0.2,34.1c0,5.5,0.5,10.9,1,16.4c0.3,2.9-0.1,6.9,1,9.8c0,0,0,0,0,0.1c0,0,0,0.1,0,0.1c0,0.1,0,0.1,0.1,0.2
			c0.1,0.3,0.3,0.5,0.4,0.8c0,0,0,0,0,0c0,0,0,0.1,0.1,0.1c0,0,0,0,0.1,0.1c0,0,0,0,0,0.1c0.1,0.2,0.3,0.3,0.5,0.4
			c0.1,0,0.1,0.1,0.2,0.1C541.4,345,542.5,348.3,541.8,349.7z"/>
		<path d="M218.1,116.7v7.9c0,1.9,3,1.9,3,0v-7.9C221.1,114.8,218.1,114.8,218.1,116.7z"/>
		<path d="M218.8,138.1v9.5c0,1.9,3,1.9,3,0v-9.5C221.8,136.1,218.8,136.1,218.8,138.1z"/>
		<path d="M219.6,162.6v10.3c0,1.9,3,1.9,3,0v-10.3C222.6,160.7,219.6,160.7,219.6,162.6z"/>
		<path d="M222.3,191.4c-1-2.2-0.3-5-0.3-7.2c0-1.9-3-1.9-3,0c0,3-0.5,5.9,0.7,8.8C220.5,194.6,223.1,193.1,222.3,191.4z"/>
		<path d="M220,204.1v7c0,1.9,3,1.9,3,0v-7C223,202.2,220,202.2,220,204.1z"/>
		<path d="M220,222.6v7.5c0,1.9,3,1.9,3,0v-7.5C223,220.7,220,220.7,220,222.6z"/>
		<path d="M220.5,239.6v8.5c0,1.9,3,1.9,3,0v-8.5C223.5,237.7,220.5,237.7,220.5,239.6z"/>
		<path d="M221,259.1v9c0,1.9,3,1.9,3,0v-9C224,257.2,221,257.2,221,259.1z"/>
		<path d="M224.8,278.4c-0.9-1.7-3.5-0.2-2.6,1.5c1,2,0.3,4.6,0.3,6.7c0,1.9,3,1.9,3,0C225.6,283.8,226.2,281,224.8,278.4z"/>
		<path d="M223.5,299.1c-0.1,2.9-0.5,5.7-0.9,8.6c-0.3,1.9,2.6,2.7,2.9,0.8c0.5-3.1,1-6.2,1.1-9.4
			C226.6,297.2,223.6,297.2,223.5,299.1z"/>
		<path d="M227.3,321.8c-0.1-0.8-0.1-1.6-0.2-2.4c-0.1-0.8-0.5-1.5-0.5-2.3c-0.1-1.9-3.1-1.9-3,0c0,0.8,0.3,1.3,0.4,2
			c0.2,0.9,0.2,1.8,0.3,2.7c0.2,1.6,0.3,3.2,0.3,4.8c0,1.9,3,1.9,3,0C227.5,325,227.4,323.4,227.3,321.8z"/>
		<path d="M207,103.9c-0.2-0.2-0.4-0.4-0.8-0.4c-1.3-0.2-2.5-0.3-3.5,0.5c-1,0.7-1.7,2-1.8,3.3c-0.2,2.7,1.8,5,4.4,5.2
			C210.5,112.8,211.3,105.3,207,103.9z M205.7,109.4c-1.9,0.1-2.4-3-0.7-3.1c0.2,0.2,0.5,0.3,0.9,0.3
			C207.4,106.7,207.2,109.4,205.7,109.4z"/>
		<path d="M207,116.7c-0.2-0.2-0.4-0.4-0.8-0.4c-1.3-0.2-2.5-0.3-3.5,0.5c-1,0.7-1.7,2-1.8,3.3c-0.2,2.7,1.8,5,4.4,5.2
			C210.5,125.6,211.3,118.1,207,116.7z M205.7,122.2c-1.9,0.1-2.4-3-0.7-3.1c0.2,0.2,0.5,0.3,0.9,0.3
			C207.4,119.5,207.2,122.2,205.7,122.2z"/>
		<path d="M207,129.5c-0.2-0.2-0.4-0.4-0.8-0.4c-1.3-0.2-2.5-0.3-3.5,0.5c-1,0.7-1.7,2-1.8,3.3c-0.2,2.7,1.8,5,4.4,5.2
			C210.5,138.4,211.3,130.9,207,129.5z M205.7,135.1c-1.9,0.1-2.4-3-0.7-3.1c0.2,0.2,0.5,0.3,0.9,0.3
			C207.4,132.3,207.2,135,205.7,135.1z"/>
		<path d="M207,142.3c-0.2-0.2-0.4-0.4-0.8-0.4c-1.3-0.2-2.5-0.3-3.5,0.5c-1,0.7-1.7,2-1.8,3.3c-0.2,2.7,1.8,5,4.4,5.2
			C210.5,151.2,211.3,143.7,207,142.3z M205.7,147.9c-1.9,0.1-2.4-3-0.7-3.1c0.2,0.2,0.5,0.3,0.9,0.3
			C207.4,145.2,207.2,147.8,205.7,147.9z"/>
		<path d="M207,155.1c-0.2-0.2-0.4-0.4-0.8-0.4c-1.3-0.2-2.5-0.3-3.5,0.5c-1,0.7-1.7,2-1.8,3.3c-0.2,2.7,1.8,5,4.4,5.2
			C210.5,164,211.3,156.5,207,155.1z M205.7,160.7c-1.9,0.1-2.4-3-0.7-3.1c0.2,0.2,0.5,0.3,0.9,0.3
			C207.4,158,207.2,160.6,205.7,160.7z"/>
		<path d="M207,167.9c-0.2-0.2-0.4-0.4-0.8-0.4c-1.3-0.2-2.5-0.3-3.5,0.5c-1,0.7-1.7,2-1.8,3.3c-0.2,2.7,1.8,5,4.4,5.2
			C210.5,176.8,211.3,169.4,207,167.9z M205.7,173.5c-1.9,0.1-2.4-3-0.7-3.1c0.2,0.2,0.5,0.3,0.9,0.3
			C207.4,170.8,207.2,173.5,205.7,173.5z"/>
		<path d="M207,180.8c-0.2-0.2-0.4-0.4-0.8-0.4c-1.3-0.2-2.5-0.3-3.5,0.5c-1,0.7-1.7,2-1.8,3.3c-0.2,2.7,1.8,5,4.4,5.2
			C210.5,189.7,211.3,182.2,207,180.8z M205.7,186.3c-1.9,0.1-2.4-3-0.7-3.1c0.2,0.2,0.5,0.3,0.9,0.3
			C207.4,183.6,207.2,186.3,205.7,186.3z"/>
		<path d="M207,193.6c-0.2-0.2-0.4-0.4-0.8-0.4c-1.3-0.2-2.5-0.3-3.5,0.5c-1,0.7-1.7,2-1.8,3.3c-0.2,2.7,1.8,5,4.4,5.2
			C210.5,202.5,211.3,195,207,193.6z M205.7,199.1c-1.9,0.1-2.4-3-0.7-3.1c0.2,0.2,0.5,0.3,0.9,0.3
			C207.4,196.4,207.2,199.1,205.7,199.1z"/>
		<path d="M207,206.4c-0.2-0.2-0.4-0.4-0.8-0.4c-1.3-0.2-2.5-0.3-3.5,0.5c-1,0.7-1.7,2-1.8,3.3c-0.2,2.7,1.8,5,4.4,5.2
			C210.5,215.3,211.3,207.8,207,206.4z M205.7,212c-1.9,0.1-2.4-3-0.7-3.1c0.2,0.2,0.5,0.3,0.9,0.3
			C207.4,209.2,207.2,211.9,205.7,212z"/>
		<path d="M207,219.2c-0.2-0.2-0.4-0.4-0.8-0.4c-1.3-0.2-2.5-0.3-3.5,0.5c-1,0.7-1.7,2-1.8,3.3c-0.2,2.7,1.8,5,4.4,5.2
			C210.5,228.1,211.3,220.6,207,219.2z M205.7,224.8c-1.9,0.1-2.4-3-0.7-3.1c0.2,0.2,0.5,0.3,0.9,0.3
			C207.4,222.1,207.2,224.7,205.7,224.8z"/>
		<path d="M207,232c-0.2-0.2-0.4-0.4-0.8-0.4c-1.3-0.2-2.5-0.3-3.5,0.5c-1,0.7-1.7,2-1.8,3.3c-0.2,2.7,1.8,5,4.4,5.2
			C210.5,240.9,211.3,233.4,207,232z M205.7,237.6c-1.9,0.1-2.4-3-0.7-3.1c0.2,0.2,0.5,0.3,0.9,0.3
			C207.4,234.9,207.2,237.5,205.7,237.6z"/>
		<path d="M207,244.8c-0.2-0.2-0.4-0.4-0.8-0.4c-1.3-0.2-2.5-0.3-3.5,0.5c-1,0.7-1.7,2-1.8,3.3c-0.2,2.7,1.8,5,4.4,5.2
			C210.5,253.7,211.3,246.3,207,244.8z M205.7,250.4c-1.9,0.1-2.4-3-0.7-3.1c0.2,0.2,0.5,0.3,0.9,0.3
			C207.4,247.7,207.2,250.3,205.7,250.4z"/>
		<path d="M207,257.7c-0.2-0.2-0.4-0.4-0.8-0.4c-1.3-0.2-2.5-0.3-3.5,0.5c-1,0.7-1.7,2-1.8,3.3c-0.2,2.7,1.8,5,4.4,5.2
			C210.5,266.6,211.3,259.1,207,257.7z M205.7,263.2c-1.9,0.1-2.4-3-0.7-3.1c0.2,0.2,0.5,0.3,0.9,0.3
			C207.4,260.5,207.2,263.2,205.7,263.2z"/>
		<path d="M207,270.5c-0.2-0.2-0.4-0.4-0.8-0.4c-1.3-0.2-2.5-0.3-3.5,0.5c-1,0.7-1.7,2-1.8,3.3c-0.2,2.7,1.8,5,4.4,5.2
			C210.5,279.4,211.3,271.9,207,270.5z M205.7,276c-1.9,0.1-2.4-3-0.7-3.1c0.2,0.2,0.5,0.3,0.9,0.3C207.4,273.3,207.2,276,205.7,276
			z"/>
		<path d="M207,283.3c-0.2-0.2-0.4-0.4-0.8-0.4c-1.3-0.2-2.5-0.3-3.5,0.5c-1,0.7-1.7,2-1.8,3.3c-0.2,2.7,1.8,5,4.4,5.2
			C210.5,292.2,211.3,284.7,207,283.3z M205.7,288.9c-1.9,0.1-2.4-3-0.7-3.1c0.2,0.2,0.5,0.3,0.9,0.3
			C207.4,286.1,207.2,288.8,205.7,288.9z"/>
		<path d="M207,296.1c-0.2-0.2-0.4-0.4-0.8-0.4c-1.3-0.2-2.5-0.3-3.5,0.5c-1,0.7-1.7,2-1.8,3.3c-0.2,2.7,1.8,5,4.4,5.2
			C210.5,305,211.3,297.5,207,296.1z M205.7,301.7c-1.9,0.1-2.4-3-0.7-3.1c0.2,0.2,0.5,0.3,0.9,0.3
			C207.4,299,207.2,301.6,205.7,301.7z"/>
		<path d="M207,308.9c-0.2-0.2-0.4-0.4-0.8-0.4c-1.3-0.2-2.5-0.3-3.5,0.5c-1,0.7-1.7,2-1.8,3.3c-0.2,2.7,1.8,5,4.4,5.2
			C210.5,317.8,211.3,310.3,207,308.9z M205.7,314.5c-1.9,0.1-2.4-3-0.7-3.1c0.2,0.2,0.5,0.3,0.9,0.3
			C207.4,311.8,207.2,314.4,205.7,314.5z"/>
		<path d="M207,321.7c-0.2-0.2-0.4-0.4-0.8-0.4c-1.3-0.2-2.5-0.3-3.5,0.5c-1,0.7-1.7,2-1.8,3.3c-0.2,2.7,1.8,5,4.4,5.2
			C210.5,330.6,211.3,323.2,207,321.7z M205.7,327.3c-1.9,0.1-2.4-3-0.7-3.1c0.2,0.2,0.5,0.3,0.9,0.3
			C207.4,324.6,207.2,327.2,205.7,327.3z"/>
		<path d="M207,334.6c-0.2-0.2-0.4-0.4-0.8-0.4c-1.3-0.2-2.5-0.3-3.5,0.5c-1,0.7-1.7,2-1.8,3.3c-0.2,2.7,1.8,5,4.4,5.2
			C210.5,343.5,211.3,336,207,334.6z M205.7,340.1c-1.9,0.1-2.4-3-0.7-3.1c0.2,0.2,0.5,0.3,0.9,0.3
			C207.4,337.4,207.2,340.1,205.7,340.1z"/>
	</g>
	<path d="M633.2,142.8c-0.9-6.1-2-12-2.4-18.1c-0.4-5.9-1.9-11.6-2.7-17.4c-0.6-4.8-1.9-9.6-2.2-14.4c-0.3-3.4-1.4-6.3-3.5-8.8
		c0.2-0.7-0.1-1.5-1-1.8c-6.6-2.2-14.3-4.5-21.3-1.8c-6.4,2.5-8.1,9.9-9.3,16c-1.8,9.4,0.4,19,1.5,28.3c1.2,9.7,1.8,19.6,3.3,29.3
		c1.2,7.8,1.2,17.6,6.6,23.9c4.7,5.4,12.8,4.5,19.1,3.3C638.2,178.3,635,155,633.2,142.8z M595.8,89.4c3.8-9.8,15-7.5,23.1-4.9
		l0,0.2c0.1,0.7,0.5,1,1,1.1c2.9,3.7,2.5,7.8,3.4,12.3c0.9,4.3,1.5,8.6,2.3,13c0.9,5.3,1.6,10.5,2.3,15.8c-6,0.2-11.6,1.2-17.5,2.4
		c-3,0.6-6,1.2-9.1,1.6c-1.8,0.3-3.5,0.2-5.2,0.8c-0.5-4.8-1-9.6-1.6-14.5C593.5,107.7,592.2,98.7,595.8,89.4z M630.1,169.2
		c-2,6.5-5.4,8.8-12.3,9.5c-5.1,0.5-10.2,1.1-13.7-3.3c-2.8-3.6-3.6-8.7-4.3-13c-0.8-5.3-1.6-10.6-2.1-15.9
		c-0.4-3.8-0.7-7.7-1.1-11.5c1.4-0.8,4.1-0.8,5.6-1.1c2.7-0.4,5.5-0.9,8.2-1.4c6-1.3,11.8-2.3,17.9-2.5c0.5,3.4,0.9,6.9,1.5,10.3
		C631.3,149.6,632.9,159.9,630.1,169.2z"/>
	<path d="M624.7,251.3c0.1-4.5-0.4-8.9-0.4-13.3c0-0.2,0-0.3-0.1-0.5c0-0.1,0-0.1,0-0.2c0.2-1.5-1.7-2.4-2.5-1.6
		c-2.5-0.4-3.2-6-3.1-7.9c0.2-3,2.3-3.9,3.7-6.1c0.1-0.1,0.1-0.2,0.2-0.4c0.6-0.1,1.2-0.6,1-1.4c-0.3-2.4,0.2-8.3-1.4-10.2
		c-1.8-2.2-7.3-1.3-9.8-1.2c-5.4,0.1-10.8,0.3-16.1,0.4c-2.7,0-5.4,0.3-8.1,0.3c-1.3,0-2.4-0.2-3.6,0.5c-0.4,0.3-0.8,0.8-0.7,1.3
		c0.2,1.3,0.4,2.4,0.1,3.7c-0.1,0.5,0.1,1,0.4,1.3c0.1,1.5,0.3,3,0.3,4.5c0,0.8-0.1,1.6-0.1,2.5c0,0.8,0.3,1.5,0.4,2.3
		c0.1,1.3,1.4,1.7,2.3,1.3c3.9,1.2,6.3,4.4,6.7,8.5c0.5,4.5-2.4,5.5-5.6,7.5c-0.4,0.2-0.6,0.6-0.7,0.9c-0.3,0.2-0.6,0.5-0.7,1
		c-0.5,2.8-0.7,5-0.5,7.9c0.2,2.8,0.5,5.5,0.4,8.3c0,0.6,0.3,1,0.7,1.2c0,0.6,0.3,1.2,1.1,1.3c1.9,0.3,3.7,0.9,5.7,0.9
		c3.2,0,6.5-0.2,9.7-0.2c6.7-0.1,13.4-1.2,19.9-2.1c0.5-0.1,1-0.6,1-1C625.9,258,624.7,254.4,624.7,251.3z M622.3,259.4
		c0.5-0.6-4.2,0.4-4.1,0.4c-9.1,1.6-19,2-28.1,0.8c0-5.2-1-10,0-15.2c0,0,0-0.1,0-0.1c4.6-2.9,7.8-4.4,7.1-10.5
		c-0.6-5.5-4.1-9.7-9.4-11.1c0-0.2-0.1-0.3-0.1-0.5c-0.1-0.8,0.1-1.7,0.1-2.5c0-1.9-0.3-3.9-0.3-5.8c0-0.3-0.1-0.6-0.3-0.8
		c0-0.5,0.1-1,0.2-1.3c0.3-0.6-0.6-0.2,1-0.5c0.7-0.1,1.5,0,2.2-0.1c4.6-0.4,9.2-0.6,13.8-0.6c4.4,0,8.8,0,13.2-0.1c0,0,1.6,0,2-0.2
		c0,0.7,0.4,3.1,0.3,2.8c0.2,1.8,0.4,3.7,0.7,5.5c-0.3,0.1-0.6,0.3-0.8,0.6c-1.1,1.7-2.8,2.3-3.5,4.4c-0.8,2.4-0.7,4.7-0.2,7.1
		c0.6,3.3,1.9,6.6,5.2,7c0,5.1,0.2,10.2,0.3,15.3C621.7,254.8,622.7,259,622.3,259.4z"/>
	<path d="M614,240.9c-0.6-4.4-0.8-8.9-1.5-13.3c-0.4-2.7-0.9-5.5-1-8.2c-0.1-1,0.3-2.2-0.3-3.1c-1.6-2.6-7.3-1.1-9.7-0.8
		c-0.4,0-0.7,0.2-0.9,0.4c-0.7,0.1-1.3,0.5-1.3,1.4c0.3,7.2,1.9,14.5,2.5,21.7c0.5,5.8,1.7,11.7,1.9,17.5c0,0.9,0.7,1.4,1.5,1.5
		c3.5,0.3,6.8-0.2,10.2-1.1c0.6-0.2,1.1-0.8,1.1-1.4C616.2,250.6,614.7,245.7,614,240.9z M607.3,218c1.7,0.9,1.1,1.8,1.3,3.9
		c0.4,3.5,1,6.8,1.2,10.3c0,0.2,0,0.4,0.1,0.5c-0.3-0.4-0.7-0.8-1.2-1c-0.9-0.4-1.9-0.2-2.8,0c-0.5,0.1-0.8,0.4-1,0.9
		c-0.3,0.2-0.5,0.5-0.7,0.8c-0.7-5.1-1.5-10.2-1.8-15.2C604,218,606.2,217.5,607.3,218z M607.6,234.7
		C607.6,234.7,607.6,234.8,607.6,234.7c0.1,0.2,0.1,0.4,0.1,0.6c0,0.1-0.1,0.3-0.1,0.4c-0.2-0.1-0.4-0.3-0.5-0.3
		c-0.1-0.1-0.2-0.2-0.3-0.3c0,0,0,0,0-0.1C607.1,235,607.4,234.9,607.6,234.7z M606.7,255.1c-0.3-4.8-1.1-9.6-1.6-14.4
		c-0.1-1.2-0.3-2.3-0.4-3.5c1.1,1.2,2.8,2,4.2,1.2c0.7-0.4,1.2-1.1,1.5-1.8c0.9,5.9,2.5,11.8,3,17.7
		C611.2,254.9,609,255.2,606.7,255.1z"/>
	<path d="M784.7,428c-0.4-3.6-0.6-6.9-0.6-10.5c0-8.5-0.1-17,0-25.5c0-7.9-1-15.7-1.4-23.6c-0.4-8.5-0.1-17.2-0.1-25.7
		c0-17.6-2.1-35-3.7-52.6c-0.8-8.6-1.1-17.2-2.2-25.7c-1.1-8.3-2.4-16.7-3-25.1c-0.6-8.6-1.9-17-2.7-25.6
		c-0.8-8.7-0.4-17.6-0.4-26.4c0-8.5-0.9-17.3,0.7-25.7c1.4-7.2,1.7-14.8,2.2-22.1c0.6-9.4-1.6-18.4-1.4-27.9
		c0.1-4.1,0.7-13.6-4-15.8c-2.7-1.3-6.5,0-9.5-0.5c-3.6-0.6-6.8-1.3-10.5-1c-4.4,0.3-8.7,1.1-13.1,1.3c-4.1,0.3-8.3,0.1-12.4,0.1
		c0,0,0,0,0,0c0-1.9-3-1.9-3,0c-1.9,0-1.9,3,0,3h0c0,7.7,0.1,15.4,0,23.1c0,0.2,0,0.4,0,0.5c0,2.1-0.1,4.3-0.1,6.4
		c-0.3,11.5-1.3,23-1.4,34.6c-0.2,11.3,0.8,22.6,1.7,33.9c0.9,11.3,1.1,22.5,1.4,33.9c0.2,6.4,0.8,12.7,1.4,19
		c-0.1,0.4-0.1,0.9,0.1,1.2c0.4,4.2,0.8,8.4,1.1,12.5c0.7,11,0.8,22.3,2.1,33.2c1.2,10.3,1.3,20.7,2.5,31c1.3,11.1,2.1,22.2,3,33.3
		c1,12.3,0.4,24.8,1.2,37.2c0.9,13,1.9,26,2,39.1c0,1.8,2.7,1.9,3,0.3c3.5,3.8,12.1,4.8,16.1,4.4c2.9-0.3,5.3-1.7,8.3-1.8
		c3.3-0.1,6.5,0.1,9.8-0.4c4.4-0.7,10.6-2.1,12.6-6.7C785.1,431.8,784.9,429.9,784.7,428z M751.3,439.5c-4.1-0.2-12-1.6-12.2-4.7
		c-0.1-0.9-0.8-1.4-1.6-1.4c-0.1-3.8-0.2-7.6-0.4-11.4c0.1,0,0.2,0,0.3,0h3c1.9,0,1.9-3,0-3h-3c-0.2,0-0.3,0-0.4,0.1
		c-0.2-3.4-0.4-6.8-0.6-10.2c0.5,0,1.1-0.1,1.6,0.1c0.7,0.2,1.3,0.4,2,0.3c0.8-0.1,1.5-0.6,1.5-1.5c0-0.7-0.7-1.6-1.5-1.5
		c-0.6,0.1-1.2-0.2-1.8-0.3c-0.7-0.1-1.4-0.1-2,0c-0.2-3.4-0.4-6.8-0.6-10.1c0.1,0,0.2,0.1,0.4,0.1h2.6c0.8,0,1.5-0.7,1.5-1.5
		c0-0.8-0.7-1.5-1.5-1.5h-2.6c-0.2,0-0.4,0-0.5,0.1c-0.3-4.6-0.5-9.2-0.6-13.8c1.1,1,2.8,0.9,4.2,0.9c1.9,0,1.9-3,0-3
		c-0.5,0-1,0-1.5,0c-0.1,0-0.3,0-0.5-0.1c-0.2-0.1-0.1,0-0.2-0.2c-0.5-0.5-1.3-0.6-1.9-0.2c-0.1-2.3-0.1-4.7-0.1-7
		c0-0.5,0-1.1,0-1.6c0.2,0.1,0.4,0.1,0.6,0.1c0,0,0.1,0,0.1,0c0.2,0.1,0.5,0.2,0.7,0.3c0.6,0.1,1.2,0.1,1.8,0.1
		c0.8,0,1.5-0.7,1.5-1.5c0-0.8-0.7-1.5-1.5-1.5c-0.3,0-0.5,0-0.8,0c0,0-0.1,0-0.2,0c-0.1,0-0.1,0-0.2,0c0.1,0.1,0.1,0.1,0,0
		c-0.5-0.2-0.9-0.4-1.5-0.4c-0.3,0-0.5,0.1-0.7,0.2c-0.2-3.5-0.5-6.9-0.9-10.5c-0.1-0.7-0.1-1.5-0.2-2.2c0.2,0.1,0.4,0.2,0.7,0.2
		h1.9c0.8,0,1.5-0.7,1.5-1.5c0-0.8-0.7-1.5-1.5-1.5h-1.9c-0.3,0-0.6,0.1-0.8,0.3c-0.2-4.4-0.3-8.8-0.8-13.3c0-0.3-0.1-0.6-0.1-0.9
		c0.8,0.6,1.9,0.5,2.9,0.4c0.8,0,1.5-0.7,1.5-1.5c0-0.8-0.7-1.5-1.5-1.5c-0.3,0-0.7,0-1,0c-0.1,0-0.1,0-0.2,0
		c-0.5-0.5-1.4-0.5-2-0.1c-0.4-3.6-0.9-7.2-1.2-10.8c0.1,0,0.2,0,0.3,0c1.6,0,3.6,0.5,4.8-0.8c1.3-1.4-0.8-3.5-2.1-2.1
		c-0.1,0-0.2,0-0.1,0c-0.3,0-0.6,0-0.9,0c-0.6,0-1.1-0.1-1.7-0.1c-0.2,0-0.4,0-0.5,0.1c-0.3-3.7-0.2-7.5-0.4-11.2
		c0.3,0.1,0.5,0.2,0.8,0.2c0.7,0.1,1.3,0,2,0c1.9,0,1.9-3,0-3c-0.5,0-1.1,0.1-1.6,0c-0.5-0.1-0.9-0.3-1.4-0.3c0-0.4-0.1-0.9-0.1-1.3
		c-0.3-2.7-0.6-5.5-0.9-8.2c0.3,0,0.5-0.1,0.8-0.1c0.4-0.1,0.7-0.2,1-0.3c0.2-0.1,0.4-0.1,0.5-0.1c0,0,0,0,0,0c0,0,0.1,0,0.1,0
		c0.8,0.1,1.5-0.7,1.5-1.5c0-0.9-0.7-1.4-1.5-1.5c-0.6,0-1.2,0.2-1.8,0.3c-0.3,0.1-0.6,0.2-0.9,0.2c0,0,0,0,0,0c0,0-0.1,0-0.1-0.1
		c-0.3-3.4-0.6-6.9-0.9-10.3c0.3,0.3,0.7,0.5,1.1,0.5h1.1c0.8,0,1.5-0.7,1.5-1.5c0-0.8-0.7-1.5-1.5-1.5h-1.1c-0.5,0-1,0.3-1.2,0.7
		c-0.4-4.3-0.7-8.7-1-13h1.9c1.9,0,1.9-3,0-3h-2.1c-0.3-4.2-0.6-8.3-0.9-12.5c0.9-0.2,1.7-0.4,2.6-0.6c0.8-0.2,1.3-1.1,1-1.8
		c-0.2-0.8-1-1.2-1.8-1c-0.7,0.1-1.3,0.3-2,0.5c-0.2-3.4-0.5-6.7-0.7-10.1c-0.1-0.9-0.1-1.7-0.2-2.6c0.3,0.2,0.7,0.2,1.1,0.1
		c0.8-0.2,1.2-1,1-1.8c0-0.1,0-0.2-0.1-0.3c-0.1-0.5-0.6-0.9-1-1c-0.4-0.1-0.8-0.1-1.2-0.1c-0.1-3.6-0.2-7.2-0.3-10.8c0,0,0,0,0,0
		c0.2,0,0.3,0,0.5,0c0.5,0.5,1.5,0.5,2.1-0.1c0.6-0.6,0.5-1.5,0-2.1c-0.5-0.5-1.1-0.8-1.8-0.8c-0.2,0-0.3,0-0.5,0
		c-0.1-0.1-0.2-0.1-0.3-0.2c-0.1-4.2-0.2-8.3-0.5-12.5c0.2,0,0.5,0,0.7,0c0.2,0,0.5-0.1,0.7-0.2c0.1,0,0.2-0.1,0.3-0.1
		c0.1,0,0.1,0,0.1-0.1c0.7,0,1.4-0.3,1.6-1c0.2-0.7-0.2-1.7-1-1.8c-0.6-0.1-1.2-0.1-1.8,0.2c-0.1,0-0.2,0.1-0.3,0.1
		c-0.2-0.1-0.4-0.2-0.6-0.3c-0.2-2.4-0.4-4.8-0.5-7.1h1.3c0.8,0,1.5-0.7,1.5-1.5c0-0.8-0.7-1.5-1.5-1.5h-1.5
		c-0.3-3.6-0.6-7.3-0.8-10.9c0.9,0.2,1.9,0.1,2.7,0c1.9,0,1.9-3,0-3c-0.5,0-0.9,0.1-1.4,0.1c-0.1,0-0.2,0-0.4,0c0,0-0.1,0-0.2,0
		c-0.3-0.3-0.6-0.4-1-0.4c-0.1-2.2-0.2-4.5-0.3-6.7c0-0.4,0-0.7,0-1.1c0.7,0.1,1.5,0,2.1,0c1.9,0,1.9-3,0-3c-0.5,0-0.9,0.1-1.4,0.1
		c-0.1,0-0.2,0-0.3,0c0,0-0.2,0-0.2,0c0,0,0,0,0,0c-0.1-0.1-0.2-0.1-0.2-0.2c0-3.7,0.1-7.3,0.2-11c0.7,0,1.4,0,2,0c1.9,0,1.9-3,0-3
		c-0.5,0-0.9,0.1-1.4,0.1c-0.1,0-0.2,0-0.3,0c0,0-0.2,0-0.2,0c0,0,0,0,0,0c0.1-2.1,0.2-4.2,0.3-6.3c0.5,0,1.1-0.1,1.6-0.1
		c1.9,0,1.9-3,0-3c-0.5,0-1,0.1-1.5,0.1c0.2-3.1,0.3-6.3,0.5-9.4h1.4c0.8,0,1.5-0.7,1.5-1.5c0-0.8-0.7-1.5-1.5-1.5h-1.3
		c0.1-2.8,0.2-5.6,0.2-8.5h2.5c1.9,0,1.9-3,0-3h-2.4c0.1-7.3,0-14.6,0-21.9c3.7,0,7.3,0,10.9-0.2c0,11.8,0.1,23.6,0,35.3
		c0,11.4,0.7,22.7,1,34.1c0.3,11.3,2,22.5,1.9,33.8c0,11.6,0.6,23,1.4,34.5c0.8,10.4,2.1,20.7,3,31.2c0.4,4.9,0.4,9.8,1.1,14.7
		c1,6.3,1,12.2,1.4,18.5c0.6,11.3,2.8,22.7,3.1,34.1c0.2,10,2.2,20,2,30.1c-0.2,12.2,1.5,24.3,1.9,36.4c0.2,5.3,0.1,10.3,0.9,15.6
		c1.1,7.1-0.7,14.2-0.9,21.3C750.5,438.9,750.8,439.3,751.3,439.5z M781.7,431.9c-1.2,3.7-6.7,4.8-10,5.4c-4.1,0.7-8.2-0.1-12.2,0.5
		c-2.2,0.3-4.2,1.6-6.4,1.8c-0.1,0-0.3,0-0.4,0c0.5-0.2,0.9-0.6,0.9-1.3c0.1-5.5,1.3-11,1.2-16.5c0-5.3-1.2-10.4-1.2-15.7
		c0-11.1-1.2-22.3-1.9-33.4c-0.6-10.2-0.4-20.4-1.7-30.6c-0.6-4.9-0.6-9.8-1.1-14.7c-0.6-6.1-1.3-12.2-1.6-18.4
		c-0.3-5.6-0.5-11.1-0.8-16.7c-0.2-5.3-1.6-10.5-2-15.8c-0.8-10.5-2.4-20.9-3-31.4c-1.4-22.8-1.9-45.6-3.4-68.4
		c-1.7-26.1-1.5-52.2-1.5-78.3c1.8-0.1,3.7-0.3,5.5-0.5c2.9-0.3,5.9-0.8,8.8-0.7c3.6,0.1,6.9,1.5,10.4,1.6c3.5,0.1,6.4-0.7,7.2,3.8
		c0.5,3.3,0.7,6.6,0.6,9.9c-0.1,7.2,1.7,14.2,1.7,21.4c-0.1,14.3-3.3,28.2-3.1,42.4c0.2,15-0.6,29.9,1.2,44.8
		c3.6,29.7,6.2,59.4,9.1,89.2c1.5,15.5,1.7,30.9,1.7,46.5c0,14.2,1.5,28.3,1.5,42.5c0,7.9-0.5,16,0.1,23.9
		C781.3,426.1,782.6,429.4,781.7,431.9z"/>
	<path d="M755.3,109.3c-0.4-3.1-2.3-5.9-5.3-6.2c-0.2-0.1-0.4-0.2-0.7-0.3c-4-0.5-7.6,1.9-8.2,6c-0.6,4.4,2.9,7.4,7,7.7
		C752.4,116.8,755.9,113.5,755.3,109.3z M747.4,113.4c-2.3-0.5-3.7-2.4-3.1-4.7c0.5-1.7,1.7-2.6,3.2-2.8c0.3,0.3,0.8,0.4,1.3,0.3
		c2.4-0.6,3.4,1.9,3.6,3.9C752.7,112.7,749.6,113.9,747.4,113.4z"/>
	<path d="M685.2,384.7c-1.4-8.7-3-17.4-4.3-26.1c-2.7-18.2-1.9-36.7-3.1-54.9c-0.1-0.9-0.6-1.4-1.5-1.5c-2.7-0.3-5.3,0.6-8.1,0.6
		c-3.2,0-6.1,0.5-9.2,0.7c-6.4,0.4-12.9,0-19.3,0c-0.7,0-1.1,0.4-1.3,0.9c-0.5,0.2-0.8,0.6-0.9,1.3c0,8.8,0.9,17.4,1.6,26.2
		c0.7,8.6,0.2,17.2,0.4,25.8c0.2,8.3,0.2,16.9,1,25.1c0.4,3.9-1.3,10.4,3.3,12.2c3.9,1.6,9.2-0.7,13.2-1.2c4-0.6,8.1-1.3,12.2-1.3
		c4.2-0.1,8.5,0.5,12.6,0.2C686.7,392.1,685.9,388.8,685.2,384.7z M682.8,388.2c-1,2.3-5.2,1.2-7.1,1.2c-4.2-0.1-8.3-0.1-12.4,0.4
		c-3.4,0.4-6.9,0.8-10.3,1.5c-3.5,0.7-7.9,2.8-9.2-2.3c-0.5-1.8-0.1-4.4-0.3-6.3c-0.2-2.5-0.4-4.9-0.4-7.5c0-4.4,0-8.6-0.3-13
		c-0.7-9.5,0.2-19.1-0.5-28.6c-0.6-9.1-1.7-18-1.7-27.1c6.2,0,12.4,0.3,18.5,0c2.8-0.1,5.6-0.7,8.4-0.7c2.4,0,5-0.6,7.4-0.6
		c1,16.6,0.4,33.4,2.5,50.1c1.2,9.1,2.9,18,4.4,27.1C681.9,383.3,683.2,387.2,682.8,388.2z"/>
	<path d="M618.1,376.5c-0.1-6.1-1.7-12-1.7-18.1c0-3.2,0.2-6.3,0.2-9.5c0.1-3.2-0.8-5.8-1-8.9c-0.4-5.6,0.8-11.2,0.1-16.8
		c-0.6-5-0.8-9.6-0.6-14.6c0.1-2.8-0.2-4.2-3.2-4.7c-4.7-0.7-10.4,0.4-15,0.9c-4.7,0.5-9.7,2.9-14.5,2.2c-0.4-0.9-1.6-1.4-2.4-0.5
		c-0.1,0.1-0.2,0.2-0.3,0.4c-0.8-0.1-1.6,0.4-1.6,1.4c0.1,16.1,3.3,32,3.7,48c0.4,14.1,2.8,28.2,5.3,42c0.3,1.4,2.1,1.3,2.7,0.4
		c2.2-3,3.4-7,5-10.4c1.2-2.6,2.2-6.9,4.1-9.3c4.4,2.8,7.8,6.6,11,10.6c1.8,2.2,3.7,4.3,6.7,3.9c0.5-0.1,1-0.6,1-1
		C618.9,387.2,618.2,381.8,618.1,376.5z M615.2,390.3c-1.1,0.5-4.1-4.3-4.6-5.1c-2.8-3.7-7.1-7.2-11-9.5c-0.6-0.4-1.3-0.2-1.8,0.2
		c-2.4,2-3.4,6.6-4.6,9.2c-1.2,2.6-2.3,5.7-3.7,8.5c-2.3-12.9-4.3-26.1-4.6-39.2c-0.3-14.9-3.3-29.7-3.6-44.7
		c4.2,0.8,8.4-0.6,12.5-1.5c3.1-0.6,6.2-0.5,9.3-0.9c1.7-0.2,6.6-1.7,8.3-0.6c1.6,1,0.7,5.2,0.7,7.1c0,2.5-0.1,4.8,0.3,7.3
		c0.9,6.5-0.1,12.9,0.4,19.4c0.2,3.1,1,6,0.9,9.1c-0.1,3.5-0.3,6.9-0.2,10.4c0.1,7.1,1.7,14,1.5,21.2
		C615,382.7,616.2,389.9,615.2,390.3z"/>
</g>
</svg>
