<?xml version="1.0" encoding="utf-8"?>
<!-- Generator: Adobe Illustrator 22.1.0, SVG Export Plug-In . SVG Version: 6.00 Build 0)  -->
<svg version="1.1" id="Layer_1" xmlns="http://www.w3.org/2000/svg" xmlns:xlink="http://www.w3.org/1999/xlink" x="0px" y="0px"
	 viewBox="0 0 150 150" style="enable-background:new 0 0 150 150;" xml:space="preserve">
<style type="text/css">
	.st0{fill:#9D5BB4;}
	.st1{fill:#5965BE;}
	.st2{fill:#FF6090;}
	.st3{fill:#E91E63;}
	.st4{fill:#CC72A6;}
	.st5{fill:#B0003A;}
	.st6{fill:#8695FF;}
	.st7{fill:#E8AAFF;}
</style>
<title>BreezyCards</title>
<g id="Layer_2_1_">
	<g id="Layer_1-2">
		<polygon class="st0" points="7,87.2 56.8,78.2 75.2,75 23.9,149.8 7.2,87.5 		"/>
		<polygon class="st1" points="7.2,86.9 35.3,46.4 75.2,75 57,78.1 7,87.2 		"/>
		<polygon class="st2" points="87.7,143.8 78.6,94 75.2,75 150.2,127 87.9,143.7 		"/>
		<polygon class="st3" points="87.4,143.8 46.9,115.7 75.2,75 78.6,94.1 87.7,143.8 		"/>
		<polygon class="st4" points="144.4,62.5 94.6,71.5 75.5,75 127.6,-0.1 144.2,62.3 		"/>
		<polygon class="st5" points="144.3,62.8 116.2,103.4 75.4,75.1 94.5,71.6 144.3,62.6 		"/>
		<polygon class="st6" points="63.2,6.4 71.9,56.1 75.2,75 0.8,23.3 63.2,6.4 		"/>
		<polygon class="st7" points="63.5,6.4 103.7,34.3 75.4,75 72,56 63.2,6.4 		"/>
	</g>
</g>
</svg>
