<?xml version="1.0" encoding="utf-8"?>
<!-- Generator: Adobe Illustrator 22.1.0, SVG Export Plug-In . SVG Version: 6.00 Build 0)  -->
<svg version="1.1" id="Layer_1" xmlns="http://www.w3.org/2000/svg" xmlns:xlink="http://www.w3.org/1999/xlink" x="0px" y="0px"
	 viewBox="0 0 24 24" style="enable-background:new 0 0 24 24;" xml:space="preserve">
<style type="text/css">
	.st0{fill:#9D5BB4;}
	.st1{fill:#5965BE;}
	.st2{fill:#FF6090;}
	.st3{fill:#E91E63;}
	.st4{fill:#CC72A6;}
	.st5{fill:#B0003A;}
	.st6{fill:#8695FF;}
	.st7{fill:#E8AAFF;}
</style>
<title>Artboard 3</title>
<polygon class="st0" points="2.6,13.6 9.7,12.3 12.4,11.8 5,22.5 2.6,13.6 "/>
<polygon class="st1" points="2.6,13.5 6.6,7.7 12.5,11.8 9.7,12.2 2.6,13.5 "/>
<polygon class="st2" points="14.2,21.6 12.9,14.5 12.4,11.8 23.1,19.2 14.2,21.6 "/>
<polygon class="st3" points="14.1,21.6 8.3,17.6 12.4,11.8 12.9,14.5 14.2,21.6 "/>
<polygon class="st4" points="22.2,10.1 15.1,11.4 12.4,11.9 19.8,1.1 22.2,10 "/>
<polygon class="st5" points="22.2,10.1 18.2,15.9 12.3,11.9 15.1,11.4 22.2,10.1 "/>
<polygon class="st6" points="10.7,2 12,9.1 12.4,11.9 1.7,4.4 10.6,2.1 "/>
<polygon class="st7" points="10.7,2.1 16.5,6 12.4,11.9 11.9,9.1 10.7,2.1 "/>
</svg>
